<svg width="566" height="507" viewBox="0 0 566 507" fill="none" xmlns="http://www.w3.org/2000/svg">
<path fill-rule="evenodd" clip-rule="evenodd" d="M504.696 408.249C466.915 436.751 405.968 438.28 352.904 450.435C306.333 461.103 262.065 480.879 213.748 474.895C164.689 468.819 127.606 443.053 92.9507 418.237C57.0454 392.527 23.5588 364.834 11.5011 330.073C-1.7483 291.876 -9.5572 247.734 22.5953 215.409C54.2722 183.562 118.866 181.569 171.704 169.011C219.05 157.759 264.357 145.087 314.417 146.052C373.792 147.197 437.408 148.778 483.187 175.017C531.988 202.99 561.527 246.255 565.562 290.005C569.511 332.831 546.576 376.654 504.696 408.249Z" fill="#ECF8FC"/>
<path d="M196.74 285.092C196.74 285.092 197.88 237.174 175.809 224.348C153.738 211.523 111.774 203.51 110.2 134.699C109.279 94.4165 108.291 76.8043 107.615 69.1249C107.554 68.4272 107.654 67.7246 107.909 67.0723C108.165 66.42 108.568 65.8356 109.086 65.3651C109.605 64.8945 110.226 64.5506 110.9 64.3602C111.574 64.1698 112.283 64.1381 112.972 64.2677C133.881 68.2002 201.779 84.4128 216.015 130.761C232.893 185.707 196.74 285.092 196.74 285.092Z" fill="#027FC2"/>
<path d="M129.138 83.4123C152.083 103.873 178.614 140.093 192.756 176.31C194.572 182.279 199.882 194.971 202.187 217.523C204.247 236.333 203.223 256.208 200.726 269.365C200.689 269.563 200.613 269.752 200.502 269.92C200.392 270.089 200.249 270.234 200.083 270.347C199.917 270.46 199.729 270.539 199.532 270.58C199.335 270.621 199.132 270.623 198.934 270.585C197.503 270.312 197.694 268.776 197.706 268.824C200.559 246.346 199.375 218.368 192.84 193.121C184.486 162.127 165.869 132.073 146.609 106.584L144.626 104.074C129.704 84.91 126.562 84.7695 127.958 83.4328C128.116 83.2823 128.325 83.1968 128.544 83.193C128.762 83.1892 128.974 83.2675 129.138 83.4123Z" fill="#51BCF4"/>
<path d="M232.209 377.224C235.194 378.687 203.939 339.383 194.153 277.651C189.539 248.563 189.478 212.117 172.908 198.072C159.118 186.383 112.189 193.763 96.8343 196.571C96.4039 196.649 96.0045 196.848 95.683 197.144C95.3614 197.441 95.131 197.823 95.0186 198.246C94.9063 198.668 94.9167 199.114 95.0486 199.531C95.1806 199.948 95.4286 200.319 95.7636 200.601C103.129 206.784 118.88 221.37 122.982 236.065C128.394 255.442 146.815 267.766 163.307 271.102C179.799 274.439 188.973 277.674 197.007 304.049C205.041 330.423 223.724 373.058 232.209 377.224Z" fill="#51BCF4"/>
<path d="M118.427 204.756C138.017 205.574 159.046 214.513 169.714 231.276L170.721 232.876C173.048 236.627 186.231 263.294 193.554 285.391C193.598 285.523 193.587 285.668 193.525 285.792C193.462 285.917 193.353 286.011 193.22 286.055C193.091 286.095 192.952 286.085 192.83 286.027C192.708 285.968 192.612 285.866 192.563 285.74C187.461 273.254 180.134 257.423 174.297 245.586C168.039 232.668 163.658 223.919 149.385 215.54C133.496 206.515 118.317 205.582 118.362 205.596C118.25 205.588 118.147 205.536 118.073 205.451C118 205.367 117.964 205.256 117.972 205.145C117.98 205.033 118.032 204.929 118.117 204.856C118.201 204.783 118.312 204.746 118.423 204.755L118.427 204.756Z" fill="white"/>
<path d="M218.81 382.393C220.583 383.327 208.828 363.098 207.927 345.274C207.025 327.451 203.004 297.032 187.634 278.835C172.265 260.637 155.433 258.977 134.225 275.52C116.558 289.307 105.526 296.264 99.0608 297.556C97.4608 297.876 96.6438 299.683 97.424 301.118C101.571 308.757 113.294 326.297 132.98 325.061C158.09 323.485 188.521 307.162 197.796 320.779C207.072 334.396 205.879 342.016 206.164 348.469C206.45 354.922 207.084 376.21 218.81 382.393Z" fill="#027FC2"/>
<path d="M141.349 297.37C149.042 289.995 161.57 282.748 172.518 284.099C186.764 286.394 196.252 295.906 201.436 310.067C203.46 316.08 204.292 319.291 205.488 326.661C205.583 327.249 204.716 327.425 204.571 326.85C203.701 323.388 202.839 319.764 201.549 316.015C194.047 291.826 178.011 288.569 177.388 288.074C176.177 288.193 168.83 282.694 151.399 292.073C148.126 293.853 144.985 295.866 142.001 298.098L141.985 298.11C141.886 298.186 141.762 298.221 141.638 298.207C141.514 298.194 141.4 298.133 141.319 298.039C141.238 297.944 141.197 297.821 141.204 297.697C141.21 297.573 141.264 297.456 141.355 297.37H141.349Z" fill="#51BCF4"/>
<path d="M196.089 90.911C191.788 91.289 187.785 93.2622 184.865 96.4425C181.946 99.6229 180.321 103.78 180.312 108.098C180.156 162.829 179.902 351.607 183.468 418.423C183.649 421.832 185.121 425.044 187.586 427.406C190.051 429.768 193.323 431.103 196.737 431.138C231.792 431.516 332.643 432.21 389.893 428.546C395.637 428.185 401.026 425.647 404.962 421.45C408.899 417.253 411.088 411.713 411.082 405.958C411.012 348.517 410.096 186.974 402.227 113.134C401.77 108.847 399.828 104.857 396.736 101.853C393.645 98.8495 389.6 97.023 385.302 96.6903C347.065 93.7168 245.525 86.6144 196.089 90.911Z" fill="#76838F"/>
<path d="M194.384 122.447C193.702 169.262 191.735 325.003 195.157 382.483C195.657 390.884 202.183 397.517 210.242 397.798C243.42 398.954 328.502 401.192 376.98 395.858C385.71 394.903 392.383 387.33 392.615 378.168C393.827 330.392 397.103 185.339 393.778 128.5C393.247 119.434 386.32 112.199 377.636 111.614C341.712 109.193 249.463 103.61 208.237 107.043C200.497 107.688 194.503 114.342 194.384 122.447Z" fill="#EBF8FF"/>
<path d="M328.918 114.749C328.837 114.972 328.704 115.171 328.529 115.33L318.896 124.3C318.2 124.948 317.672 125.756 317.358 126.653C317.044 127.551 316.952 128.512 317.092 129.452L319.02 142.473C319.058 142.705 319.038 142.943 318.962 143.166C318.888 143.367 318.772 143.55 318.621 143.701C318.47 143.853 318.288 143.971 318.087 144.046C317.893 144.121 317.684 144.152 317.476 144.136C317.268 144.119 317.067 144.056 316.887 143.951L305.38 137.556C304.549 137.095 303.619 136.842 302.669 136.821C301.719 136.799 300.778 137.009 299.926 137.431L288.142 143.283C287.9 143.403 287.63 143.453 287.361 143.428C287.092 143.402 286.836 143.302 286.621 143.138C286.407 142.974 286.242 142.754 286.146 142.502C286.05 142.249 286.026 141.975 286.078 141.71L288.602 128.785C288.783 127.852 288.736 126.889 288.462 125.979C288.189 125.068 287.699 124.238 287.034 123.559L277.818 114.159C277.629 113.966 277.499 113.724 277.44 113.461C277.382 113.198 277.398 112.924 277.487 112.669C277.576 112.415 277.735 112.19 277.945 112.021C278.154 111.852 278.407 111.745 278.675 111.712L291.744 110.117C292.687 110.001 293.588 109.658 294.369 109.117C295.15 108.576 295.788 107.854 296.228 107.012L302.321 95.3437C302.446 95.1043 302.636 94.9046 302.868 94.7672C303.1 94.6298 303.367 94.5603 303.637 94.5664C303.907 94.5726 304.169 94.6542 304.395 94.802C304.621 94.9499 304.801 95.158 304.915 95.4029L310.46 107.344C310.861 108.205 311.466 108.956 312.222 109.532C312.978 110.107 313.863 110.491 314.8 110.649L327.788 112.843C327.994 112.873 328.191 112.949 328.363 113.066C328.536 113.182 328.68 113.336 328.786 113.516C328.894 113.7 328.962 113.906 328.985 114.119C329.008 114.331 328.985 114.546 328.918 114.749Z" fill="#F7B614"/>
<path opacity="0.67" d="M303.034 134.721C303.011 134.787 302.968 134.844 302.911 134.884C302.853 134.924 302.785 134.945 302.715 134.943C301.46 134.916 300.218 135.193 299.094 135.75L294.61 137.979C294.571 137.999 294.528 138.01 294.485 138.013C294.441 138.016 294.398 138.011 294.356 137.997C294.315 137.983 294.277 137.961 294.244 137.932C294.211 137.904 294.184 137.869 294.165 137.83C294.146 137.791 294.134 137.748 294.131 137.705C294.128 137.662 294.134 137.618 294.148 137.577C294.161 137.535 294.183 137.497 294.212 137.464C294.241 137.431 294.275 137.405 294.314 137.385L298.799 135.157C300.019 134.552 301.367 134.251 302.729 134.281C302.817 134.283 302.9 134.32 302.961 134.384C303.022 134.447 303.055 134.532 303.053 134.62C303.051 134.654 303.045 134.688 303.034 134.721Z" fill="white"/>
<path opacity="0.67" d="M315.479 131.621C315.454 131.69 315.407 131.75 315.345 131.789C315.283 131.829 315.209 131.846 315.136 131.839C315.062 131.832 314.993 131.801 314.94 131.751C314.886 131.7 314.851 131.633 314.839 131.56L314.581 129.818C314.382 128.47 314.513 127.095 314.964 125.809C315.415 124.524 316.171 123.367 317.168 122.439C317.233 122.379 317.318 122.347 317.406 122.351C317.494 122.354 317.577 122.392 317.637 122.456C317.697 122.52 317.729 122.606 317.726 122.694C317.722 122.782 317.685 122.865 317.62 122.925C316.702 123.779 316.005 124.845 315.59 126.029C315.175 127.213 315.054 128.48 315.238 129.722L315.496 131.464C315.504 131.517 315.498 131.571 315.479 131.621Z" fill="white"/>
<path opacity="0.67" d="M323.325 117.189C323.238 117.438 323.114 117.672 322.958 117.885C322.933 117.921 322.901 117.953 322.863 117.977C322.826 118.001 322.784 118.018 322.74 118.025C322.696 118.033 322.651 118.031 322.607 118.021C322.564 118.011 322.523 117.992 322.487 117.965C322.451 117.939 322.421 117.906 322.398 117.867C322.375 117.829 322.361 117.786 322.355 117.742C322.349 117.698 322.352 117.653 322.364 117.61C322.376 117.567 322.397 117.527 322.424 117.492C322.627 117.212 322.755 116.885 322.796 116.542C322.836 116.199 322.788 115.851 322.655 115.532C322.527 115.209 322.317 114.924 322.046 114.707C321.774 114.49 321.451 114.347 321.107 114.294L314.376 113.157C313.033 112.931 311.765 112.381 310.682 111.556C309.599 110.73 308.732 109.654 308.158 108.419L305.277 102.237C305.117 101.893 304.863 101.6 304.545 101.392C304.226 101.184 303.856 101.069 303.476 101.061C303.096 101.052 302.721 101.15 302.394 101.344C302.067 101.537 301.8 101.818 301.624 102.155L298.466 108.2C297.837 109.407 296.923 110.443 295.804 111.219C294.685 111.995 293.394 112.487 292.043 112.652L285.277 113.481C284.899 113.527 284.542 113.678 284.246 113.917C283.949 114.155 283.726 114.471 283.6 114.83C283.474 115.189 283.451 115.576 283.534 115.947C283.617 116.319 283.802 116.659 284.068 116.931L288.844 121.801C289.797 122.774 290.5 123.964 290.891 125.269C291.282 126.573 291.35 127.953 291.089 129.29L289.784 135.985C289.705 136.375 289.742 136.78 289.892 137.148C289.911 137.189 289.923 137.233 289.925 137.278C289.927 137.324 289.919 137.369 289.903 137.411C289.887 137.453 289.863 137.491 289.831 137.524C289.8 137.556 289.762 137.582 289.72 137.599C289.679 137.616 289.634 137.625 289.589 137.624C289.543 137.624 289.499 137.614 289.458 137.595C289.417 137.577 289.38 137.55 289.349 137.517C289.319 137.484 289.295 137.444 289.28 137.402C289.081 136.913 289.029 136.376 289.133 135.858L290.439 129.164C290.679 127.932 290.617 126.661 290.256 125.459C289.896 124.257 289.248 123.161 288.37 122.265L283.596 117.394C283.243 117.034 282.999 116.583 282.889 116.091C282.78 115.599 282.81 115.087 282.977 114.611C283.143 114.136 283.439 113.717 283.832 113.401C284.224 113.085 284.697 112.885 285.197 112.824L291.962 111.996C293.208 111.843 294.398 111.39 295.429 110.676C296.461 109.962 297.303 109.007 297.884 107.895L301.039 101.842C301.272 101.395 301.626 101.023 302.06 100.767C302.493 100.511 302.99 100.381 303.494 100.392C303.998 100.404 304.488 100.556 304.91 100.831C305.332 101.107 305.668 101.495 305.881 101.952L308.764 108.137C309.293 109.275 310.092 110.267 311.09 111.027C312.088 111.787 313.255 112.294 314.493 112.502L321.224 113.639C321.61 113.706 321.978 113.856 322.301 114.078C322.624 114.301 322.895 114.591 323.094 114.928C323.294 115.266 323.418 115.643 323.458 116.033C323.498 116.424 323.452 116.818 323.325 117.189Z" fill="white"/>
<path d="M224.417 119.505C224.597 119.501 224.775 119.54 224.936 119.62L234 123.989C234.655 124.305 235.376 124.456 236.102 124.431C236.829 124.405 237.538 124.204 238.169 123.843L246.898 118.849C247.054 118.758 247.229 118.706 247.408 118.698C247.572 118.695 247.735 118.727 247.885 118.793C248.035 118.858 248.169 118.955 248.279 119.077C248.386 119.195 248.466 119.335 248.512 119.487C248.557 119.64 248.568 119.801 248.543 119.958L247.193 129.929C247.095 130.649 247.174 131.382 247.422 132.065C247.671 132.748 248.082 133.36 248.62 133.848L256.068 140.615C256.222 140.754 256.333 140.932 256.39 141.131C256.447 141.33 256.447 141.541 256.391 141.74C256.334 141.939 256.222 142.117 256.069 142.256C255.916 142.395 255.726 142.488 255.523 142.525L245.63 144.313C244.915 144.442 244.242 144.744 243.67 145.191C243.097 145.639 242.642 146.219 242.344 146.881L238.211 156.056C238.126 156.243 237.99 156.404 237.818 156.519C237.647 156.633 237.447 156.698 237.241 156.705C237.035 156.713 236.831 156.662 236.652 156.56C236.472 156.457 236.326 156.307 236.228 156.125L231.46 147.259C231.116 146.619 230.621 146.072 230.019 145.666C229.416 145.26 228.724 145.007 228.001 144.928L217.999 143.837C217.793 143.815 217.598 143.736 217.435 143.609C217.272 143.482 217.148 143.312 217.077 143.118C217.006 142.924 216.991 142.714 217.033 142.511C217.076 142.309 217.174 142.123 217.317 141.973L224.273 134.701C224.776 134.176 225.143 133.537 225.343 132.838C225.543 132.14 225.57 131.403 225.422 130.692L223.376 120.839C223.34 120.684 223.34 120.523 223.375 120.367C223.41 120.212 223.48 120.067 223.579 119.942C223.679 119.813 223.806 119.708 223.95 119.632C224.095 119.557 224.254 119.514 224.417 119.505Z" fill="#FBD26D"/>
<path opacity="0.67" d="M245.836 132.387C245.89 132.385 245.942 132.4 245.987 132.43C246.031 132.46 246.065 132.503 246.083 132.553C246.413 133.454 246.955 134.262 247.664 134.908L250.498 137.482C250.545 137.528 250.572 137.59 250.573 137.655C250.575 137.72 250.551 137.784 250.507 137.832C250.463 137.881 250.402 137.91 250.337 137.915C250.272 137.919 250.207 137.898 250.157 137.857L247.324 135.281C246.554 134.581 245.965 133.704 245.607 132.727C245.584 132.663 245.587 132.594 245.616 132.533C245.644 132.472 245.695 132.425 245.758 132.402C245.783 132.393 245.81 132.388 245.836 132.387Z" fill="white"/>
<path opacity="0.67" d="M240.167 124.382C240.213 124.381 240.259 124.392 240.299 124.415C240.34 124.438 240.373 124.471 240.396 124.511C240.429 124.569 240.438 124.638 240.42 124.703C240.403 124.767 240.36 124.822 240.302 124.856L239.132 125.524C238.228 126.042 237.212 126.331 236.171 126.368C235.13 126.404 234.096 126.187 233.159 125.734C233.098 125.705 233.052 125.653 233.03 125.59C233.008 125.526 233.012 125.457 233.041 125.397C233.07 125.336 233.122 125.29 233.185 125.268C233.248 125.246 233.318 125.249 233.378 125.279C234.242 125.695 235.195 125.895 236.153 125.861C237.112 125.827 238.048 125.561 238.881 125.085L240.05 124.417C240.085 124.396 240.126 124.384 240.167 124.382Z" fill="white"/>
<path opacity="0.67" d="M227.71 122.809C227.911 122.802 228.112 122.825 228.306 122.878C228.371 122.896 228.426 122.939 228.459 122.997C228.492 123.056 228.5 123.125 228.482 123.19C228.464 123.255 228.421 123.31 228.363 123.343C228.304 123.376 228.235 123.384 228.17 123.366C227.914 123.298 227.644 123.298 227.387 123.365C227.131 123.432 226.896 123.564 226.705 123.748C226.51 123.928 226.366 124.157 226.287 124.411C226.207 124.664 226.196 124.934 226.254 125.194L227.315 130.299C227.528 131.318 227.491 132.373 227.206 133.374C226.921 134.375 226.397 135.291 225.679 136.044L222.073 139.812C221.872 140.022 221.734 140.284 221.674 140.568C221.614 140.853 221.635 141.148 221.734 141.422C221.833 141.695 222.007 141.935 222.236 142.114C222.464 142.294 222.739 142.406 223.028 142.438L228.211 143.005C229.246 143.119 230.238 143.482 231.102 144.064C231.965 144.646 232.674 145.43 233.168 146.347L235.638 150.938C235.776 151.194 235.982 151.407 236.234 151.551C236.487 151.696 236.774 151.767 237.065 151.757C237.355 151.747 237.637 151.655 237.878 151.493C238.12 151.331 238.311 151.105 238.43 150.84L240.574 146.086C241.001 145.136 241.653 144.304 242.473 143.663C243.294 143.021 244.258 142.589 245.283 142.404L250.413 141.472C250.713 141.42 250.99 141.28 251.211 141.071C251.234 141.045 251.263 141.025 251.294 141.011C251.326 140.997 251.36 140.99 251.395 140.989C251.43 140.989 251.464 140.996 251.496 141.009C251.528 141.023 251.556 141.042 251.58 141.067C251.604 141.092 251.623 141.122 251.635 141.154C251.647 141.187 251.652 141.221 251.651 141.256C251.649 141.291 251.64 141.324 251.625 141.355C251.609 141.386 251.588 141.414 251.561 141.436C251.269 141.715 250.901 141.9 250.503 141.97L245.373 142.901C244.429 143.073 243.541 143.471 242.786 144.061C242.03 144.652 241.429 145.418 241.035 146.292L238.894 151.046C238.736 151.397 238.483 151.698 238.164 151.913C237.844 152.128 237.471 152.25 237.086 152.264C236.701 152.278 236.32 152.184 235.985 151.993C235.651 151.802 235.377 151.521 235.193 151.182L232.723 146.59C232.268 145.745 231.615 145.024 230.82 144.488C230.025 143.952 229.111 143.617 228.158 143.512L222.974 142.945C222.592 142.903 222.228 142.755 221.925 142.517C221.622 142.28 221.391 141.962 221.259 141.6C221.128 141.238 221.1 140.846 221.179 140.469C221.258 140.092 221.441 139.745 221.707 139.467L225.311 135.698C225.974 135.004 226.459 134.159 226.723 133.236C226.987 132.313 227.023 131.34 226.826 130.4L225.765 125.296C225.704 125.002 225.708 124.698 225.777 124.405C225.845 124.113 225.977 123.838 226.162 123.602C226.347 123.365 226.581 123.171 226.849 123.034C227.116 122.897 227.41 122.82 227.71 122.808V122.809Z" fill="white"/>
<path d="M200.035 165.461C200.148 165.458 200.26 165.483 200.361 165.534L206.034 168.262C206.444 168.459 206.895 168.553 207.35 168.537C207.804 168.521 208.248 168.395 208.642 168.169L214.109 165.045C214.206 164.988 214.316 164.955 214.428 164.95C214.531 164.948 214.633 164.968 214.727 165.009C214.821 165.05 214.906 165.111 214.974 165.187C215.041 165.26 215.09 165.347 215.119 165.441C215.148 165.536 215.155 165.635 215.14 165.733L214.295 171.973C214.233 172.424 214.282 172.883 214.438 173.311C214.594 173.739 214.851 174.122 215.188 174.428L219.849 178.657C219.945 178.744 220.014 178.855 220.05 178.98C220.085 179.104 220.085 179.236 220.05 179.36C220.014 179.485 219.944 179.596 219.848 179.683C219.752 179.77 219.634 179.828 219.507 179.85L213.311 180.974C212.864 181.055 212.443 181.244 212.085 181.524C211.727 181.804 211.442 182.167 211.256 182.581L208.664 188.322C208.611 188.44 208.526 188.54 208.419 188.612C208.311 188.684 208.186 188.725 208.057 188.729C207.928 188.734 207.8 188.702 207.688 188.638C207.576 188.574 207.484 188.48 207.423 188.366L204.44 182.821C204.224 182.421 203.915 182.079 203.538 181.825C203.16 181.571 202.727 181.412 202.275 181.363L196.016 180.681C195.887 180.667 195.766 180.617 195.665 180.537C195.563 180.457 195.486 180.351 195.442 180.229C195.398 180.108 195.389 179.977 195.415 179.851C195.441 179.725 195.502 179.608 195.591 179.515L199.943 174.963C200.257 174.635 200.487 174.235 200.612 173.798C200.737 173.361 200.754 172.9 200.661 172.455L199.379 166.289C199.357 166.192 199.356 166.091 199.378 165.994C199.4 165.896 199.444 165.805 199.506 165.727C199.57 165.647 199.65 165.582 199.742 165.536C199.833 165.49 199.933 165.465 200.035 165.461Z" fill="#FBD26D"/>
<path opacity="0.67" d="M213.446 173.523C213.479 173.521 213.512 173.531 213.54 173.549C213.567 173.568 213.589 173.595 213.6 173.626C213.806 174.19 214.145 174.695 214.589 175.099L216.362 176.71C216.393 176.738 216.412 176.778 216.414 176.82C216.416 176.862 216.401 176.903 216.373 176.934C216.345 176.965 216.305 176.984 216.263 176.986C216.222 176.988 216.181 176.973 216.149 176.945L214.376 175.334C213.895 174.895 213.526 174.347 213.303 173.735C213.296 173.716 213.292 173.695 213.293 173.674C213.294 173.653 213.299 173.633 213.308 173.614C213.316 173.595 213.329 173.578 213.344 173.564C213.359 173.55 213.377 173.539 213.397 173.532C213.412 173.526 213.429 173.522 213.446 173.523Z" fill="white"/>
<path opacity="0.67" d="M209.899 168.514C209.934 168.513 209.969 168.524 209.998 168.545C210.026 168.566 210.047 168.595 210.057 168.63C210.066 168.664 210.064 168.7 210.05 168.733C210.037 168.766 210.013 168.793 209.982 168.81L209.251 169.228C208.686 169.552 208.05 169.734 207.399 169.758C206.748 169.781 206.101 169.646 205.513 169.364C205.494 169.356 205.476 169.344 205.461 169.328C205.446 169.313 205.434 169.294 205.426 169.274C205.419 169.254 205.415 169.233 205.416 169.212C205.417 169.19 205.422 169.169 205.432 169.15C205.441 169.13 205.454 169.113 205.47 169.099C205.486 169.085 205.505 169.074 205.525 169.067C205.546 169.061 205.567 169.058 205.589 169.06C205.61 169.062 205.631 169.069 205.65 169.079C206.191 169.339 206.787 169.464 207.387 169.443C207.987 169.422 208.573 169.255 209.094 168.958L209.825 168.539C209.847 168.525 209.873 168.517 209.899 168.514Z" fill="white"/>
<path opacity="0.67" d="M202.102 167.527C202.228 167.523 202.354 167.538 202.476 167.571C202.515 167.583 202.548 167.61 202.568 167.646C202.588 167.681 202.594 167.724 202.583 167.764C202.572 167.803 202.547 167.837 202.511 167.858C202.476 167.88 202.434 167.886 202.394 167.877C202.234 167.835 202.065 167.834 201.905 167.876C201.745 167.918 201.598 168 201.479 168.115C201.356 168.228 201.266 168.372 201.216 168.53C201.166 168.689 201.159 168.858 201.195 169.021L201.86 172.216C201.993 172.854 201.968 173.514 201.789 174.141C201.609 174.767 201.28 175.34 200.829 175.811L198.575 178.169C198.45 178.301 198.365 178.465 198.328 178.642C198.292 178.819 198.305 179.003 198.368 179.173C198.43 179.343 198.538 179.492 198.681 179.604C198.823 179.716 198.993 179.786 199.173 179.806L202.417 180.162C203.065 180.233 203.686 180.46 204.226 180.824C204.766 181.188 205.21 181.678 205.519 182.252L207.064 185.126C207.15 185.286 207.28 185.419 207.438 185.509C207.595 185.6 207.775 185.644 207.957 185.638C208.139 185.631 208.315 185.574 208.466 185.473C208.617 185.372 208.737 185.23 208.811 185.065L210.152 182.09C210.42 181.495 210.828 180.975 211.341 180.574C211.854 180.172 212.457 179.902 213.099 179.786L216.309 179.203C216.498 179.173 216.673 179.087 216.813 178.958C216.843 178.93 216.883 178.914 216.925 178.915C216.966 178.916 217.006 178.934 217.035 178.964C217.063 178.994 217.079 179.034 217.079 179.075C217.079 179.117 217.062 179.156 217.032 179.186C216.85 179.361 216.619 179.477 216.369 179.52L213.16 180.102C212.569 180.209 212.014 180.459 211.541 180.828C211.068 181.198 210.692 181.677 210.446 182.225L209.105 185.2C209.007 185.421 208.848 185.61 208.648 185.745C208.447 185.881 208.213 185.957 207.971 185.965C207.729 185.974 207.49 185.914 207.28 185.793C207.071 185.672 206.899 185.495 206.786 185.281L205.239 182.407C204.955 181.879 204.546 181.428 204.049 181.093C203.551 180.757 202.979 180.548 202.383 180.483L199.139 180.127C198.898 180.102 198.67 180.009 198.479 179.86C198.288 179.711 198.143 179.511 198.06 179.284C197.977 179.056 197.96 178.81 198.011 178.573C198.061 178.336 198.177 178.118 198.345 177.944L200.601 175.586C201.016 175.152 201.319 174.624 201.484 174.047C201.649 173.47 201.672 172.862 201.549 172.274L200.885 169.08C200.847 168.896 200.85 168.705 200.893 168.522C200.936 168.339 201.018 168.168 201.133 168.02C201.249 167.871 201.396 167.75 201.563 167.664C201.73 167.578 201.914 167.53 202.102 167.522V167.527Z" fill="white"/>
<path d="M374.387 126.417C374.206 126.419 374.028 126.466 373.87 126.554L364.942 131.191C364.298 131.526 363.581 131.7 362.854 131.696C362.128 131.692 361.413 131.512 360.771 131.171L351.886 126.445C351.729 126.357 351.552 126.31 351.372 126.308C351.208 126.311 351.046 126.348 350.898 126.419C350.75 126.49 350.619 126.591 350.514 126.717C350.41 126.838 350.335 126.981 350.293 127.135C350.252 127.289 350.247 127.45 350.277 127.607L351.931 137.533C352.05 138.249 351.993 138.983 351.765 139.672C351.537 140.361 351.145 140.984 350.623 141.488L343.384 148.479C343.236 148.622 343.131 148.804 343.08 149.004C343.03 149.204 343.037 149.415 343.099 149.611C343.162 149.808 343.279 149.983 343.436 150.116C343.593 150.25 343.784 150.337 343.988 150.368L353.946 151.862C354.664 151.97 355.346 152.251 355.931 152.681C356.517 153.11 356.989 153.676 357.308 154.329L361.719 163.374C361.81 163.559 361.951 163.715 362.125 163.825C362.3 163.934 362.502 163.993 362.708 163.994C362.915 163.995 363.117 163.938 363.293 163.83C363.468 163.722 363.61 163.567 363.702 163.382L368.204 154.38C368.528 153.73 369.006 153.168 369.596 152.744C370.186 152.32 370.87 152.046 371.589 151.945L381.553 150.544C381.758 150.516 381.951 150.431 382.109 150.298C382.268 150.166 382.386 149.992 382.451 149.796C382.516 149.6 382.525 149.389 382.476 149.189C382.427 148.988 382.323 148.805 382.175 148.66L375.003 141.603C374.485 141.093 374.099 140.466 373.878 139.774C373.657 139.082 373.607 138.346 373.733 137.631L375.481 127.721C375.512 127.565 375.507 127.404 375.467 127.249C375.428 127.095 375.354 126.951 375.252 126.829C375.146 126.702 375.014 126.599 374.864 126.528C374.715 126.457 374.552 126.419 374.387 126.417Z" fill="#FBD26D"/>
<path opacity="0.67" d="M353.37 139.948C353.317 139.947 353.264 139.964 353.221 139.995C353.177 140.027 353.145 140.071 353.129 140.122C352.827 141.032 352.309 141.856 351.62 142.523L348.866 145.181C348.84 145.204 348.819 145.232 348.803 145.263C348.788 145.294 348.779 145.328 348.778 145.362C348.776 145.397 348.781 145.431 348.794 145.464C348.806 145.496 348.825 145.526 348.849 145.551C348.873 145.576 348.902 145.595 348.934 145.609C348.966 145.622 349 145.629 349.035 145.628C349.069 145.628 349.103 145.62 349.135 145.606C349.167 145.592 349.195 145.571 349.218 145.546L351.972 142.887C352.721 142.163 353.282 141.269 353.609 140.281C353.622 140.243 353.625 140.202 353.619 140.163C353.614 140.123 353.598 140.086 353.575 140.053C353.552 140.021 353.521 139.994 353.485 139.976C353.45 139.957 353.41 139.948 353.37 139.948Z" fill="white"/>
<path opacity="0.67" d="M358.792 131.771C358.745 131.771 358.7 131.784 358.66 131.808C358.621 131.832 358.588 131.866 358.566 131.907C358.535 131.967 358.529 132.036 358.548 132.1C358.568 132.164 358.612 132.218 358.672 132.25L359.861 132.883C360.78 133.372 361.805 133.63 362.846 133.634C363.887 133.639 364.914 133.39 365.838 132.91C365.868 132.895 365.894 132.874 365.915 132.848C365.936 132.823 365.953 132.793 365.963 132.762C365.973 132.73 365.976 132.697 365.973 132.664C365.97 132.631 365.961 132.598 365.946 132.569C365.931 132.539 365.91 132.513 365.884 132.492C365.859 132.471 365.829 132.454 365.798 132.444C365.766 132.434 365.733 132.431 365.7 132.434C365.666 132.437 365.634 132.446 365.605 132.461C364.753 132.903 363.807 133.131 362.848 133.127C361.889 133.122 360.945 132.885 360.098 132.435L358.909 131.802C358.873 131.783 358.832 131.773 358.792 131.771Z" fill="#FBD26D"/>
<path opacity="0.67" d="M371.195 129.819C370.994 129.818 370.794 129.847 370.601 129.905C370.539 129.927 370.487 129.971 370.457 130.029C370.427 130.088 370.421 130.156 370.44 130.218C370.459 130.281 370.501 130.334 370.558 130.366C370.616 130.399 370.683 130.407 370.747 130.391C371.001 130.316 371.27 130.307 371.528 130.366C371.786 130.424 372.025 130.549 372.221 130.726C372.421 130.901 372.573 131.125 372.659 131.377C372.746 131.628 372.766 131.897 372.716 132.159L371.811 137.294C371.63 138.319 371.701 139.373 372.018 140.365C372.336 141.357 372.889 142.256 373.632 142.986L377.348 146.644C377.556 146.848 377.702 147.106 377.77 147.389C377.838 147.671 377.826 147.967 377.735 148.243C377.644 148.519 377.478 148.764 377.254 148.951C377.031 149.137 376.761 149.257 376.473 149.297L371.309 150.023C370.277 150.168 369.297 150.561 368.452 151.169C367.606 151.777 366.922 152.582 366.457 153.514L364.127 158.179C363.997 158.439 363.797 158.658 363.549 158.81C363.302 158.963 363.016 159.043 362.725 159.041C362.435 159.04 362.15 158.957 361.904 158.802C361.657 158.647 361.459 158.426 361.332 158.165L359.048 153.478C358.591 152.542 357.914 151.732 357.074 151.116C356.235 150.5 355.258 150.097 354.228 149.943L349.071 149.169C348.77 149.125 348.488 148.994 348.261 148.791C348.21 148.752 348.147 148.733 348.083 148.739C348.019 148.745 347.959 148.774 347.917 148.822C347.874 148.87 347.85 148.932 347.852 148.996C347.853 149.06 347.878 149.122 347.923 149.168C348.223 149.437 348.597 149.612 348.996 149.67L354.153 150.443C355.102 150.586 356.001 150.957 356.775 151.524C357.548 152.091 358.172 152.838 358.592 153.7L360.878 158.387C361.047 158.734 361.309 159.026 361.635 159.231C361.961 159.436 362.338 159.545 362.723 159.547C363.109 159.549 363.487 159.443 363.815 159.241C364.143 159.039 364.408 158.75 364.58 158.405L366.91 153.74C367.338 152.882 367.969 152.14 368.748 151.58C369.526 151.02 370.43 150.657 371.38 150.524L376.542 149.799C376.924 149.746 377.283 149.586 377.578 149.339C377.874 149.092 378.094 148.768 378.215 148.402C378.336 148.036 378.352 147.644 378.261 147.269C378.171 146.895 377.978 146.553 377.703 146.283L373.986 142.626C373.303 141.953 372.793 141.124 372.501 140.211C372.209 139.297 372.143 138.326 372.31 137.381L373.215 132.247C373.278 131.901 373.251 131.544 373.136 131.212C373.021 130.879 372.822 130.582 372.558 130.349C372.183 130.012 371.699 129.824 371.195 129.819Z" fill="white"/>
<path d="M396.278 162.469C396.166 162.469 396.055 162.498 395.955 162.55L390.363 165.454C389.959 165.664 389.511 165.773 389.056 165.771C388.602 165.769 388.154 165.656 387.753 165.442L382.193 162.486C382.095 162.432 381.984 162.403 381.872 162.4C381.769 162.402 381.668 162.425 381.575 162.469C381.483 162.513 381.4 162.576 381.334 162.654C381.269 162.73 381.222 162.819 381.197 162.916C381.171 163.012 381.167 163.113 381.185 163.211L382.221 169.422C382.295 169.871 382.26 170.331 382.117 170.763C381.975 171.194 381.729 171.585 381.402 171.901L376.872 176.274C376.779 176.363 376.713 176.477 376.681 176.603C376.65 176.728 376.654 176.86 376.693 176.983C376.732 177.106 376.805 177.216 376.904 177.299C377.002 177.383 377.122 177.437 377.25 177.456L383.478 178.392C383.928 178.459 384.354 178.635 384.721 178.903C385.087 179.172 385.383 179.526 385.582 179.935L388.342 185.595C388.399 185.711 388.488 185.809 388.598 185.877C388.707 185.946 388.834 185.982 388.963 185.982C389.092 185.982 389.219 185.946 389.329 185.877C389.438 185.809 389.527 185.711 389.584 185.595L392.396 179.962C392.599 179.555 392.899 179.204 393.268 178.938C393.637 178.673 394.066 178.501 394.516 178.438L400.751 177.561C400.879 177.544 400.999 177.49 401.098 177.407C401.198 177.325 401.272 177.216 401.312 177.093C401.353 176.97 401.358 176.839 401.327 176.713C401.297 176.588 401.232 176.473 401.14 176.383L396.652 171.966C396.328 171.648 396.086 171.255 395.947 170.822C395.809 170.389 395.778 169.929 395.857 169.481L396.948 163.28C396.968 163.183 396.967 163.082 396.943 162.986C396.919 162.889 396.875 162.799 396.812 162.722C396.746 162.645 396.664 162.582 396.572 162.538C396.48 162.494 396.38 162.471 396.278 162.469Z" fill="#FBD26D"/>
<path opacity="0.67" d="M383.126 170.935C383.092 170.935 383.06 170.945 383.032 170.965C383.005 170.985 382.985 171.013 382.975 171.045C382.786 171.614 382.462 172.129 382.031 172.545L380.308 174.209C380.293 174.223 380.28 174.241 380.272 174.26C380.263 174.279 380.258 174.3 380.258 174.321C380.257 174.342 380.261 174.362 380.269 174.382C380.276 174.402 380.288 174.419 380.302 174.435C380.317 174.45 380.334 174.462 380.353 174.47C380.373 174.478 380.393 174.483 380.414 174.483C380.435 174.483 380.456 174.479 380.476 174.471C380.495 174.463 380.513 174.452 380.528 174.437L382.252 172.773C382.721 172.318 383.072 171.757 383.276 171.136C383.283 171.116 383.285 171.095 383.284 171.075C383.282 171.054 383.277 171.034 383.267 171.015C383.258 170.997 383.245 170.98 383.229 170.967C383.213 170.953 383.195 170.943 383.175 170.937C383.159 170.934 383.142 170.933 383.126 170.935Z" fill="white"/>
<path opacity="0.67" d="M386.518 165.821C386.49 165.822 386.463 165.83 386.439 165.845C386.415 165.86 386.395 165.88 386.382 165.905C386.372 165.924 386.366 165.944 386.364 165.965C386.362 165.985 386.364 166.006 386.37 166.026C386.376 166.046 386.386 166.064 386.399 166.08C386.413 166.097 386.429 166.11 386.447 166.12L387.192 166.515C387.767 166.821 388.408 166.983 389.06 166.986C389.711 166.989 390.354 166.833 390.932 166.533C390.969 166.513 390.997 166.48 391.01 166.44C391.023 166.4 391.019 166.357 391 166.319C390.98 166.282 390.947 166.254 390.907 166.241C390.867 166.229 390.823 166.232 390.786 166.252C390.254 166.529 389.662 166.672 389.061 166.669C388.461 166.666 387.871 166.518 387.341 166.235L386.596 165.84C386.572 165.827 386.545 165.82 386.518 165.821Z" fill="white"/>
<path opacity="0.67" d="M394.282 164.599C394.155 164.599 394.03 164.617 393.909 164.653C393.889 164.659 393.87 164.668 393.853 164.681C393.836 164.694 393.822 164.71 393.812 164.729C393.802 164.748 393.795 164.768 393.793 164.789C393.791 164.81 393.793 164.831 393.799 164.852C393.805 164.872 393.815 164.891 393.829 164.907C393.842 164.923 393.859 164.937 393.878 164.946C393.896 164.956 393.917 164.962 393.938 164.964C393.959 164.965 393.98 164.963 394.001 164.956C394.159 164.909 394.328 164.903 394.489 164.94C394.651 164.977 394.8 165.055 394.923 165.166C395.048 165.275 395.143 165.416 395.197 165.573C395.252 165.73 395.264 165.899 395.234 166.062L394.666 169.276C394.553 169.917 394.598 170.577 394.796 171.198C394.995 171.818 395.341 172.381 395.805 172.839L398.132 175.127C398.262 175.255 398.353 175.416 398.396 175.592C398.438 175.769 398.431 175.954 398.374 176.127C398.317 176.299 398.214 176.452 398.074 176.569C397.935 176.686 397.766 176.761 397.587 176.787L394.355 177.242C393.71 177.332 393.097 177.578 392.568 177.958C392.039 178.338 391.61 178.841 391.319 179.424L389.861 182.343C389.78 182.506 389.655 182.643 389.5 182.739C389.345 182.834 389.166 182.885 388.984 182.884C388.802 182.883 388.624 182.831 388.469 182.734C388.315 182.637 388.192 182.499 388.112 182.335L386.681 179.402C386.396 178.817 385.972 178.309 385.447 177.924C384.922 177.538 384.311 177.286 383.667 177.19L380.44 176.706C380.251 176.679 380.074 176.596 379.932 176.47C379.917 176.456 379.899 176.445 379.879 176.438C379.859 176.431 379.838 176.428 379.818 176.429C379.797 176.43 379.777 176.436 379.758 176.445C379.739 176.454 379.722 176.466 379.708 176.482C379.695 176.497 379.684 176.515 379.677 176.535C379.67 176.555 379.667 176.575 379.668 176.596C379.669 176.617 379.675 176.637 379.684 176.656C379.693 176.675 379.705 176.692 379.721 176.706C379.909 176.874 380.143 176.983 380.393 177.019L383.619 177.503C384.213 177.592 384.776 177.824 385.26 178.179C385.744 178.534 386.134 179.002 386.398 179.541L387.827 182.474C387.932 182.691 388.097 182.874 388.301 183.003C388.505 183.132 388.742 183.201 388.983 183.202C389.224 183.203 389.461 183.136 389.667 183.01C389.872 182.883 390.038 182.701 390.146 182.485L391.604 179.566C391.872 179.029 392.266 178.565 392.754 178.215C393.241 177.864 393.806 177.637 394.4 177.554L397.632 177.1C397.871 177.067 398.095 176.967 398.281 176.813C398.466 176.658 398.604 176.455 398.68 176.226C398.755 175.997 398.765 175.751 398.708 175.517C398.651 175.282 398.53 175.068 398.357 174.9L396.032 172.611C395.604 172.19 395.285 171.671 395.102 171.099C394.919 170.528 394.878 169.92 394.983 169.329L395.55 166.117C395.582 165.931 395.574 165.741 395.525 165.56C395.477 165.378 395.389 165.209 395.269 165.065C395.149 164.92 394.999 164.803 394.829 164.723C394.659 164.642 394.474 164.599 394.286 164.597L394.282 164.599Z" fill="white"/>
<path d="M380.31 198.814H206.764C205.432 198.814 204.352 199.895 204.352 201.227V369.77C204.352 371.103 205.432 372.183 206.764 372.183H380.31C381.643 372.183 382.723 371.103 382.723 369.77V201.227C382.723 199.895 381.643 198.814 380.31 198.814Z" fill="white"/>
<path d="M338.442 207.176H257.182C256.712 207.176 256.332 207.556 256.332 208.026V216.93C256.332 217.399 256.712 217.78 257.182 217.78H338.442C338.911 217.78 339.291 217.399 339.291 216.93V208.026C339.291 207.556 338.911 207.176 338.442 207.176Z" fill="#027FC2"/>
<path d="M373.911 229.896H215.504C215.035 229.896 214.654 230.277 214.654 230.746V238.741C214.654 239.21 215.035 239.591 215.504 239.591H373.911C374.38 239.591 374.761 239.21 374.761 238.741V230.746C374.761 230.277 374.38 229.896 373.911 229.896Z" fill="#027FC2"/>
<path d="M315.624 251.708H215.01C214.541 251.708 214.16 252.088 214.16 252.558V260.552C214.16 261.022 214.541 261.402 215.01 261.402H315.624C316.093 261.402 316.473 261.022 316.473 260.552V252.558C316.473 252.088 316.093 251.708 315.624 251.708Z" fill="#027FC2"/>
<path d="M369.292 273.845H215.752C215.283 273.845 214.902 274.226 214.902 274.695V282.69C214.902 283.159 215.283 283.539 215.752 283.539H369.292C369.762 283.539 370.142 283.159 370.142 282.69V274.695C370.142 274.226 369.762 273.845 369.292 273.845Z" fill="#027FC2"/>
<path d="M342.196 295.657H215.258C214.789 295.657 214.408 296.037 214.408 296.507V304.501C214.408 304.97 214.789 305.351 215.258 305.351H342.196C342.665 305.351 343.046 304.97 343.046 304.501V296.507C343.046 296.037 342.665 295.657 342.196 295.657Z" fill="#027FC2"/>
<path d="M374.409 318.989H216.002C215.533 318.989 215.152 319.37 215.152 319.839V327.834C215.152 328.303 215.533 328.683 216.002 328.683H374.409C374.878 328.683 375.259 328.303 375.259 327.834V319.839C375.259 319.37 374.878 318.989 374.409 318.989Z" fill="#027FC2"/>
<path d="M308.399 340.802H215.504C215.035 340.802 214.654 341.183 214.654 341.652V349.646C214.654 350.116 215.035 350.496 215.504 350.496H308.399C308.868 350.496 309.249 350.116 309.249 349.646V341.652C309.249 341.183 308.868 340.802 308.399 340.802Z" fill="#027FC2"/>
<path d="M389.361 436.5C393.421 436.852 400.467 437.422 406.021 437.666C409.361 437.814 411.282 437.486 412.39 437.043C412.39 437.167 412.39 437.286 412.38 437.395C412.366 437.68 412.247 437.949 412.045 438.151C411.843 438.352 411.574 438.472 411.289 438.486C404.024 438.899 396.741 438.907 389.475 438.508C389.334 438.501 389.198 438.458 389.08 438.383C388.961 438.308 388.864 438.204 388.797 438.081C388.73 437.958 388.695 437.82 388.697 437.679C388.699 437.539 388.737 437.402 388.808 437.28C388.973 437.007 389.158 436.746 389.361 436.5Z" fill="#060606"/>
<path d="M406.016 437.666C400.461 437.422 393.415 436.848 389.355 436.5C393.347 431.603 406.016 428.302 406.016 428.302H409.593C412.049 431.849 412.411 435.227 412.384 437.043C411.277 437.486 409.355 437.814 406.016 437.666Z" fill="#3B3D42"/>
<path d="M410.197 422.461L409.863 429.087C409.845 429.437 409.707 429.771 409.471 430.03C409.235 430.29 408.917 430.459 408.57 430.51C407.669 430.645 406.749 430.569 405.883 430.288C405.577 430.187 405.304 430.006 405.092 429.764C404.88 429.522 404.737 429.228 404.678 428.911L403.521 422.461H410.197Z" fill="url(#paint0_linear_5145_43900)"/>
<path d="M456.673 437.615C458.434 437.369 459.23 436.456 459.564 435.478V435.503C459.824 436.536 459.223 437.604 458.023 438.113C456.572 438.727 454.986 438.832 453.754 438.781C452.432 438.727 451.22 438.18 450.553 437.304L450.543 437.292C451.874 437.948 453.742 438.025 456.673 437.615Z" fill="#060606"/>
<path d="M448.372 422.418H451.324C455.818 422.325 458.64 431.807 459.565 435.477C459.231 436.455 458.434 437.369 456.673 437.615C453.737 438.024 451.875 437.947 450.549 437.291C448.121 434.095 446.917 429.416 446.338 426.685C445.679 423.578 448.372 422.418 448.372 422.418Z" fill="#3B3D42"/>
<path d="M450.944 416.268L452.581 422.785C452.676 423.174 452.637 423.584 452.47 423.948C452.303 424.312 452.017 424.608 451.66 424.789C450.744 425.26 449.453 425.755 448.268 425.607C447.995 425.571 447.738 425.46 447.525 425.286C447.312 425.111 447.152 424.881 447.062 424.621L444.656 417.764L450.944 416.268Z" fill="url(#paint1_linear_5145_43900)"/>
<path d="M452.899 418.152C450.853 419.959 444.229 420.198 444.229 420.198C420.343 362.87 410.572 354.725 410.572 354.725C414.021 376.362 411.129 424.268 411.129 424.268C407.187 426.007 402.105 424.268 402.105 424.268C401.814 393.654 397.716 363.196 389.906 333.594C406.051 333.231 414.636 327.707 417.439 325.49C430.898 347.185 452.899 418.152 452.899 418.152Z" fill="#2F2F2F"/>
<path d="M413.34 259.563C416.396 274.804 415.3 302.085 414.582 314.533C414.38 318.03 416.821 322.878 418.794 326.185C418.867 326.307 418.914 326.443 418.933 326.584C418.952 326.726 418.941 326.869 418.902 327.006C418.862 327.143 418.795 327.27 418.705 327.38C418.614 327.49 418.502 327.58 418.375 327.645C415.071 329.343 403.878 334.601 390.906 335.26C390.485 335.276 390.071 335.148 389.732 334.897C389.394 334.646 389.151 334.286 389.045 333.878C379.423 297.945 368.246 274.986 368.246 274.986C380.585 255.281 413.34 259.563 413.34 259.563Z" fill="#096495"/>
<path d="M408.943 353.369C409.083 353.369 409.221 353.33 409.34 353.256C409.513 353.151 409.637 352.981 409.685 352.784C409.733 352.587 409.701 352.379 409.596 352.206C409.467 351.994 406.377 347.001 400.125 343.985C399.941 343.896 399.73 343.884 399.538 343.951C399.345 344.018 399.187 344.158 399.098 344.342C399.009 344.525 398.997 344.736 399.064 344.929C399.131 345.121 399.272 345.279 399.455 345.368C405.283 348.182 408.254 352.961 408.284 353.006C408.353 353.119 408.45 353.211 408.566 353.275C408.681 353.338 408.811 353.371 408.943 353.369Z" fill="url(#paint2_linear_5145_43900)"/>
<path d="M432.507 303.305C431.525 310.398 428.625 318.15 422.823 326.378L420.617 324.58C420.617 324.58 423.164 314.25 421.717 302.529C425.296 301.831 429.523 302.55 432.507 303.305Z" fill="url(#paint3_linear_5145_43900)"/>
<path d="M413.339 280.5C413.339 280.5 411.501 279 411.001 270C410.501 261 413.337 259.562 413.337 259.562C413.337 259.562 436.14 276.993 432.504 303.306C429.519 302.55 425.292 301.831 421.715 302.53C420.674 294.081 420.972 287.051 413.339 280.5Z" fill="#3296CC"/>
<path d="M368.245 274.985L377.047 293.945C375.624 305.39 369.476 310.339 362.846 312.236C362.521 307.991 361.523 303.824 359.891 299.892C368.361 291.143 368.245 274.985 368.245 274.985Z" fill="#3296CC"/>
<path d="M359.898 299.889C361.531 303.821 362.528 307.988 362.854 312.233C345.168 319.095 340.484 305.787 340.484 305.787L343.758 305.211C351.132 305.989 356.288 303.608 359.898 299.889Z" fill="url(#paint4_linear_5145_43900)"/>
<path d="M376.355 251.582L380.604 267.211C380.717 267.624 380.916 268.009 381.188 268.341C381.46 268.672 381.799 268.942 382.183 269.133C382.567 269.324 382.987 269.431 383.416 269.448C383.844 269.466 384.271 269.392 384.669 269.232C386.491 268.504 388.803 267.509 390.793 266.434C391.295 266.163 391.734 265.789 392.083 265.337C392.432 264.886 392.682 264.366 392.818 263.812C392.954 263.258 392.973 262.681 392.873 262.12C392.773 261.558 392.557 261.023 392.238 260.55L383.403 247.376L376.355 251.582Z" fill="url(#paint5_linear_5145_43900)"/>
<path d="M367.059 239.712C367.019 239.985 370.605 257.539 370.605 257.539L380.587 255.28L379.664 238.134C379.664 238.134 367.707 235.221 367.059 239.712Z" fill="url(#paint6_linear_5145_43900)"/>
<path d="M377.416 241.955L378.61 250.943C378.625 251.057 378.625 251.172 378.61 251.287C378.509 251.992 377.985 254.39 375.564 253.705C373.366 253.082 371.352 252.547 369.96 252.972C369.659 253.064 369.403 253.265 369.242 253.536C369.081 253.806 369.027 254.127 369.09 254.436C369.416 256.032 370.217 259.619 371.387 262.62C371.503 262.914 371.725 263.153 372.009 263.292C372.293 263.43 372.619 263.457 372.922 263.368C374.815 262.822 378.775 261.54 381.719 259.767C381.916 259.65 382.076 259.483 382.185 259.282C382.294 259.082 382.347 258.856 382.337 258.628C382.242 256.358 381.976 249.461 382.201 247.527C382.411 245.713 384.638 244.626 385.611 244.236C385.768 244.173 385.91 244.079 386.029 243.959C386.148 243.84 386.242 243.697 386.304 243.54C386.751 242.418 387.369 239.819 384.096 238.754C383.934 238.702 383.784 238.618 383.655 238.506C383.526 238.395 383.421 238.259 383.346 238.106C383.271 237.953 383.228 237.787 383.219 237.617C383.209 237.447 383.234 237.277 383.292 237.117C383.776 235.767 383.981 233.707 381.448 232.571C378.873 231.417 376.947 232.789 375.911 233.905C375.708 234.121 375.434 234.259 375.139 234.293C374.844 234.328 374.546 234.258 374.298 234.096C374.001 233.908 373.616 233.846 373.158 234.134C373.008 234.224 372.841 234.282 372.668 234.304C372.495 234.326 372.319 234.311 372.152 234.261C371.985 234.21 371.83 234.125 371.698 234.011C371.566 233.898 371.459 233.757 371.384 233.599C370.768 232.334 369.51 230.978 366.989 231.409C362.517 232.175 362.009 237.138 363.191 240.036C364.372 242.935 369.172 241.835 371.582 240.37C373.414 239.257 375.79 240.424 376.823 241.052C376.983 241.149 377.119 241.28 377.221 241.437C377.324 241.593 377.391 241.77 377.416 241.955Z" fill="#3B3D42"/>
<path d="M382.6 250.801C382.6 250.801 380.76 245.652 382.65 244.39C384.541 243.128 387.337 243.783 386.721 247.514C385.95 252.155 382.6 250.801 382.6 250.801Z" fill="url(#paint7_linear_5145_43900)"/>
<path d="M341.791 308.224C340.902 308.918 337.852 307.467 335.985 306.463C335.543 306.227 335.198 305.844 335.009 305.381C334.82 304.918 334.798 304.403 334.948 303.926C335.397 302.509 336.144 300.681 337.068 300.45C338.597 300.068 345.46 305.357 341.791 308.224Z" fill="url(#paint8_linear_5145_43900)"/>
<path d="M469.74 341.62L289.015 286.989L280.873 313.554L461.621 369.949C463.481 370.529 465.485 370.435 467.282 369.684C469.08 368.934 470.556 367.575 471.452 365.845C473.361 362.18 475.072 356.514 474.788 348.163C474.735 346.682 474.219 345.255 473.314 344.082C472.408 342.908 471.159 342.048 469.74 341.62Z" fill="#0F9EEB"/>
<path d="M233.726 282.896L258.415 284.726C258.551 288.105 257.657 292.528 254.154 297.722L233.012 285.19C231.877 284.522 232.42 282.796 233.726 282.896Z" fill="#3B3D42"/>
<path d="M289.014 286.988C290.924 303.299 280.872 313.554 280.872 313.554L254.148 297.716C257.651 292.522 258.546 288.098 258.41 284.72L289.014 286.988Z" fill="url(#paint9_linear_5145_43900)"/>
<path d="M467.928 349.733C468.05 349.726 468.166 349.676 468.256 349.592C468.345 349.509 468.402 349.396 468.417 349.274C468.432 349.152 468.404 349.029 468.337 348.926C468.271 348.823 468.17 348.747 468.053 348.71L295.159 296.829C295.026 296.789 294.883 296.803 294.761 296.869C294.639 296.935 294.548 297.046 294.508 297.179C294.469 297.312 294.483 297.455 294.549 297.577C294.615 297.699 294.726 297.79 294.859 297.83L467.745 349.711C467.804 349.729 467.866 349.737 467.928 349.733Z" fill="#096495"/>
<path d="M465.481 360.118C465.605 360.113 465.723 360.064 465.813 359.98C465.904 359.896 465.962 359.783 465.977 359.66C465.993 359.537 465.964 359.413 465.896 359.31C465.828 359.206 465.725 359.13 465.607 359.095L292.72 307.214C292.587 307.174 292.444 307.189 292.322 307.254C292.2 307.32 292.109 307.432 292.069 307.564C292.029 307.697 292.044 307.84 292.109 307.962C292.175 308.084 292.287 308.175 292.419 308.215L465.307 360.099C465.363 360.116 465.422 360.122 465.481 360.118Z" fill="#096495"/>
<path d="M421.529 324.267L411.235 323.428L406.777 327.538C406.777 327.538 407.832 328.996 411.13 328.157C414.428 327.318 418.943 327.114 418.943 327.114C418.943 327.114 423.495 329.16 423.551 325.327L421.529 324.267Z" fill="url(#paint10_linear_5145_43900)"/>
<defs>
<linearGradient id="paint0_linear_5145_43900" x1="410.197" y1="426.517" x2="403.521" y2="426.517" gradientUnits="userSpaceOnUse">
<stop stop-color="#FEBBBA"/>
<stop offset="1" stop-color="#FF928E"/>
</linearGradient>
<linearGradient id="paint1_linear_5145_43900" x1="-23497.5" y1="29320.5" x2="-23031" y2="29320.5" gradientUnits="userSpaceOnUse">
<stop stop-color="#FEBBBA"/>
<stop offset="1" stop-color="#FF928E"/>
</linearGradient>
<linearGradient id="paint2_linear_5145_43900" x1="425.751" y1="391.407" x2="421.93" y2="383.762" gradientUnits="userSpaceOnUse">
<stop stop-color="#53D8FF"/>
<stop offset="1" stop-color="#3840F7"/>
</linearGradient>
<linearGradient id="paint3_linear_5145_43900" x1="-32085.9" y1="54203.8" x2="-35796.4" y2="55822.7" gradientUnits="userSpaceOnUse">
<stop stop-color="#FEBBBA"/>
<stop offset="1" stop-color="#FF928E"/>
</linearGradient>
<linearGradient id="paint4_linear_5145_43900" x1="-52085.6" y1="32512.1" x2="-48417.6" y2="32512.1" gradientUnits="userSpaceOnUse">
<stop stop-color="#FEBBBA"/>
<stop offset="1" stop-color="#FF928E"/>
</linearGradient>
<linearGradient id="paint5_linear_5145_43900" x1="-41125.4" y1="40264.8" x2="-41178" y2="47024" gradientUnits="userSpaceOnUse">
<stop stop-color="#FEBBBA"/>
<stop offset="1" stop-color="#FF928E"/>
</linearGradient>
<linearGradient id="paint6_linear_5145_43900" x1="27703.6" y1="63223.2" x2="30442.5" y2="66419" gradientUnits="userSpaceOnUse">
<stop stop-color="#FEBBBA"/>
<stop offset="1" stop-color="#FF928E"/>
</linearGradient>
<linearGradient id="paint7_linear_5145_43900" x1="11132.2" y1="23690.8" x2="10400.7" y2="22993" gradientUnits="userSpaceOnUse">
<stop stop-color="#FEBBBA"/>
<stop offset="1" stop-color="#FF928E"/>
</linearGradient>
<linearGradient id="paint8_linear_5145_43900" x1="-17256.8" y1="18098" x2="-16786.6" y2="18098" gradientUnits="userSpaceOnUse">
<stop stop-color="#FEBBBA"/>
<stop offset="1" stop-color="#FF928E"/>
</linearGradient>
<linearGradient id="paint9_linear_5145_43900" x1="52605.7" y1="55219.4" x2="80185.5" y2="86400" gradientUnits="userSpaceOnUse">
<stop stop-color="#FF928E"/>
<stop offset="1" stop-color="#FE7062"/>
</linearGradient>
<linearGradient id="paint10_linear_5145_43900" x1="-44070.7" y1="11930.5" x2="-44702.4" y2="13811.2" gradientUnits="userSpaceOnUse">
<stop stop-color="#FEBBBA"/>
<stop offset="1" stop-color="#FF928E"/>
</linearGradient>
</defs>
</svg>
