<svg width="566" height="389" viewBox="0 0 566 389" fill="none" xmlns="http://www.w3.org/2000/svg">
<path fill-rule="evenodd" clip-rule="evenodd" d="M61.3043 80.5259C99.0854 47.0668 160.032 45.2727 213.096 31.0038C259.667 18.4809 303.935 -4.73539 352.252 2.28985C401.311 9.42298 438.394 39.6693 473.049 68.8008C508.955 98.9826 542.441 131.491 554.499 172.297C567.748 217.137 575.557 268.956 543.405 306.902C511.728 344.287 447.134 346.627 394.296 361.369C346.95 374.579 301.643 389.454 251.583 388.321C192.208 386.977 128.592 385.121 82.8135 354.318C34.0116 321.481 4.47301 270.691 0.438365 219.334C-3.51119 169.06 19.4237 117.615 61.3043 80.5259Z" fill="#ECF8FC"/>
<path d="M287.67 285.802C291.47 284.482 296.051 285.498 299.58 287.896C304.516 291.267 307.961 296.702 311.873 301.508C315.784 306.314 320.617 310.817 326.372 311.204C331.773 311.56 336.839 308.209 340.955 304.262C351.505 294.157 359.262 278.922 372.616 274.891C374.749 274.159 377.006 274.012 379.2 274.462C381.952 275.306 384.422 277.047 386.296 279.467C392.982 287.362 395.887 299.079 403.812 305.34C410.256 310.44 419.14 310.764 426.319 307.152C432.475 304.01 437.326 298.482 442.55 293.686C447.775 288.891 454.014 284.629 460.746 285.006C465.561 285.268 469.975 287.864 474.51 289.718C479.045 291.571 484.297 292.639 488.478 290C495.062 285.864 496.794 276.326 496.338 267.844C494.14 257.625 489.819 247.321 481.233 243.635C471.921 239.625 460.923 245.133 451.583 241.133C437.615 235.154 435.445 212.307 422.539 203.794C419.334 201.746 415.696 200.718 412.011 200.817C408.327 200.917 404.736 202.141 401.623 204.359C389.918 212.956 388.288 233.437 375.94 240.798C369.85 244.431 362.577 243.939 355.705 244.379C348.833 244.819 341.178 246.965 337.649 253.614C334.743 259.08 335.488 265.917 335.572 272.273C335.656 278.629 334.389 286.001 329.398 289.027C323.261 292.712 316.147 287.529 309.842 284.336C302.728 280.755 293.63 279.959 287.754 285.728L287.67 285.802Z" fill="#328CBD"/>
<g style="mix-blend-mode:multiply" opacity="0.2">
<g style="mix-blend-mode:multiply" opacity="0.2">
<path d="M176.62 229.384L196.394 265.765C199.612 271.687 197.952 279.42 192.686 283.039L135.595 322.27C130.328 325.888 123.451 324.022 120.232 318.1L100.459 281.719C97.2409 275.798 98.9011 268.064 104.167 264.445L161.258 225.214C166.524 221.596 173.402 223.462 176.62 229.384Z" fill="#3B3D42"/>
</g>
<g style="mix-blend-mode:multiply" opacity="0.2">
<path d="M180.761 226.548L200.534 262.929C203.752 268.851 202.092 276.584 196.826 280.203L139.735 319.434C134.469 323.053 127.591 321.186 124.373 315.265L104.6 278.883C101.382 272.962 103.042 265.228 108.308 261.609L165.399 222.379C170.665 218.76 177.543 220.627 180.761 226.548Z" fill="#3B3D42"/>
</g>
<g style="mix-blend-mode:multiply" opacity="0.2">
<path d="M156.163 242.326L176.799 280.283L136.319 282.032L156.163 242.326Z" fill="#3B3D42"/>
</g>
</g>
<path d="M174.988 223.399L194.761 259.78C197.979 265.702 196.319 273.435 191.053 277.054L133.962 316.285C128.696 319.904 121.818 318.037 118.6 312.116L98.8263 275.734C95.6081 269.813 97.2683 262.079 102.534 258.46L159.625 219.23C164.892 215.611 171.769 217.478 174.988 223.399Z" fill="#1F6387"/>
<path d="M179.629 224.799L199.347 261.041C202.557 266.939 200.906 274.646 195.66 278.255L138.788 317.376C133.542 320.985 126.688 319.128 123.479 313.23L103.761 276.988C100.552 271.089 102.203 263.382 107.448 259.774L164.32 220.653C169.566 217.044 176.42 218.901 179.629 224.799Z" fill="url(#paint0_linear_5145_45349)"/>
<path d="M153.372 239.185L174.008 277.141L133.528 278.89L153.372 239.185Z" fill="#F9E6D9"/>
<path d="M350.537 327.381C351.99 314.523 344.754 301.068 333.952 296.544C325.283 292.911 314.201 294.01 308.446 285.864C305.578 281.801 304.87 276.44 303.995 271.299C303.799 270.147 303.576 268.985 303.315 267.823C303.772 276.304 302.039 285.843 295.456 289.979C291.247 292.618 285.985 291.55 281.487 289.696C276.99 287.843 272.538 285.246 267.724 284.985C260.991 284.608 254.762 288.869 249.528 293.665C244.295 298.461 239.452 304.031 233.297 307.13C226.117 310.743 217.233 310.418 210.789 305.319C202.865 299.036 199.959 287.34 193.273 279.445C191.399 277.026 188.93 275.284 186.177 274.44C183.984 273.991 181.726 274.138 179.594 274.87C166.231 278.901 158.473 294.136 147.932 304.24C143.816 308.188 138.75 311.57 133.349 311.183C127.594 310.795 122.733 306.293 118.85 301.487C114.967 296.68 111.493 291.236 106.558 287.874C103.047 285.477 98.4471 284.461 94.6477 285.78C88.483 291.927 87.3469 303.78 79.7482 307.413C73.1552 310.554 65.6775 305.476 58.5444 306.261C49.3905 307.308 43.412 317.455 40.6091 327.433L350.537 327.381Z" fill="#096495"/>
<path d="M456.883 292.952V165.741C456.883 165.741 456.035 171.626 452.385 171.626C448.735 171.626 447.897 165.741 447.897 165.741V292.952H456.883Z" fill="#0F9EEB"/>
<path d="M478.561 292.952V165.741C478.561 165.741 477.713 170.893 474.724 170.893C471.735 170.893 470.897 165.741 470.897 165.741V292.952H478.561Z" fill="#096495"/>
<path d="M470.898 292.952V165.741C470.898 165.741 469.371 172.285 463.886 172.285C458.401 172.285 456.884 165.741 456.884 165.741V292.952H470.898Z" fill="#027FC2"/>
<path d="M478.561 165.741L469.351 138.129C466.082 146.213 456.593 142.192 456.593 142.192L447.896 165.741C447.896 165.741 448.752 171.626 452.384 171.626C456.016 171.626 456.882 165.741 456.882 165.741C456.882 165.741 458.409 172.285 463.885 172.285C469.36 172.285 470.897 165.741 470.897 165.741C470.897 165.741 471.744 170.893 474.724 170.893C477.704 170.893 478.561 165.741 478.561 165.741Z" fill="url(#paint1_linear_5145_45349)"/>
<path d="M469.352 138.129L468.728 136.244C468.429 135.348 467.826 134.621 467.051 134.224L463.755 132.548C463.364 132.348 462.941 132.239 462.512 132.226C462.083 132.214 461.656 132.298 461.256 132.475C460.856 132.652 460.492 132.917 460.186 133.256C459.879 133.594 459.636 133.998 459.471 134.443L456.603 142.202C456.603 142.202 466.083 146.213 469.352 138.129Z" fill="#3B3D42"/>
<path d="M543.635 327.454C545.088 314.596 537.852 301.141 527.05 296.617C518.38 292.984 507.299 294.083 501.544 285.937C498.676 281.874 497.968 276.513 497.093 271.372C496.897 270.22 496.674 269.058 496.413 267.896C496.869 276.377 495.137 285.916 488.553 290.052C484.344 292.691 479.083 291.623 474.585 289.769C470.087 287.916 465.636 285.319 460.822 285.057C454.089 284.68 447.859 288.942 442.626 293.738C437.392 298.533 432.55 304.104 426.395 307.203C419.215 310.816 410.331 310.491 403.887 305.392C395.962 299.109 393.057 287.413 386.371 279.518C384.497 277.099 382.028 275.357 379.275 274.513C377.081 274.063 374.824 274.21 372.691 274.942C359.328 278.974 351.571 294.209 341.03 304.313C336.914 308.261 331.848 311.643 326.447 311.255C320.692 310.868 315.831 306.366 311.948 301.559C308.065 296.753 304.591 291.308 299.656 287.947C296.145 285.549 291.545 284.534 287.745 285.853C281.581 291.999 280.445 303.852 272.846 307.486C266.253 310.627 258.775 305.549 251.642 306.334C242.488 307.381 236.51 317.527 233.707 327.506L543.635 327.454Z" fill="#096495"/>
<g style="mix-blend-mode:multiply" opacity="0.2">
<g style="mix-blend-mode:multiply" opacity="0.2">
<path d="M106.966 31.3906H237.038C243.21 31.3906 248.213 37.0162 248.213 43.9557V57.1071C248.213 64.0466 243.21 69.6721 237.038 69.6721H106.966C100.794 69.6721 95.791 64.0466 95.791 57.1071V43.9557C95.791 37.0162 100.794 31.3906 106.966 31.3906Z" fill="#3B3D42"/>
</g>
</g>
<path d="M232.431 28.25H102.358C96.1866 28.25 91.1836 33.8756 91.1836 40.815V53.9665C91.1836 60.9059 96.1866 66.5315 102.358 66.5315H232.431C238.602 66.5315 243.605 60.9059 243.605 53.9665V40.815C243.605 33.8756 238.602 28.25 232.431 28.25Z" fill="url(#paint2_linear_5145_45349)"/>
<path d="M111.382 33.3799L114.744 41.0446L122.259 42.2696L116.82 48.2381L118.105 56.6566L111.382 52.6777L104.659 56.6566L105.934 48.2381L100.496 42.2696L108.02 41.0446L111.382 33.3799Z" fill="#FBD26D"/>
<path d="M135.966 33.3799L139.328 41.0446L146.852 42.2696L141.414 48.2381L142.699 56.6566L135.966 52.6777L129.243 56.6566L130.528 48.2381L125.09 42.2696L132.605 41.0446L135.966 33.3799Z" fill="#FBD26D"/>
<path d="M166.155 47.9962L167.44 56.4148L160.717 52.4359L164.078 40.8027L171.603 42.0278L166.155 47.9962Z" fill="#F7B614"/>
<path d="M164.08 40.8033L160.718 52.4365L153.995 56.4154L155.28 47.9968L149.842 42.0284L157.357 40.8033L160.718 33.1387L164.08 40.8033Z" fill="#FBD26D"/>
<path d="M185.312 33.1387L188.673 40.8033L196.188 42.0284L190.75 47.9968L192.035 56.4154L185.312 52.4365L178.588 56.4154L179.873 47.9968L174.426 42.0284L181.95 40.8033L185.312 33.1387Z" fill="#F7B614"/>
<path d="M225.96 16.3535L229.229 35.9131L245.423 43.9757L229.88 53.5251L228.065 73.3255L215.195 59.661L197.884 63.8389L205.464 45.85L196.58 28.6254L214.134 31.1698L225.96 16.3535Z" fill="#F7B614"/>
<path d="M454.601 212.923C454.601 212.923 471 232.441 456.743 250.315C456.743 250.315 467.434 271.644 448.418 287.088C448.418 287.088 452.031 321.925 424.421 327.255H289.934L304.144 225.561C304.144 225.561 308.288 202.745 323.812 188.484C339.335 174.223 354.803 134.297 353.48 108.047C352.158 81.7965 406.094 87.4402 391.362 139.145C376.63 190.851 381.966 191.594 400.74 186.432C419.513 181.27 451.826 172.485 454.601 212.923Z" fill="url(#paint3_linear_5145_45349)"/>
<path d="M293.37 211.071H237.497C234.533 211.071 231.691 212.395 229.595 214.751C227.5 217.107 226.323 220.303 226.323 223.636V327.297H304.545V223.636C304.545 220.303 303.368 217.107 301.272 214.751C299.176 212.395 296.334 211.071 293.37 211.071V211.071Z" fill="#51BCF4"/>
<path d="M243.355 319.58C237.575 319.58 232.888 314.311 232.888 307.811C232.888 301.311 237.575 296.042 243.355 296.042C249.136 296.042 253.822 301.311 253.822 307.811C253.822 314.311 249.136 319.58 243.355 319.58Z" fill="#F9E6D9"/>
<g style="mix-blend-mode:soft-light" opacity="0.67">
<path d="M317.209 195.856C317.209 195.856 308.409 274.513 226.313 289.193V223.635C226.313 223.635 225.94 211.971 237.487 211.07H293.36C293.36 211.07 303.734 210.882 304.535 223.635C304.544 223.635 308.968 205.625 317.209 195.856Z" fill="#3B3D42"/>
</g>
<path d="M342.297 104.582C343.542 107.669 344.177 111.022 344.158 114.412C344.138 117.801 343.465 121.146 342.185 124.215L342.707 124.487C343.473 122.205 344.46 120.024 345.649 117.984C347.847 114.738 351.413 113.157 354.691 111.398C357.969 109.639 361.35 107.21 362.458 103.325C363.482 99.7336 362.253 95.8175 360.595 92.5297C358.938 89.2418 356.87 86.1843 355.874 82.5614C353.239 72.6455 359.888 61.3788 356.116 51.9341C354.021 46.6987 349.179 43.505 344.336 41.6412C339.494 39.7774 334.344 38.8769 329.716 36.4058C325.702 34.2416 322.236 30.9755 319.64 26.9087C315.757 20.7833 313.764 12.8045 308.214 8.6161C304.918 6.12404 300.764 5.3806 296.816 5.61096C290.829 5.88687 285.102 8.43337 280.566 12.8359C276.33 17.0191 273.681 22.8685 273.163 29.1809C274.402 24.8168 276.949 21.0715 280.371 18.5844C280.393 23.6088 282.049 28.4506 285.027 32.1965C288.085 35.9981 291.92 38.9054 296.201 40.6674C297.992 41.5545 299.936 41.9803 301.891 41.9135C302.226 41.3124 302.696 40.8214 303.253 40.4904C303.811 40.1594 304.437 40.0001 305.067 40.0287C305.738 40.0753 306.385 40.3312 306.934 40.7676C307.483 41.2041 307.914 41.8039 308.177 42.4998C308.477 43.4057 308.558 44.3851 308.41 45.3375C308.16 46.989 307.498 48.5266 306.501 49.7707C305.503 51.0149 304.211 51.9141 302.776 52.3634C302.878 57.2009 307.022 61.1275 311.278 62.4259C315.776 63.7976 320.544 63.2008 325.172 63.8709C328.945 64.4173 332.582 65.8057 335.871 67.9545C337.922 69.1118 339.616 70.936 340.732 73.19C343.526 79.818 337.473 87.2838 338.358 94.5401C338.768 98.1944 340.909 101.252 342.297 104.582Z" fill="#3B3D42"/>
<path d="M302.04 52.4985C301.233 55.9559 301.392 59.6091 302.497 62.9609C303.602 66.3127 305.598 69.2004 308.214 71.2309C310.924 73.2204 314.109 74.1732 317.21 75.1784C320.311 76.1836 323.207 77.2726 325.675 79.3668C326.728 80.2977 327.604 81.4566 328.252 82.7749C328.899 84.0932 329.306 85.5441 329.446 87.0419C330.498 96.895 328.878 112.727 326.839 126.884C330.387 130.444 335.816 132.538 339.568 129.397C340.966 128.096 342.046 126.417 342.707 124.517L342.185 124.245C343.465 121.176 344.138 117.832 344.158 114.442C344.177 111.053 343.542 107.699 342.297 104.612C340.909 101.282 338.786 98.2248 338.349 94.581C337.464 87.3246 343.489 79.8589 340.723 73.2309C339.607 70.9769 337.913 69.1527 335.862 67.9954C332.573 65.8466 328.935 64.4582 325.163 63.9118C320.506 63.2417 315.767 63.8385 311.269 62.4668C307.013 61.1684 302.888 57.2314 302.767 52.4043C302.527 52.4565 302.284 52.488 302.04 52.4985V52.4985Z" fill="#3B3D42"/>
<path d="M286.99 62.7709L284.941 76.781C286.198 76.5192 287.39 76.2888 288.368 76.1004C297.066 70.1948 297.41 58.415 297.41 58.415L286.99 62.7709Z" fill="#F79244"/>
<path d="M302.04 52.4988C302.286 52.4642 302.529 52.4081 302.767 52.3313C304.202 51.882 305.494 50.9827 306.491 49.7386C307.489 48.4945 308.151 46.9568 308.401 45.3053C308.548 44.353 308.468 43.3736 308.168 42.4677C307.904 41.7717 307.474 41.1719 306.925 40.7355C306.375 40.299 305.729 40.0432 305.057 39.9966C304.427 39.968 303.802 40.1273 303.244 40.4583C302.686 40.7893 302.217 41.2803 301.882 41.8813C299.927 41.9482 297.983 41.5224 296.192 40.6353C291.911 38.8733 288.076 35.966 285.018 32.1644C282.04 28.4184 280.383 23.5767 280.362 18.5522C276.94 21.0393 274.393 24.7847 273.154 29.1488C271.934 33.0858 271.385 38.2584 272.418 44.9598C275.556 65.357 285.846 62.6765 286.983 62.7603L297.403 58.4044C297.403 58.4044 297.058 70.1841 288.361 76.0897C287.279 76.8278 286.13 77.4351 284.934 77.9011C288.752 98.0157 308.214 71.2207 308.214 71.2207C305.6 69.1909 303.604 66.305 302.5 62.9553C301.395 59.6056 301.235 55.9546 302.04 52.4988V52.4988Z" fill="#F7BE86"/>
<path d="M137.559 322.293L166.409 328.983L178.012 305.906L172.061 328.983H178.012L194.895 276.713H172.247L158.381 304.565L137.559 322.293Z" fill="#76838F"/>
<path d="M161.781 291.298L165.561 293.214L184.586 302.742L188.814 304.836L204.784 261.634L222.477 210.944L226.389 199.73C226.389 199.73 249.771 219.446 287.095 220.808C324.418 222.169 317.965 178.662 317.965 178.662L276.87 163.647L273.145 164.171L271.711 157.888L267.986 156.757C267.165 157.029 266.306 157.125 265.453 157.04V164.16H210.074C208.453 164.966 202.531 179.741 195.63 198.243C183.525 230.776 161.781 291.298 161.781 291.298Z" fill="#3B3D42"/>
<path d="M212.439 304.062L204.812 331.161L229.304 320.574L228.54 292.712L238.904 315.779L243.439 313.109L229.304 265.278L208.593 273.927L212.439 304.062Z" fill="#76838F"/>
<path d="M204.811 261.644V261.655L209.551 290.973L236.557 280.879L222.505 210.955L204.811 261.644Z" fill="#3B3D42"/>
<path d="M217.271 56.0071C216.35 53.5797 215.065 51.3484 213.471 49.4104C213.409 49.3258 213.331 49.2575 213.242 49.2105C213.154 49.1634 213.057 49.1388 212.959 49.1382C212.736 49.1905 212.615 49.4732 212.568 49.7245C212.339 51.153 212.438 52.6236 212.857 53.9967C213.294 55.8605 213.89 57.6719 214.468 59.4939C215.045 61.3158 215.65 63.1273 216.228 64.9282H216.181C214.561 66.4361 212.931 67.9334 211.395 69.5354C210.074 70.731 209.064 72.3043 208.471 74.0903C207.828 76.6033 208.815 79.3257 210.287 81.357C211.887 83.2572 213.605 85.0277 215.427 86.6553C216.293 87.5395 217.102 88.4912 217.848 89.5034L229.33 86.0166C225.593 75.8459 221.573 65.8427 217.271 56.0071Z" fill="url(#paint4_linear_5145_45349)"/>
<path d="M284.85 77.4309L284.943 76.7817C281.92 77.3339 278.947 78.1889 276.06 79.3366C266.906 83.7972 245.553 101.064 245.553 101.064L227.971 81.169L226.9 81.9753L217.002 89.3782L216.508 89.7552L241.511 120.121C242.501 121.158 243.727 121.868 245.053 122.173C246.379 122.478 247.753 122.365 249.026 121.848L266.384 114.739C266.184 114.281 266.018 113.804 265.891 113.315C265.062 100.017 280.529 82.1952 284.115 78.2477C284.58 77.7346 284.85 77.4623 284.85 77.4623V77.4309Z" fill="#027FC2"/>
<path d="M284.849 77.4306C284.849 77.5877 284.905 77.7552 284.942 77.9018C286.138 77.4357 287.287 76.8285 288.369 76.0903C287.391 76.2788 286.199 76.5092 284.942 76.771L284.849 77.4306Z" fill="#F79244"/>
<path d="M268.871 158.078H269.532V158.141C270.253 158.214 270.98 158.132 271.674 157.9L270.119 151.168C263.88 150.445 258.19 147.052 252.249 144.822C249.399 143.775 246.093 143 243.542 144.77C241.288 146.309 240.282 149.356 239.537 152.194C239.137 153.691 238.774 155.209 238.429 156.728V156.895L268.871 158.078Z" fill="url(#paint5_linear_5145_45349)"/>
<path d="M266.383 114.738C267.053 116.337 267.997 117.771 269.163 118.957C270.328 120.143 271.69 121.058 273.172 121.649L270.732 148.36L303.688 140.182C303.688 140.182 308.204 100.278 308.465 88.0477C308.726 75.8177 317.209 75.2 317.209 75.2C314.108 74.1529 310.923 73.2419 308.213 71.2524C308.213 71.2524 288.76 98.0474 284.933 77.9329C284.663 78.048 284.384 78.1527 284.104 78.247C280.519 82.1945 265.051 100.016 265.88 113.314C266.011 113.804 266.179 114.28 266.383 114.738Z" fill="#096495"/>
<path d="M326.839 126.842C328.879 112.686 330.499 96.8538 329.447 87.0007C329.306 85.5029 328.9 84.0519 328.252 82.7337C327.605 81.4154 326.728 80.2565 325.675 79.3256C323.208 77.2314 320.181 76.1843 317.211 75.1372C317.211 75.1372 308.718 75.7445 308.466 87.985C308.215 100.225 303.689 140.119 303.689 140.119L270.734 148.297L269.532 148.59L270.119 151.145L271.674 157.878L273.108 164.161L276.833 163.637L316.996 158.087C318.313 157.91 319.547 157.274 320.527 156.27C321.507 155.266 322.183 153.943 322.463 152.486C323.571 146.936 325.322 137.345 326.839 126.842Z" fill="#027FC2"/>
<path d="M276.868 163.648L317.963 178.663L317.032 158.099L276.868 163.648Z" fill="#096495"/>
<path d="M284.115 78.2256C284.394 78.1314 284.673 78.0268 284.943 77.9117C284.943 77.7652 284.878 77.5978 284.85 77.4409C284.85 77.4409 284.58 77.7129 284.115 78.2256Z" fill="url(#paint6_linear_5145_45349)"/>
<path d="M170.096 102.707L194.307 164.171H269.531V158.161C269.309 158.159 269.087 158.131 268.87 158.077L238.419 156.915L230.969 156.632L212.513 102.707H170.096Z" fill="#76838F"/>
<path d="M302.916 89.2736C302.962 88.6139 303.903 88.6034 303.847 89.2736L303.54 93.797C303.493 94.4567 302.562 94.4567 302.609 93.797L302.916 89.2736Z" fill="white"/>
<path d="M294.775 89.9017C294.887 89.2316 295.781 89.5143 295.707 90.174L295.036 94.3623C294.924 95.022 294.03 94.7497 294.105 94.0901L294.775 89.9017Z" fill="white"/>
<path d="M286.338 93.8702L287.121 89.6819C287.251 89.0222 288.145 89.2944 288.052 89.9541C287.791 91.3363 287.521 92.7184 287.26 94.1425C287.111 94.844 286.208 94.5299 286.338 93.8702Z" fill="white"/>
<path d="M279.039 88.7179C279.095 88.0478 280.026 88.0478 279.97 88.7179L279.691 92.6759C279.644 93.3461 278.713 93.3461 278.76 92.6759L279.039 88.7179Z" fill="white"/>
<path d="M299.117 99.0329C299.173 98.3627 300.104 98.3627 300.048 99.0329C299.955 100.289 299.853 101.546 299.76 102.802C299.704 103.473 298.773 103.473 298.828 102.802C298.922 101.588 299.024 100.331 299.117 99.0329Z" fill="white"/>
<path d="M289.646 102.707C289.851 101.66 290.056 100.613 290.251 99.4929C290.382 98.8332 291.276 99.1055 291.183 99.7651C290.978 100.812 290.782 101.912 290.577 102.98C290.428 103.639 289.525 103.367 289.646 102.707Z" fill="white"/>
<path d="M279.774 101.963L280.528 98.7383C280.544 98.6696 280.572 98.605 280.61 98.5483C280.648 98.4917 280.695 98.444 280.75 98.408C280.804 98.372 280.865 98.3485 280.927 98.3387C280.99 98.3289 281.053 98.333 281.115 98.3509C281.176 98.3688 281.233 98.4 281.284 98.4428C281.334 98.4857 281.376 98.5392 281.408 98.6005C281.44 98.6617 281.461 98.7295 281.47 98.7998C281.479 98.8702 281.475 98.9418 281.459 99.0106L280.705 102.236C280.673 102.374 280.593 102.493 280.483 102.566C280.373 102.639 280.242 102.659 280.118 102.623C279.995 102.587 279.889 102.497 279.824 102.373C279.76 102.25 279.742 102.102 279.774 101.963V101.963Z" fill="white"/>
<path d="M302.589 107.764C302.71 107.104 303.604 107.376 303.52 108.036C303.315 109.177 303.119 110.308 302.924 111.439C302.803 112.109 301.909 111.827 301.993 111.167C302.197 110.036 302.393 108.905 302.589 107.764Z" fill="white"/>
<path d="M293.137 112.865L293.928 109.65C293.96 109.511 294.04 109.392 294.15 109.32C294.26 109.247 294.391 109.226 294.515 109.263C294.638 109.299 294.744 109.388 294.809 109.512C294.873 109.636 294.892 109.783 294.86 109.922L294.068 113.137C294.052 113.205 294.024 113.27 293.986 113.327C293.948 113.383 293.9 113.431 293.846 113.467C293.791 113.503 293.731 113.527 293.669 113.536C293.606 113.546 293.542 113.542 293.481 113.524C293.42 113.506 293.363 113.475 293.312 113.432C293.262 113.389 293.219 113.336 293.187 113.275C293.155 113.213 293.135 113.146 293.126 113.075C293.117 113.005 293.121 112.933 293.137 112.865V112.865Z" fill="white"/>
<path d="M285.026 108.718C285.119 108.048 286.023 108.33 285.958 108.99L285.52 112.006C285.417 112.676 284.523 112.393 284.589 111.733L285.026 108.718Z" fill="white"/>
<path d="M274.057 107.922C274.057 107.252 274.988 107.252 274.988 107.922C274.942 109.179 274.886 110.435 274.83 111.692C274.83 112.362 273.899 112.362 273.899 111.692C273.955 110.435 274.011 109.179 274.057 107.922Z" fill="white"/>
<path d="M298.492 118.654C298.557 117.984 299.498 117.984 299.424 118.654L298.977 123.178C298.902 123.848 297.971 123.848 298.045 123.178L298.492 118.654Z" fill="white"/>
<path d="M288.089 119.262C288.2 118.602 289.104 118.875 289.02 119.534L288.349 123.492C288.238 124.152 287.344 123.88 287.418 123.22C287.642 121.901 287.865 120.581 288.089 119.262Z" fill="white"/>
<path d="M279.17 119.45C279.282 118.79 280.176 119.063 280.101 119.722C279.933 120.769 279.766 121.816 279.589 122.926C279.486 123.586 278.593 123.314 278.658 122.654L279.17 119.45Z" fill="white"/>
<path d="M270.648 100.947C270.704 100.288 271.635 100.277 271.58 100.947L271.291 104.905C271.235 105.565 270.304 105.576 270.36 104.905L270.648 100.947Z" fill="white"/>
<path d="M301.117 130.884C301.173 130.214 302.104 130.214 302.048 130.884C301.946 132.141 301.853 133.397 301.75 134.654C301.704 135.324 300.773 135.324 300.819 134.654C300.922 133.397 301.015 132.141 301.117 130.884Z" fill="white"/>
<path d="M293.426 131.639C293.482 130.969 294.413 130.969 294.357 131.639C294.264 132.77 294.171 133.901 294.068 135.031C294.012 135.702 293.081 135.702 293.137 135.031L293.426 131.639Z" fill="white"/>
<path d="M283.825 130.517C283.825 129.847 284.756 129.847 284.756 130.517L284.532 133.92C284.486 134.58 283.554 134.58 283.601 133.92L283.825 130.517Z" fill="white"/>
<path d="M274.393 129.398C274.393 128.728 275.324 128.728 275.324 129.398C275.324 130.843 275.24 132.288 275.203 133.723C275.203 133.861 275.154 133.995 275.067 134.093C274.979 134.191 274.861 134.246 274.738 134.246C274.614 134.246 274.496 134.191 274.408 134.093C274.321 133.995 274.272 133.861 274.272 133.723L274.393 129.398Z" fill="white"/>
<path d="M288.221 137.094C288.221 136.424 289.152 136.424 289.152 137.094C289.106 138.277 289.05 139.471 289.003 140.664C289.003 141.335 288.072 141.335 288.072 140.664C288.119 139.481 288.175 138.288 288.221 137.094Z" fill="white"/>
<path d="M277.911 138.036C277.911 137.366 278.842 137.366 278.842 138.036L278.674 141.229C278.674 141.9 277.743 141.9 277.743 141.229L277.911 138.036Z" fill="white"/>
<path d="M310.83 161.753C310.905 161.093 311.836 161.093 311.761 161.753L311.435 164.758C311.361 165.418 310.43 165.428 310.504 164.758C310.625 163.763 310.737 162.758 310.83 161.753Z" fill="white"/>
<path d="M300.158 162.129C300.233 161.469 301.164 161.469 301.09 162.129C300.987 163.176 300.875 164.139 300.764 165.145C300.698 165.804 299.767 165.804 299.832 165.145C299.944 164.139 300.056 163.134 300.158 162.129Z" fill="white"/>
<path d="M306.268 167.031V170.423C306.268 170.562 306.219 170.695 306.131 170.793C306.044 170.892 305.925 170.947 305.802 170.947C305.678 170.947 305.56 170.892 305.473 170.793C305.385 170.695 305.336 170.562 305.336 170.423V167.041C305.336 166.972 305.347 166.904 305.37 166.84C305.393 166.776 305.427 166.718 305.469 166.669C305.512 166.62 305.563 166.581 305.619 166.554C305.676 166.527 305.736 166.513 305.797 166.512C305.858 166.512 305.919 166.524 305.976 166.55C306.033 166.576 306.084 166.614 306.128 166.662C306.172 166.71 306.206 166.767 306.23 166.831C306.254 166.894 306.267 166.962 306.268 167.031V167.031Z" fill="white"/>
<path d="M313.625 168.339C313.625 167.668 314.557 167.668 314.557 168.339L314.398 171.354C314.398 172.024 313.467 172.014 313.467 171.354L313.625 168.339Z" fill="white"/>
<path d="M292.467 164.632C292.551 163.972 293.445 164.245 293.399 164.904L293.063 167.543C292.98 168.213 292.086 167.93 292.132 167.271L292.467 164.632Z" fill="white"/>
<path d="M284.384 31.5474C285.375 31.374 286.388 31.4442 287.352 31.7533C288.317 32.0624 289.21 32.603 289.971 33.3379C290.902 34.207 289.58 35.6938 288.667 34.8352C288.141 34.3304 287.525 33.9572 286.86 33.7406C286.195 33.524 285.497 33.4688 284.812 33.5787C283.676 33.7672 283.192 31.7463 284.384 31.5474Z" fill="#3B3D42"/>
<path d="M272.11 31.1707C273.016 30.6901 274.028 30.5174 275.02 30.6736C276.013 30.8298 276.943 31.3083 277.697 32.0503C278.628 32.9194 277.297 34.4062 276.384 33.5371C275.931 33.1064 275.379 32.8263 274.792 32.7283C274.205 32.6302 273.605 32.7182 273.06 32.9822C271.961 33.5267 271.02 31.7257 272.11 31.1707Z" fill="#3B3D42"/>
<path d="M276.84 48.9086C277.622 44.483 278.402 40.0573 279.178 35.6316C279.289 34.9719 280.193 35.2442 280.109 35.9038C279.351 40.2527 278.591 44.5911 277.827 48.9191L280.388 49.3065C280.975 49.4008 280.975 50.4478 280.388 50.3536L277.203 49.8824C277.106 49.8766 277.011 49.8398 276.931 49.7764C276.851 49.7129 276.788 49.6253 276.75 49.5236C276.712 49.422 276.701 49.3104 276.717 49.2016C276.732 49.0928 276.775 48.9913 276.84 48.9086V48.9086Z" fill="#D36C26"/>
<path d="M277.307 53.6199C278.488 54.2647 279.779 54.6162 281.092 54.6505C282.405 54.6848 283.709 54.4012 284.915 53.8188C285.455 53.5571 285.93 54.4576 285.381 54.7298C284.03 55.3942 282.566 55.7206 281.092 55.6862C279.617 55.6519 278.167 55.2576 276.841 54.5309C276.283 54.2377 276.748 53.3267 277.307 53.6199Z" fill="#3B3D42"/>
<path d="M286.331 39.6724C285.436 39.6724 284.711 38.5801 284.711 37.2327C284.711 35.8853 285.436 34.793 286.331 34.793C287.226 34.793 287.951 35.8853 287.951 37.2327C287.951 38.5801 287.226 39.6724 286.331 39.6724Z" fill="#3B3D42"/>
<path d="M274.382 39.3276C273.487 39.3276 272.761 38.2353 272.761 36.8879C272.761 35.5405 273.487 34.4482 274.382 34.4482C275.276 34.4482 276.002 35.5405 276.002 36.8879C276.002 38.2353 275.276 39.3276 274.382 39.3276Z" fill="#3B3D42"/>
<defs>
<linearGradient id="paint0_linear_5145_45349" x1="200.962" y1="268.973" x2="102.131" y2="269.014" gradientUnits="userSpaceOnUse">
<stop stop-color="#027FC2"/>
</linearGradient>
<linearGradient id="paint1_linear_5145_45349" x1="447.896" y1="155.207" x2="478.561" y2="155.207" gradientUnits="userSpaceOnUse">
<stop stop-color="#F7BE86"/>
<stop offset="0.33" stop-color="#F7BC83"/>
<stop offset="0.54" stop-color="#F7B67B"/>
<stop offset="0.73" stop-color="#F7AC6C"/>
<stop offset="0.89" stop-color="#F79E57"/>
<stop offset="1" stop-color="#F79244"/>
</linearGradient>
<linearGradient id="paint2_linear_5145_45349" x1="76466.7" y1="6504.33" x2="76466.7" y2="4746.45" gradientUnits="userSpaceOnUse">
<stop stop-color="#F9E6D9"/>
<stop offset="0.12" stop-color="#FCF1EA"/>
<stop offset="0.27" stop-color="#FEF9F6"/>
<stop offset="0.48" stop-color="#FFFEFD"/>
<stop offset="1" stop-color="white"/>
</linearGradient>
<linearGradient id="paint3_linear_5145_45349" x1="793.534" y1="84828.4" x2="16895.1" y2="96363.5" gradientUnits="userSpaceOnUse">
<stop stop-color="#F7BE86"/>
<stop offset="0.12" stop-color="#FCF1EA"/>
<stop offset="0.27" stop-color="#FEF9F6"/>
<stop offset="0.48" stop-color="#FFFEFD"/>
<stop offset="1" stop-color="white"/>
</linearGradient>
<linearGradient id="paint4_linear_5145_45349" x1="-10288.3" y1="2993.44" x2="-10862.7" y2="2821.36" gradientUnits="userSpaceOnUse">
<stop stop-color="#F7BE86"/>
<stop offset="0.33" stop-color="#F7BC83"/>
<stop offset="0.54" stop-color="#F7B67B"/>
<stop offset="0.73" stop-color="#F7AC6C"/>
<stop offset="0.89" stop-color="#F79E57"/>
<stop offset="1" stop-color="#F79244"/>
</linearGradient>
<linearGradient id="paint5_linear_5145_45349" x1="-12728.6" y1="3619.98" x2="-13915.8" y2="3619.98" gradientUnits="userSpaceOnUse">
<stop stop-color="#F7BE86"/>
<stop offset="0.33" stop-color="#F7BC83"/>
<stop offset="0.54" stop-color="#F7B67B"/>
<stop offset="0.73" stop-color="#F7AC6C"/>
<stop offset="0.89" stop-color="#F79E57"/>
<stop offset="1" stop-color="#F79244"/>
</linearGradient>
<linearGradient id="paint6_linear_5145_45349" x1="-27.3241" y1="211.418" x2="-28.0617" y2="211.418" gradientUnits="userSpaceOnUse">
<stop stop-color="#31D1D6"/>
<stop offset="0.37" stop-color="#32CED8"/>
<stop offset="0.62" stop-color="#36C6DF"/>
<stop offset="0.82" stop-color="#3CB7EB"/>
<stop offset="1" stop-color="#45A3FA"/>
</linearGradient>
</defs>
</svg>
