<svg width="24" height="24" viewBox="0 0 24 24" fill="none" xmlns="http://www.w3.org/2000/svg">
<path fill-rule="evenodd" clip-rule="evenodd" d="M12.75 1.5C12.75 0.87868 12.2463 0.375 11.625 0.375C11.0037 0.375 10.5 0.87868 10.5 1.5V10.875H1.5C0.87868 10.875 0.375 11.3787 0.375 12C0.375 12.6213 0.87868 13.125 1.5 13.125H10.5V22.5C10.5 23.1213 11.0037 23.625 11.625 23.625C12.2463 23.625 12.75 23.1213 12.75 22.5V13.125H22.5C23.1213 13.125 23.625 12.6213 23.625 12C23.625 11.3787 23.1213 10.875 22.5 10.875H12.75V1.5Z" fill="#027FC2"/>
</svg>
