<svg width="566" height="355" viewBox="0 0 566 355" fill="none" xmlns="http://www.w3.org/2000/svg">
<path fill-rule="evenodd" clip-rule="evenodd" d="M61.3043 72.8082C99.0854 42.1783 160.032 40.5359 213.096 27.4735C259.667 16.0095 303.935 -5.24372 352.252 1.18749C401.311 7.71748 438.394 35.4063 473.049 62.0746C508.955 89.7044 542.441 119.464 554.499 156.82C567.748 197.868 575.557 245.305 543.405 280.043C511.728 314.267 447.134 316.409 394.296 329.905C346.95 341.997 301.643 355.615 251.583 354.578C192.208 353.347 128.592 351.648 82.8135 323.45C34.0116 293.389 4.47301 246.894 0.438365 199.879C-3.51119 153.856 19.4237 106.762 61.3043 72.8082Z" fill="white"/>
<path d="M458.207 210.678C457.408 210.242 456.719 209.646 456.19 208.932C455.662 208.218 455.305 207.403 455.146 206.545C454.987 205.687 455.029 204.806 455.27 203.965C455.51 203.124 455.944 202.343 456.539 201.677L449.953 156.26L463.672 156.895L465.826 201.195C466.946 202.213 467.632 203.582 467.752 205.045C467.873 206.507 467.422 207.961 466.482 209.13C465.543 210.299 464.182 211.103 462.657 211.388C461.131 211.673 459.548 211.421 458.207 210.678Z" fill="#A0616A"/>
<path d="M465.554 157.499C465.273 157.812 464.912 158.052 464.506 158.198L452.177 162.637C451.558 162.86 450.872 162.851 450.26 162.611C449.648 162.371 449.157 161.919 448.887 161.348L437.966 138.191C436.917 136.043 436.739 133.608 437.464 131.344C438 129.728 438.989 128.279 440.325 127.149C441.661 126.019 443.295 125.25 445.056 124.923C446.41 124.66 447.809 124.678 449.154 124.977C450.767 125.316 452.264 126.029 453.511 127.052C454.758 128.075 455.715 129.374 456.295 130.834L466.005 155.052C466.168 155.461 466.212 155.903 466.133 156.334C466.053 156.764 465.853 157.166 465.554 157.499Z" fill="#76CFFF"/>
<path d="M401.308 321.536H392.778L389.684 290.348L401.308 290.495V321.536Z" fill="#A0616A"/>
<path d="M386.686 319.234H403.135V329.007H376.326C376.326 326.415 377.417 323.929 379.36 322.097C381.303 320.264 383.937 319.234 386.684 319.234H386.686Z" fill="#041F2E"/>
<path d="M440.967 321.534H432.437L428.379 290.492H440.968L440.967 321.534Z" fill="#A0616A"/>
<path d="M426.346 319.234H442.795V329.007H415.986C415.986 326.415 417.078 323.929 419.02 322.097C420.963 320.264 423.597 319.234 426.344 319.234H426.346Z" fill="#041F2E"/>
<path d="M442.041 310.486L428.645 309.55C427.883 309.497 427.167 309.182 426.633 308.666C426.099 308.15 425.783 307.468 425.745 306.747L422.758 248.501C422.73 247.942 422.486 247.412 422.073 247.011C421.659 246.61 421.105 246.364 420.514 246.321C419.923 246.278 419.335 246.44 418.861 246.776C418.387 247.112 418.06 247.6 417.94 248.148L405.479 305.526C405.325 306.232 404.903 306.861 404.292 307.294C403.681 307.727 402.924 307.934 402.162 307.877L390.051 306.963C389.642 306.933 389.242 306.826 388.876 306.649C388.51 306.473 388.184 306.23 387.918 305.935C387.651 305.639 387.449 305.297 387.322 304.928C387.195 304.559 387.147 304.17 387.18 303.784C387.182 303.764 387.183 303.745 387.185 303.726L398.421 197.726C398.465 197.312 398.601 196.911 398.821 196.55C399.04 196.189 399.338 195.876 399.695 195.631C400.052 195.386 400.46 195.215 400.892 195.13C401.324 195.044 401.77 195.045 402.201 195.134L444.926 203.897C445.633 204.043 446.265 204.416 446.714 204.951C447.164 205.487 447.403 206.153 447.392 206.836L445.402 307.595C445.387 308.368 445.051 309.104 444.467 309.646C443.883 310.188 443.098 310.492 442.279 310.494C442.2 310.494 442.121 310.491 442.041 310.486Z" fill="#044568"/>
<path d="M430.321 109.103C439.759 109.103 447.41 101.885 447.41 92.9802C447.41 84.0758 439.759 76.8574 430.321 76.8574C420.883 76.8574 413.232 84.0758 413.232 92.9802C413.232 101.885 420.883 109.103 430.321 109.103Z" fill="#A0616A"/>
<path d="M403.806 205.903C402.162 204.513 400.858 202.804 399.982 200.892C399.106 198.981 398.679 196.913 398.731 194.832C398.731 171.659 419.991 119.884 420.657 118.272C420.719 117.883 421.28 117.715 424.226 115.839C427.172 113.963 431.417 113.674 436.847 114.982C437.399 115.115 437.902 115.389 438.3 115.773C438.699 116.157 438.978 116.637 439.108 117.16L440.118 118.537C440.206 118.887 440.38 119.212 440.626 119.486C440.871 119.76 441.182 119.976 441.532 120.117C445.911 121.857 459.83 129.883 455.087 160.088C450.681 188.147 448.893 204.645 448.329 210.441C448.263 211.128 447.943 211.772 447.425 212.259C446.907 212.747 446.225 213.048 445.496 213.109C443.349 213.29 439.664 213.532 435.278 213.532C425.101 213.529 411.146 212.236 403.806 205.903Z" fill="#76CFFF"/>
<path d="M383.385 197.321C382.979 196.539 382.759 195.682 382.741 194.811C382.724 193.94 382.909 193.076 383.284 192.28C383.659 191.484 384.214 190.775 384.911 190.203C385.607 189.631 386.428 189.21 387.316 188.97L408.672 147.795L419.688 155.535L395.313 193.452C395.643 194.886 395.403 196.384 394.64 197.662C393.877 198.94 392.643 199.91 391.172 200.387C389.702 200.864 388.097 200.815 386.662 200.25C385.227 199.685 384.061 198.643 383.386 197.321H383.385Z" fill="#A0616A"/>
<path d="M420.895 157.027C420.477 157.139 420.036 157.149 419.613 157.057L406.753 154.262C406.107 154.121 405.543 153.753 405.176 153.232C404.81 152.711 404.669 152.077 404.783 151.461L409.393 126.492C409.791 124.157 411.081 122.04 413.02 120.542C414.42 119.482 416.096 118.799 417.873 118.563C419.65 118.327 421.462 118.547 423.117 119.201C424.397 119.695 425.547 120.445 426.488 121.401C427.626 122.53 428.448 123.909 428.88 125.414C429.311 126.918 429.338 128.501 428.958 130.018L422.717 155.23C422.611 155.656 422.386 156.047 422.066 156.363C421.745 156.679 421.341 156.908 420.895 157.027H420.895Z" fill="#76CFFF"/>
<path d="M426.32 107.547C425.488 106.746 424.874 105.768 424.53 104.695C424.186 103.622 424.122 102.486 424.344 101.385C424.94 98.446 425.29 96.521 425.357 95.8209C425.584 93.4267 423.018 91.488 420.48 91.1771C420.381 91.1647 420.299 91.1571 420.23 91.1518C420.293 91.2106 420.364 91.2729 420.425 91.3281C420.908 91.7555 421.508 92.2874 421.365 92.8365C421.279 93.1668 420.959 93.4014 420.386 93.5524C416.416 94.6005 413.358 93.6383 410.763 90.5222C410.034 89.6367 409.532 88.6034 409.298 87.5038C408.369 83.2009 410.845 79.5329 413.087 77.2139C414.936 75.3018 417.932 72.9816 421.711 72.7818C424.649 72.6272 428.144 74.2225 429.187 77.0976C429.681 76.4086 430.337 75.8375 431.105 75.4293C431.873 75.0212 432.731 74.7874 433.611 74.7463C435.617 74.7052 437.592 75.2234 439.287 76.2358C447.574 80.7138 451.135 91.3816 447.064 99.5312C444.503 104.658 438.955 108.474 432.585 109.491C432.186 109.555 431.782 109.587 431.378 109.587C430.432 109.585 429.497 109.404 428.627 109.054C427.757 108.704 426.971 108.192 426.316 107.549L426.32 107.547Z" fill="#3B3D42"/>
<path d="M350.795 329.922H472.289C472.454 329.922 472.613 329.86 472.73 329.75C472.846 329.639 472.912 329.49 472.912 329.334C472.912 329.178 472.846 329.029 472.73 328.918C472.613 328.808 472.454 328.746 472.289 328.746H350.795C350.63 328.746 350.471 328.808 350.354 328.918C350.237 329.029 350.172 329.178 350.172 329.334C350.172 329.49 350.237 329.639 350.354 329.75C350.471 329.86 350.63 329.922 350.795 329.922Z" fill="#3F3D56"/>
<path d="M84.0097 129.93C91.5324 129.93 97.6308 124.177 97.6308 117.079C97.6308 109.982 91.5324 104.229 84.0097 104.229C76.487 104.229 70.3887 109.982 70.3887 117.079C70.3887 124.177 76.487 129.93 84.0097 129.93Z" fill="#027FC2"/>
<path d="M82.659 121.978C82.3526 121.979 82.0544 121.886 81.8092 121.712L81.7942 121.702L78.593 119.389C78.3023 119.17 78.1142 118.852 78.0691 118.503C78.024 118.155 78.1255 117.803 78.3518 117.525C78.5781 117.246 78.9113 117.062 79.2797 117.012C79.6481 116.963 80.0225 117.051 80.3226 117.259L82.3961 118.759L87.2958 112.73C87.5252 112.448 87.8641 112.263 88.2379 112.217C88.6118 112.17 88.9899 112.266 89.2891 112.482L89.2895 112.482L89.259 112.521L89.2901 112.483C89.589 112.7 89.7845 113.019 89.8338 113.372C89.8831 113.725 89.7821 114.081 89.553 114.364L83.7899 121.455C83.6566 121.619 83.4852 121.751 83.289 121.842C83.0928 121.933 82.877 121.98 82.6584 121.979L82.659 121.978Z" fill="white"/>
<path d="M122.287 147.213C122.005 146.58 121.531 146.039 120.926 145.656C120.32 145.274 119.609 145.068 118.881 145.062H50.8682C49.8906 145.063 48.9532 145.43 48.262 146.082C47.5707 146.734 47.1821 147.618 47.1816 148.541V229.715C47.1821 230.637 47.5707 231.521 48.262 232.174C48.9532 232.826 49.8906 233.192 50.8682 233.193H118.881C119.858 233.192 120.795 232.825 121.486 232.173C122.177 231.521 122.566 230.637 122.567 229.715V148.541C122.569 148.085 122.474 147.634 122.287 147.213ZM121.749 229.715C121.747 230.432 121.445 231.119 120.907 231.626C120.37 232.133 119.642 232.418 118.882 232.419H50.8682C50.1081 232.419 49.3791 232.134 48.8416 231.627C48.3042 231.12 48.0022 230.432 48.0022 229.715V148.541C48.0037 147.824 48.3061 147.137 48.8433 146.63C49.3804 146.123 50.1086 145.838 50.8682 145.837H118.881C119.454 145.839 120.013 146.002 120.487 146.306C120.962 146.61 121.329 147.04 121.543 147.541C121.585 147.641 121.621 147.743 121.651 147.846C121.716 148.074 121.749 148.309 121.749 148.545L121.749 229.715Z" fill="#027FC2"/>
<path d="M108.091 164.225H87.6057C87.1711 164.225 86.7542 164.062 86.4468 163.772C86.1395 163.482 85.9668 163.089 85.9668 162.679C85.9668 162.269 86.1395 161.876 86.4468 161.586C86.7542 161.296 87.1711 161.133 87.6057 161.133H108.091C108.526 161.133 108.942 161.296 109.25 161.586C109.557 161.876 109.73 162.269 109.73 162.679C109.73 163.089 109.557 163.482 109.25 163.772C108.942 164.062 108.526 164.225 108.091 164.225H108.091Z" fill="#027FC2"/>
<path d="M108.091 172.343H87.6057C87.1711 172.343 86.7542 172.18 86.4468 171.89C86.1395 171.6 85.9668 171.206 85.9668 170.796C85.9668 170.386 86.1395 169.993 86.4468 169.703C86.7542 169.413 87.1711 169.25 87.6057 169.25H108.091C108.526 169.25 108.942 169.413 109.25 169.703C109.557 169.993 109.73 170.386 109.73 170.796C109.73 171.206 109.557 171.6 109.25 171.89C108.942 172.18 108.526 172.343 108.091 172.343H108.091Z" fill="#027FC2"/>
<path d="M77.0954 176.967H62.1248C61.636 176.966 61.1674 176.783 60.8218 176.457C60.4761 176.131 60.2817 175.689 60.2812 175.227V158.56C60.2817 158.099 60.4761 157.656 60.8218 157.33C61.1674 157.004 61.636 156.821 62.1248 156.82H77.0954C77.5842 156.821 78.0527 157.004 78.3983 157.33C78.7439 157.657 78.9384 158.099 78.939 158.56V175.227C78.9385 175.689 78.7441 176.131 78.3985 176.457C78.0529 176.783 77.5842 176.966 77.0954 176.967Z" fill="#027FC2"/>
<path d="M107.949 188.966H61.6526C61.2179 188.966 60.8011 188.803 60.4937 188.513C60.1863 188.223 60.0137 187.829 60.0137 187.419C60.0137 187.009 60.1863 186.616 60.4937 186.326C60.8011 186.036 61.2179 185.873 61.6526 185.873H107.949C108.384 185.873 108.801 186.036 109.108 186.326C109.416 186.616 109.588 187.009 109.588 187.419C109.588 187.829 109.416 188.223 109.108 188.513C108.801 188.803 108.384 188.966 107.949 188.966Z" fill="#027FC2"/>
<path d="M107.949 197.085H61.6526C61.2179 197.085 60.8011 196.922 60.4937 196.632C60.1863 196.342 60.0137 195.949 60.0137 195.538C60.0137 195.128 60.1863 194.735 60.4937 194.445C60.8011 194.155 61.2179 193.992 61.6526 193.992H107.949C108.384 193.992 108.801 194.155 109.108 194.445C109.416 194.735 109.588 195.128 109.588 195.538C109.588 195.949 109.416 196.342 109.108 196.632C108.801 196.922 108.384 197.085 107.949 197.085Z" fill="#027FC2"/>
<path d="M107.949 205.198H61.6526C61.2179 205.198 60.8011 205.035 60.4937 204.745C60.1863 204.455 60.0137 204.062 60.0137 203.652C60.0137 203.242 60.1863 202.848 60.4937 202.558C60.8011 202.268 61.2179 202.105 61.6526 202.105H107.949C108.384 202.105 108.801 202.268 109.108 202.558C109.416 202.848 109.588 203.242 109.588 203.652C109.588 204.062 109.416 204.455 109.108 204.745C108.801 205.035 108.384 205.198 107.949 205.198Z" fill="#027FC2"/>
<path d="M107.949 213.319H61.6526C61.2179 213.319 60.8011 213.156 60.4937 212.866C60.1863 212.576 60.0137 212.183 60.0137 211.773C60.0137 211.363 60.1863 210.969 60.4937 210.679C60.8011 210.389 61.2179 210.227 61.6526 210.227H107.949C108.384 210.227 108.801 210.389 109.108 210.679C109.416 210.969 109.588 211.363 109.588 211.773C109.588 212.183 109.416 212.576 109.108 212.866C108.801 213.156 108.384 213.319 107.949 213.319Z" fill="#027FC2"/>
<path d="M107.949 221.434H61.6526C61.2179 221.434 60.8011 221.271 60.4937 220.981C60.1863 220.691 60.0137 220.298 60.0137 219.888C60.0137 219.478 60.1863 219.085 60.4937 218.795C60.8011 218.505 61.2179 218.342 61.6526 218.342H107.949C108.384 218.342 108.801 218.505 109.108 218.795C109.416 219.085 109.588 219.478 109.588 219.888C109.588 220.298 109.416 220.691 109.108 220.981C108.801 221.271 108.384 221.434 107.949 221.434Z" fill="#027FC2"/>
<path d="M36.3447 233.527H131.941C132.071 233.527 132.196 233.478 132.288 233.391C132.38 233.305 132.432 233.187 132.432 233.064C132.432 232.942 132.38 232.824 132.288 232.737C132.196 232.65 132.071 232.602 131.941 232.602H36.3447C36.2803 232.601 36.2165 232.613 36.1568 232.636C36.0972 232.659 36.043 232.693 35.9972 232.735C35.9514 232.778 35.9149 232.829 35.89 232.885C35.865 232.941 35.8519 233.001 35.8516 233.062C35.8512 233.122 35.8635 233.183 35.8878 233.239C35.9121 233.295 35.948 233.346 35.9932 233.389C36.0385 233.433 36.0923 233.467 36.1517 233.491C36.211 233.514 36.2747 233.526 36.3391 233.527H36.3447Z" fill="#027FC2"/>
<path d="M328.223 128.229C335.745 128.229 341.844 122.476 341.844 115.378C341.844 108.281 335.745 102.527 328.223 102.527C320.7 102.527 314.602 108.281 314.602 115.378C314.602 122.476 320.7 128.229 328.223 128.229Z" fill="#027FC2"/>
<path d="M326.874 120.277C326.567 120.278 326.269 120.184 326.024 120.011L326.009 120L322.808 117.688C322.517 117.469 322.329 117.151 322.284 116.802C322.239 116.454 322.34 116.102 322.567 115.824C322.793 115.545 323.126 115.361 323.495 115.311C323.863 115.261 324.237 115.35 324.537 115.558L326.611 117.058L331.511 111.029C331.74 110.747 332.079 110.562 332.453 110.515C332.827 110.469 333.205 110.564 333.504 110.781L333.504 110.781L333.474 110.82L333.505 110.782C333.804 110.998 333.999 111.318 334.049 111.671C334.098 112.024 333.997 112.38 333.768 112.663L328.005 119.754C327.871 119.918 327.7 120.05 327.504 120.141C327.308 120.232 327.092 120.278 326.873 120.278L326.874 120.277Z" fill="white"/>
<path d="M366.498 145.512C366.215 144.879 365.742 144.337 365.137 143.955C364.531 143.573 363.82 143.366 363.092 143.361H295.079C294.102 143.362 293.164 143.728 292.473 144.381C291.782 145.033 291.393 145.917 291.393 146.839V228.013C291.393 228.936 291.782 229.82 292.473 230.472C293.164 231.125 294.102 231.491 295.079 231.492H363.092C364.069 231.49 365.006 231.124 365.697 230.472C366.388 229.82 366.777 228.936 366.778 228.013V146.839C366.78 146.384 366.685 145.933 366.498 145.512ZM365.959 228.014C365.958 228.731 365.656 229.418 365.118 229.925C364.581 230.431 363.853 230.717 363.093 230.718H295.079C294.703 230.718 294.33 230.648 293.982 230.512C293.635 230.376 293.319 230.177 293.053 229.926C292.786 229.675 292.575 229.377 292.431 229.049C292.287 228.721 292.213 228.369 292.213 228.014V146.839C292.215 146.123 292.517 145.436 293.054 144.929C293.591 144.422 294.319 144.137 295.079 144.135H363.092C363.665 144.138 364.224 144.301 364.698 144.605C365.173 144.908 365.54 145.338 365.754 145.84C365.796 145.94 365.832 146.042 365.862 146.145C365.927 146.373 365.96 146.608 365.96 146.844L365.959 228.014Z" fill="#027FC2"/>
<path d="M352.306 162.524H331.821C331.386 162.524 330.969 162.361 330.662 162.071C330.354 161.781 330.182 161.388 330.182 160.978C330.182 160.568 330.354 160.175 330.662 159.885C330.969 159.595 331.386 159.432 331.821 159.432H352.306C352.74 159.432 353.157 159.595 353.465 159.885C353.772 160.175 353.945 160.568 353.945 160.978C353.945 161.388 353.772 161.781 353.465 162.071C353.157 162.361 352.74 162.524 352.306 162.524H352.306Z" fill="#027FC2"/>
<path d="M352.306 170.641H331.821C331.386 170.641 330.969 170.478 330.662 170.188C330.354 169.898 330.182 169.505 330.182 169.095C330.182 168.685 330.354 168.292 330.662 168.002C330.969 167.712 331.386 167.549 331.821 167.549H352.306C352.74 167.549 353.157 167.712 353.465 168.002C353.772 168.292 353.945 168.685 353.945 169.095C353.945 169.505 353.772 169.898 353.465 170.188C353.157 170.478 352.74 170.641 352.306 170.641H352.306Z" fill="#027FC2"/>
<path d="M321.306 175.266H306.336C305.847 175.265 305.378 175.082 305.033 174.756C304.687 174.429 304.493 173.987 304.492 173.526V156.859C304.493 156.397 304.687 155.955 305.033 155.629C305.378 155.303 305.847 155.12 306.336 155.119H321.306C321.795 155.12 322.264 155.303 322.609 155.629C322.955 155.955 323.149 156.397 323.15 156.859V173.526C323.149 173.987 322.955 174.429 322.609 174.756C322.264 175.082 321.795 175.265 321.306 175.266Z" fill="#027FC2"/>
<path d="M352.162 187.264H305.865C305.431 187.264 305.014 187.102 304.707 186.812C304.399 186.522 304.227 186.128 304.227 185.718C304.227 185.308 304.399 184.915 304.707 184.625C305.014 184.335 305.431 184.172 305.865 184.172H352.162C352.597 184.172 353.014 184.335 353.321 184.625C353.629 184.915 353.801 185.308 353.801 185.718C353.801 186.128 353.629 186.522 353.321 186.812C353.014 187.102 352.597 187.264 352.162 187.264Z" fill="#027FC2"/>
<path d="M352.162 195.384H305.865C305.431 195.384 305.014 195.221 304.707 194.931C304.399 194.641 304.227 194.247 304.227 193.837C304.227 193.427 304.399 193.034 304.707 192.744C305.014 192.454 305.431 192.291 305.865 192.291H352.162C352.597 192.291 353.014 192.454 353.321 192.744C353.629 193.034 353.801 193.427 353.801 193.837C353.801 194.247 353.629 194.641 353.321 194.931C353.014 195.221 352.597 195.384 352.162 195.384Z" fill="#027FC2"/>
<path d="M352.162 203.497H305.865C305.431 203.497 305.014 203.334 304.707 203.044C304.399 202.754 304.227 202.361 304.227 201.951C304.227 201.54 304.399 201.147 304.707 200.857C305.014 200.567 305.431 200.404 305.865 200.404H352.162C352.597 200.404 353.014 200.567 353.321 200.857C353.629 201.147 353.801 201.54 353.801 201.951C353.801 202.361 353.629 202.754 353.321 203.044C353.014 203.334 352.597 203.497 352.162 203.497Z" fill="#027FC2"/>
<path d="M352.162 211.618H305.865C305.431 211.618 305.014 211.455 304.707 211.165C304.399 210.875 304.227 210.482 304.227 210.072C304.227 209.662 304.399 209.268 304.707 208.978C305.014 208.688 305.431 208.525 305.865 208.525H352.162C352.597 208.525 353.014 208.688 353.321 208.978C353.629 209.268 353.801 209.662 353.801 210.072C353.801 210.482 353.629 210.875 353.321 211.165C353.014 211.455 352.597 211.618 352.162 211.618Z" fill="#027FC2"/>
<path d="M352.162 219.733H305.865C305.431 219.733 305.014 219.57 304.707 219.28C304.399 218.99 304.227 218.597 304.227 218.187C304.227 217.777 304.399 217.383 304.707 217.094C305.014 216.804 305.431 216.641 305.865 216.641H352.162C352.597 216.641 353.014 216.804 353.321 217.094C353.629 217.383 353.801 217.777 353.801 218.187C353.801 218.597 353.629 218.99 353.321 219.28C353.014 219.57 352.597 219.733 352.162 219.733Z" fill="#027FC2"/>
<path d="M280.556 231.826H376.152C376.282 231.826 376.407 231.777 376.499 231.69C376.591 231.603 376.643 231.486 376.643 231.363C376.643 231.24 376.591 231.123 376.499 231.036C376.407 230.949 376.282 230.9 376.152 230.9H280.556C280.491 230.9 280.427 230.912 280.368 230.935C280.308 230.958 280.254 230.991 280.208 231.034C280.162 231.077 280.126 231.128 280.101 231.184C280.076 231.24 280.063 231.3 280.063 231.36C280.062 231.421 280.074 231.481 280.099 231.538C280.123 231.594 280.159 231.645 280.204 231.688C280.249 231.731 280.303 231.766 280.363 231.789C280.422 231.813 280.486 231.825 280.55 231.826H280.556Z" fill="#027FC2"/>
<path d="M254.33 189.302C253.971 188.497 253.369 187.808 252.6 187.323C251.83 186.837 250.926 186.575 250 186.568H163.568C162.326 186.569 161.134 187.035 160.256 187.864C159.377 188.693 158.883 189.817 158.883 190.989V294.151C158.883 295.324 159.377 296.448 160.256 297.276C161.134 298.105 162.326 298.571 163.568 298.572H250.003C251.245 298.57 252.436 298.104 253.315 297.275C254.193 296.447 254.687 295.323 254.689 294.151V190.989C254.691 190.41 254.57 189.836 254.334 189.302H254.33ZM253.645 294.151C253.644 295.063 253.26 295.937 252.576 296.582C251.893 297.226 250.967 297.589 250 297.59H163.568C162.602 297.59 161.675 297.228 160.991 296.583C160.308 295.938 159.924 295.064 159.923 294.152V190.989C159.925 190.078 160.309 189.204 160.992 188.559C161.676 187.915 162.602 187.552 163.568 187.551H250.003C250.731 187.553 251.442 187.76 252.044 188.146C252.647 188.531 253.114 189.077 253.386 189.714C253.439 189.841 253.485 189.97 253.524 190.102C253.606 190.391 253.648 190.69 253.648 190.989L253.645 294.151Z" fill="#3F3D56"/>
<path d="M236.293 210.924H210.259C209.706 210.924 209.176 210.717 208.786 210.349C208.395 209.98 208.176 209.48 208.176 208.959C208.176 208.438 208.395 207.938 208.786 207.57C209.176 207.201 209.706 206.994 210.259 206.994H236.293C236.846 206.994 237.375 207.201 237.766 207.57C238.157 207.938 238.376 208.438 238.376 208.959C238.376 209.48 238.157 209.98 237.766 210.349C237.375 210.717 236.846 210.924 236.293 210.924Z" fill="#027FC2"/>
<path d="M236.293 221.243H210.259C209.706 221.243 209.176 221.036 208.786 220.667C208.395 220.299 208.176 219.799 208.176 219.278C208.176 218.756 208.395 218.257 208.786 217.888C209.176 217.52 209.706 217.312 210.259 217.313H236.293C236.846 217.312 237.375 217.52 237.766 217.888C238.157 218.257 238.376 218.756 238.376 219.278C238.376 219.799 238.157 220.299 237.766 220.667C237.375 221.036 236.846 221.243 236.293 221.243Z" fill="#027FC2"/>
<path d="M196.902 227.116H177.876C177.255 227.115 176.66 226.882 176.22 226.468C175.781 226.053 175.534 225.491 175.533 224.905V203.723C175.534 203.136 175.781 202.574 176.22 202.16C176.66 201.745 177.255 201.512 177.876 201.512H196.902C197.524 201.512 198.119 201.745 198.559 202.16C198.998 202.574 199.245 203.136 199.246 203.723V224.905C199.245 225.491 198.998 226.053 198.559 226.468C198.119 226.882 197.524 227.115 196.902 227.116Z" fill="#51BCF4"/>
<path d="M236.114 242.366H177.276C176.724 242.366 176.194 242.159 175.803 241.79C175.413 241.422 175.193 240.922 175.193 240.401C175.193 239.879 175.413 239.38 175.803 239.011C176.194 238.643 176.724 238.436 177.276 238.436H236.114C236.388 238.436 236.659 238.486 236.911 238.585C237.164 238.684 237.394 238.829 237.587 239.011C237.78 239.194 237.934 239.41 238.039 239.649C238.143 239.887 238.197 240.143 238.197 240.401C238.197 240.659 238.143 240.914 238.039 241.153C237.934 241.391 237.78 241.608 237.587 241.79C237.394 241.973 237.164 242.117 236.911 242.216C236.659 242.315 236.388 242.366 236.114 242.366Z" fill="#027FC2"/>
<path d="M236.114 252.682H177.276C176.724 252.682 176.194 252.475 175.803 252.107C175.413 251.738 175.193 251.238 175.193 250.717C175.193 250.196 175.413 249.696 175.803 249.328C176.194 248.959 176.724 248.752 177.276 248.752H236.114C236.667 248.752 237.196 248.959 237.587 249.328C237.978 249.696 238.197 250.196 238.197 250.717C238.197 251.238 237.978 251.738 237.587 252.107C237.196 252.475 236.667 252.682 236.114 252.682Z" fill="#027FC2"/>
<path d="M236.114 262.995H177.276C176.724 262.995 176.194 262.788 175.803 262.419C175.413 262.051 175.193 261.551 175.193 261.03C175.193 260.508 175.413 260.009 175.803 259.64C176.194 259.271 176.724 259.064 177.276 259.064H236.114C236.667 259.064 237.196 259.271 237.587 259.64C237.978 260.009 238.197 260.508 238.197 261.03C238.197 261.551 237.978 262.051 237.587 262.419C237.196 262.788 236.667 262.995 236.114 262.995Z" fill="#027FC2"/>
<path d="M236.114 273.315H177.276C176.724 273.315 176.194 273.108 175.803 272.739C175.413 272.371 175.193 271.871 175.193 271.35C175.193 270.829 175.413 270.329 175.803 269.96C176.194 269.592 176.724 269.385 177.276 269.385H236.114C236.667 269.385 237.196 269.592 237.587 269.96C237.978 270.329 238.197 270.829 238.197 271.35C238.197 271.871 237.978 272.371 237.587 272.739C237.196 273.108 236.667 273.315 236.114 273.315Z" fill="#027FC2"/>
<path d="M236.114 283.627H177.276C176.724 283.627 176.194 283.42 175.803 283.052C175.413 282.683 175.193 282.184 175.193 281.662C175.193 281.141 175.413 280.641 175.803 280.273C176.194 279.904 176.724 279.697 177.276 279.697H236.114C236.667 279.697 237.196 279.904 237.587 280.273C237.978 280.641 238.197 281.141 238.197 281.662C238.197 282.184 237.978 282.683 237.587 283.052C237.196 283.42 236.667 283.627 236.114 283.627Z" fill="#027FC2"/>
<path d="M208.249 161.712C219.351 161.712 228.35 153.221 228.35 142.748C228.35 132.274 219.351 123.783 208.249 123.783C197.148 123.783 188.148 132.274 188.148 142.748C188.148 153.221 197.148 161.712 208.249 161.712Z" fill="#51BCF4"/>
<path d="M206.258 149.982C205.806 149.983 205.366 149.845 205.004 149.589L204.981 149.573L200.257 146.163C200.038 146.005 199.854 145.808 199.716 145.583C199.578 145.357 199.488 145.109 199.452 144.851C199.416 144.593 199.434 144.33 199.505 144.079C199.576 143.828 199.699 143.592 199.867 143.385C200.035 143.179 200.244 143.005 200.483 142.875C200.722 142.745 200.986 142.661 201.259 142.627C201.533 142.593 201.811 142.61 202.077 142.677C202.343 142.745 202.593 142.861 202.812 143.02L205.872 145.233L213.102 136.334C213.441 135.917 213.941 135.644 214.493 135.576C215.044 135.507 215.603 135.648 216.044 135.967L216.045 135.968L216 136.026L216.046 135.968C216.487 136.288 216.776 136.76 216.849 137.28C216.921 137.801 216.772 138.327 216.434 138.744L207.93 149.207C207.733 149.448 207.48 149.643 207.19 149.777C206.901 149.911 206.582 149.98 206.26 149.98L206.258 149.982Z" fill="white"/>
<path d="M145.512 298.923H267.006C267.171 298.923 267.33 298.861 267.446 298.751C267.563 298.64 267.629 298.491 267.629 298.335C267.629 298.179 267.563 298.029 267.446 297.919C267.33 297.809 267.171 297.747 267.006 297.747H145.512C145.346 297.747 145.188 297.809 145.071 297.919C144.954 298.029 144.889 298.179 144.889 298.335C144.889 298.491 144.954 298.64 145.071 298.751C145.188 298.861 145.346 298.923 145.512 298.923Z" fill="#3F3D56"/>
</svg>
