<svg width="566" height="381" viewBox="0 0 566 381" fill="none" xmlns="http://www.w3.org/2000/svg">
<path fill-rule="evenodd" clip-rule="evenodd" d="M61.3043 78.2214C99.0854 45.3142 160.032 43.5497 213.096 29.5161C259.667 17.1997 303.935 -5.63359 352.252 1.27578C401.311 8.29127 438.394 38.0388 473.049 66.6898C508.955 96.3738 542.441 128.346 554.499 168.479C567.748 212.579 575.557 263.544 543.405 300.864C511.728 337.632 447.134 339.934 394.296 354.433C346.95 367.424 301.643 382.055 251.583 380.94C192.208 379.618 128.592 377.793 82.8135 347.498C34.0116 315.202 4.47301 265.251 0.438365 214.74C-3.51119 165.295 19.4237 114.699 61.3043 78.2214Z" fill="white"/>
<g clip-path="url(#clip0_5145_44393)">
<path d="M77.1211 53.626H190.351C191.888 53.6277 193.361 54.239 194.448 55.3258C195.535 56.4125 196.146 57.886 196.148 59.4229V227.324C196.146 228.861 195.535 230.335 194.448 231.422C193.361 232.508 191.888 233.12 190.351 233.121H77.1211C75.5842 233.12 74.1108 232.508 73.024 231.422C71.9373 230.335 71.3259 228.861 71.3242 227.324V59.4229C71.326 57.886 71.9373 56.4125 73.024 55.3258C74.1108 54.239 75.5842 53.6277 77.1211 53.626Z" fill="#F2F2F2"/>
<path d="M78.5273 57.8418H188.946C189.738 57.8427 190.497 58.1576 191.057 58.7174C191.617 59.2773 191.932 60.0363 191.933 60.8281V225.919C191.932 226.711 191.617 227.47 191.057 228.03C190.497 228.59 189.738 228.905 188.946 228.905H78.5273C77.7356 228.905 76.9765 228.59 76.4166 228.03C75.8568 227.47 75.5419 226.711 75.541 225.919V60.8281C75.5419 60.0363 75.8568 59.2773 76.4166 58.7174C76.9765 58.1576 77.7356 57.8427 78.5273 57.8418Z" fill="white"/>
<path d="M155.261 119.503C155.261 130.116 145.447 128.511 133.341 128.511C121.235 128.511 111.422 130.116 111.422 119.503C111.422 108.89 116.216 90.0771 133.341 90.0771C151.057 90.0771 155.261 108.89 155.261 119.503Z" fill="#3B3D42"/>
<path d="M181.045 209.342C181.484 208.507 181.735 207.586 181.78 206.644C181.825 205.702 181.662 204.761 181.304 203.889C180.946 203.016 180.401 202.233 179.708 201.594C179.014 200.955 178.189 200.475 177.29 200.19L152.178 147.067L140.691 155.122L168.988 204.807C168.608 206.349 168.807 207.976 169.546 209.381C170.286 210.786 171.516 211.871 173.002 212.43C174.488 212.989 176.128 212.983 177.61 212.414C179.093 211.845 180.315 210.751 181.045 209.341V209.342Z" fill="#FDA893"/>
<path d="M159.196 151.734L157.76 149.488L157.028 148.335L151.389 139.496C150.521 137.555 148.918 136.038 146.933 135.277C144.948 134.515 142.743 134.572 140.799 135.435C138.856 136.297 137.334 137.894 136.567 139.877C135.8 141.86 135.849 144.065 136.706 146.011L137.997 150.617L140.633 160.034C140.793 160.613 141.134 161.127 141.606 161.499C141.785 161.649 141.983 161.774 142.195 161.871C142.564 162.046 142.965 162.14 143.373 162.147C143.781 162.154 144.186 162.074 144.561 161.913C144.573 161.907 144.591 161.901 144.603 161.895L151.425 158.845L151.437 158.839L156.643 156.509L157.941 155.932C158.313 155.767 158.645 155.523 158.914 155.217C159.199 154.902 159.408 154.527 159.526 154.118C159.648 153.721 159.681 153.302 159.624 152.89C159.567 152.478 159.421 152.084 159.196 151.734Z" fill="#CCCCCC"/>
<path d="M123.205 227.052C122.95 226.629 122.591 226.278 122.161 226.033C121.732 225.788 121.247 225.656 120.753 225.652C120.259 225.647 119.772 225.768 119.338 226.005C118.904 226.242 118.538 226.586 118.275 227.004C118.161 227.176 118.07 227.362 118.005 227.557L117.662 228.5H124.076L123.205 227.052Z" fill="#3B3D42"/>
<path d="M133.203 127.903C141.349 127.903 147.952 121.299 147.952 113.153C147.952 105.007 141.349 98.4033 133.203 98.4033C125.057 98.4033 118.453 105.007 118.453 113.153C118.453 121.299 125.057 127.903 133.203 127.903Z" fill="#FDA893"/>
<path d="M159.056 156.778C159.02 156.25 158.972 155.727 158.912 155.217C158.699 153.277 158.313 151.359 157.759 149.488C157.645 149.08 157.519 148.683 157.381 148.293C155.625 143.118 152.573 138.479 148.517 134.817C146.911 133.378 144.83 132.582 142.674 132.583H121.896C120.62 132.583 119.359 132.862 118.202 133.4C117.046 133.938 116.02 134.723 115.198 135.699C114.376 136.675 113.777 137.818 113.444 139.05C113.11 140.281 113.049 141.571 113.266 142.828C113.26 142.834 113.26 142.834 113.266 142.84C113.413 143.68 113.682 144.493 114.065 145.254L114.905 146.93L120.538 158.196L127.546 172.212L127.955 173.029L154.072 180.211L154.18 179.965C154.276 179.749 154.378 179.526 154.468 179.31C154.612 178.986 154.751 178.662 154.889 178.343C157.215 173.052 158.628 167.406 159.068 161.643V161.637C159.167 160.019 159.163 158.396 159.056 156.778Z" fill="#027FC2"/>
<path d="M154.889 178.344C154.8 178.038 154.66 177.75 154.474 177.491C153.802 176.592 152.998 175.798 152.09 175.137L152.084 175.131C148.919 172.729 142.638 169.93 130.501 169.858H130.483C129.927 169.859 129.383 170.019 128.915 170.321C128.448 170.622 128.077 171.052 127.847 171.558L127.546 172.212L125.613 176.464C125.448 176.828 125.189 177.141 124.862 177.371C121.794 179.545 106.93 191.736 115.656 218.501C116.509 221.114 117.385 223.966 118.274 227.005C118.419 227.497 118.563 227.996 118.707 228.5H144.866L144.307 224.296C144.27 224.022 144.284 223.743 144.349 223.474L154.877 180.031L154.925 179.845C155.045 179.35 155.033 178.832 154.889 178.344Z" fill="#76CFFF"/>
<path d="M163.098 129.712H174.509C174.986 129.712 175.445 129.902 175.782 130.24C176.12 130.577 176.31 131.036 176.31 131.514V134.516C176.469 134.517 176.622 134.58 176.734 134.693C176.847 134.805 176.91 134.958 176.911 135.117V136.318C176.91 136.477 176.847 136.629 176.734 136.742C176.622 136.854 176.469 136.918 176.31 136.918V138.119C176.469 138.12 176.622 138.183 176.734 138.296C176.847 138.408 176.91 138.561 176.911 138.72V139.921C176.91 140.08 176.847 140.232 176.734 140.345C176.622 140.458 176.469 140.521 176.31 140.521V156.736C176.31 157.214 176.12 157.672 175.782 158.01C175.445 158.347 174.986 158.537 174.509 158.537H163.098C162.621 158.537 162.162 158.347 161.825 158.01C161.487 157.672 161.297 157.214 161.297 156.736V131.514C161.297 131.036 161.487 130.577 161.825 130.24C162.162 129.902 162.621 129.712 163.098 129.712Z" fill="#E74C3C"/>
<path d="M162.498 156.736V131.514C162.498 131.036 162.688 130.577 163.026 130.24C163.363 129.902 163.822 129.712 164.3 129.712H163.098C162.621 129.712 162.162 129.902 161.825 130.24C161.487 130.577 161.297 131.036 161.297 131.514V156.736C161.297 157.214 161.487 157.672 161.825 158.01C162.162 158.348 162.621 158.537 163.098 158.537H164.3C163.822 158.537 163.363 158.348 163.026 158.01C162.688 157.672 162.498 157.214 162.498 156.736Z" fill="#68123F"/>
<path d="M169.504 140.522C170.83 140.522 171.906 139.447 171.906 138.12C171.906 136.793 170.83 135.718 169.504 135.718C168.177 135.718 167.102 136.793 167.102 138.12C167.102 139.447 168.177 140.522 169.504 140.522Z" fill="white"/>
<path d="M165.455 146.535C165.26 146.804 165.087 147.088 164.936 147.384L135.367 150.936L131.018 145.154L121.434 150.575L128.137 161.561C128.678 162.448 129.493 163.136 130.459 163.521C131.424 163.906 132.489 163.967 133.492 163.696L166.199 154.847C167.129 155.727 168.304 156.303 169.569 156.499C170.834 156.695 172.129 156.501 173.281 155.943C174.433 155.386 175.388 154.49 176.019 153.376C176.65 152.262 176.927 150.983 176.813 149.708C176.699 148.433 176.199 147.223 175.38 146.239C174.562 145.254 173.463 144.543 172.23 144.198C170.997 143.854 169.689 143.893 168.478 144.31C167.268 144.728 166.214 145.504 165.455 146.535V146.535Z" fill="#FDA893"/>
<path d="M135.119 147.237L126.832 136.5C125.907 134.845 124.39 133.602 122.586 133.019C120.782 132.437 118.825 132.559 117.107 133.36C115.389 134.162 114.038 135.583 113.326 137.34C112.613 139.097 112.592 141.058 113.266 142.829C113.26 142.835 113.26 142.835 113.266 142.841C113.389 143.169 113.538 143.486 113.71 143.79L114.905 146.931L118.538 156.509C118.676 156.873 118.89 157.202 119.167 157.475C119.444 157.748 119.776 157.957 120.142 158.089C120.271 158.136 120.403 158.172 120.538 158.197C121.167 158.325 121.822 158.223 122.382 157.909L125.012 156.437L134.296 151.249C134.634 151.057 134.927 150.796 135.156 150.482C135.385 150.168 135.544 149.809 135.623 149.429C135.701 149.049 135.697 148.657 135.61 148.278C135.523 147.9 135.355 147.545 135.119 147.237Z" fill="#027FC2"/>
<path d="M116.227 115.9H122.06L124.634 107.031L125.149 115.9H127.937L129.438 110.727L129.738 115.9H150.457C150.457 105.287 143.466 96.6836 134.843 96.6836H131.84C123.217 96.6836 116.227 105.287 116.227 115.9Z" fill="#3B3D42"/>
<path d="M287.302 104.626H165.041C163.504 104.624 162.031 104.013 160.944 102.926C159.857 101.84 159.246 100.366 159.244 98.8292V36.6446C159.246 35.1077 159.857 33.6342 160.944 32.5474C162.031 31.4607 163.504 30.8494 165.041 30.8477H287.302C288.839 30.8494 290.313 31.4607 291.4 32.5474C292.486 33.6342 293.098 35.1077 293.099 36.6446V98.8293C293.098 100.366 292.486 101.84 291.4 102.926C290.313 104.013 288.839 104.624 287.302 104.626Z" fill="#CCCCCC"/>
<path d="M285.898 100.409H166.447C165.655 100.408 164.896 100.093 164.337 99.5335C163.777 98.9737 163.462 98.2146 163.461 97.4229V38.0488C163.462 37.257 163.777 36.498 164.337 35.9381C164.896 35.3783 165.655 35.0634 166.447 35.0625H285.898C286.69 35.0634 287.449 35.3783 288.009 35.9381C288.569 36.498 288.883 37.257 288.884 38.0488V97.4229C288.883 98.2146 288.569 98.9737 288.009 99.5335C287.449 100.093 286.69 100.408 285.898 100.409Z" fill="white"/>
<path d="M172.372 116.058C172.076 116.057 171.783 115.997 171.509 115.883C171.101 115.719 170.751 115.435 170.507 115.069C170.262 114.703 170.134 114.272 170.139 113.832V102.403L187.362 101.968L173.928 115.402C173.725 115.609 173.483 115.773 173.216 115.886C172.949 115.998 172.662 116.057 172.372 116.058Z" fill="#CCCCCC"/>
<path d="M271.354 65.0753H210.926C210.557 65.0758 210.191 65.0036 209.849 64.8626C209.508 64.7215 209.197 64.5146 208.936 64.2536C208.675 63.9925 208.467 63.6825 208.326 63.3412C208.184 63 208.111 62.6341 208.111 62.2647C208.111 61.8953 208.184 61.5295 208.326 61.1882C208.467 60.8469 208.675 60.5369 208.936 60.2759C209.197 60.0148 209.508 59.8079 209.849 59.6669C210.191 59.5259 210.557 59.4536 210.926 59.4541H271.354C272.1 59.4541 272.814 59.7502 273.342 60.2773C273.869 60.8044 274.165 61.5193 274.165 62.2647C274.165 63.0101 273.869 63.725 273.342 64.2521C272.814 64.7792 272.1 65.0753 271.354 65.0753Z" fill="#CCCCCC"/>
<path d="M251.68 53.13H210.926C210.18 53.13 209.466 52.8339 208.938 52.3068C208.411 51.7797 208.115 51.0648 208.115 50.3194C208.115 49.574 208.411 48.8591 208.938 48.332C209.466 47.8049 210.18 47.5088 210.926 47.5088H251.68C252.425 47.5088 253.14 47.8049 253.667 48.332C254.194 48.8591 254.49 49.574 254.49 50.3194C254.49 51.0648 254.194 51.7797 253.667 52.3068C253.14 52.8339 252.425 53.13 251.68 53.13Z" fill="#CCCCCC"/>
<path d="M185.912 65.0751C190.763 65.0751 194.695 61.1427 194.695 56.2919C194.695 51.4411 190.763 47.5088 185.912 47.5088C181.061 47.5088 177.129 51.4411 177.129 56.2919C177.129 61.1427 181.061 65.0751 185.912 65.0751Z" fill="#027FC2"/>
<path d="M252.732 87.9659C254.285 87.9659 255.543 86.7076 255.543 85.1553C255.543 83.6031 254.285 82.3447 252.732 82.3447C251.18 82.3447 249.922 83.6031 249.922 85.1553C249.922 86.7076 251.18 87.9659 252.732 87.9659Z" fill="#E6E6E6"/>
<path d="M262.568 87.9659C264.121 87.9659 265.379 86.7076 265.379 85.1553C265.379 83.6031 264.121 82.3447 262.568 82.3447C261.016 82.3447 259.758 83.6031 259.758 85.1553C259.758 86.7076 261.016 87.9659 262.568 87.9659Z" fill="#E6E6E6"/>
<path d="M272.406 87.9659C273.959 87.9659 275.217 86.7076 275.217 85.1553C275.217 83.6031 273.959 82.3447 272.406 82.3447C270.854 82.3447 269.596 83.6031 269.596 85.1553C269.596 86.7076 270.854 87.9659 272.406 87.9659Z" fill="#E6E6E6"/>
<path d="M388.195 147.909H501.425C502.962 147.911 504.435 148.522 505.522 149.609C506.609 150.696 507.22 152.169 507.222 153.706V321.608C507.22 323.145 506.609 324.618 505.522 325.705C504.435 326.792 502.962 327.403 501.425 327.405H388.195C386.658 327.403 385.185 326.792 384.098 325.705C383.011 324.618 382.4 323.145 382.398 321.608V153.706C382.4 152.169 383.011 150.696 384.098 149.609C385.185 148.522 386.658 147.911 388.195 147.909Z" fill="#F2F2F2"/>
<path d="M389.601 152.124H500.021C500.812 152.125 501.571 152.44 502.131 153C502.691 153.559 503.006 154.319 503.007 155.11V320.201C503.006 320.993 502.691 321.752 502.131 322.312C501.571 322.872 500.812 323.187 500.021 323.188H389.601C388.81 323.187 388.051 322.872 387.491 322.312C386.931 321.752 386.616 320.993 386.615 320.201V155.11C386.616 154.319 386.931 153.559 387.491 153C388.051 152.44 388.81 152.125 389.601 152.124Z" fill="white"/>
<path d="M392.951 232.917H270.689C269.153 232.915 267.679 232.304 266.592 231.217C265.506 230.131 264.894 228.657 264.893 227.12V164.936C264.894 163.399 265.506 161.925 266.592 160.838C267.679 159.752 269.153 159.14 270.689 159.139H392.951C394.488 159.14 395.961 159.752 397.048 160.838C398.135 161.925 398.746 163.399 398.748 164.936V227.12C398.746 228.657 398.135 230.131 397.048 231.217C395.961 232.304 394.488 232.915 392.951 232.917Z" fill="#CCCCCC"/>
<path d="M391.547 228.701H272.096C271.304 228.7 270.545 228.385 269.985 227.825C269.425 227.266 269.11 226.507 269.109 225.715V166.341C269.11 165.549 269.425 164.79 269.985 164.23C270.545 163.67 271.304 163.355 272.096 163.354H391.547C392.338 163.355 393.097 163.67 393.657 164.23C394.217 164.79 394.532 165.549 394.533 166.341V225.715C394.532 226.507 394.217 227.266 393.657 227.825C393.097 228.385 392.338 228.7 391.547 228.701Z" fill="white"/>
<path d="M384.627 243.692L371.193 230.258L388.417 230.693V242.122C388.421 242.562 388.293 242.994 388.048 243.359C387.804 243.725 387.455 244.009 387.046 244.173C386.773 244.287 386.479 244.347 386.183 244.348C385.893 244.347 385.606 244.288 385.339 244.176C385.072 244.063 384.83 243.899 384.627 243.692Z" fill="#CCCCCC"/>
<path d="M377.003 193.365H316.574C316.205 193.366 315.839 193.294 315.498 193.153C315.156 193.012 314.846 192.805 314.584 192.544C314.323 192.283 314.116 191.973 313.974 191.631C313.833 191.29 313.76 190.924 313.76 190.555C313.76 190.185 313.833 189.819 313.974 189.478C314.116 189.137 314.323 188.827 314.584 188.566C314.846 188.305 315.156 188.098 315.498 187.957C315.839 187.816 316.205 187.744 316.574 187.744H377.003C377.372 187.744 377.738 187.816 378.079 187.957C378.421 188.098 378.731 188.305 378.993 188.566C379.254 188.827 379.461 189.137 379.603 189.478C379.744 189.819 379.817 190.185 379.817 190.555C379.817 190.924 379.744 191.29 379.603 191.631C379.461 191.973 379.254 192.283 378.993 192.544C378.731 192.805 378.421 193.012 378.079 193.153C377.738 193.294 377.372 193.366 377.003 193.365Z" fill="#CCCCCC"/>
<path d="M357.328 181.421H316.574C316.205 181.421 315.84 181.348 315.499 181.207C315.158 181.066 314.848 180.859 314.587 180.598C314.326 180.337 314.119 180.027 313.978 179.686C313.836 179.345 313.764 178.98 313.764 178.61C313.764 178.241 313.836 177.876 313.978 177.535C314.119 177.194 314.326 176.884 314.587 176.623C314.848 176.362 315.158 176.155 315.499 176.014C315.84 175.873 316.205 175.8 316.574 175.8H357.328C358.073 175.8 358.788 176.096 359.315 176.623C359.843 177.15 360.139 177.865 360.139 178.61C360.139 179.356 359.843 180.071 359.315 180.598C358.788 181.125 358.073 181.421 357.328 181.421Z" fill="#CCCCCC"/>
<path d="M291.559 193.366C296.409 193.366 300.342 189.434 300.342 184.583C300.342 179.732 296.409 175.8 291.559 175.8C286.708 175.8 282.775 179.732 282.775 184.583C282.775 189.434 286.708 193.366 291.559 193.366Z" fill="#51BCF4"/>
<path d="M358.381 216.257C359.933 216.257 361.192 214.999 361.192 213.446C361.192 211.894 359.933 210.636 358.381 210.636C356.829 210.636 355.57 211.894 355.57 213.446C355.57 214.999 356.829 216.257 358.381 216.257Z" fill="#E6E6E6"/>
<path d="M368.217 216.257C369.769 216.257 371.028 214.999 371.028 213.446C371.028 211.894 369.769 210.636 368.217 210.636C366.665 210.636 365.406 211.894 365.406 213.446C365.406 214.999 366.665 216.257 368.217 216.257Z" fill="#E6E6E6"/>
<path d="M378.055 216.257C379.607 216.257 380.865 214.999 380.865 213.446C380.865 211.894 379.607 210.636 378.055 210.636C376.503 210.636 375.244 211.894 375.244 213.446C375.244 214.999 376.503 216.257 378.055 216.257Z" fill="#E6E6E6"/>
<path d="M394.295 270.554C394.781 269.818 395.424 269.197 396.176 268.735C396.929 268.273 397.773 267.982 398.651 267.883C399.528 267.783 400.416 267.876 401.253 268.157C402.09 268.438 402.856 268.898 403.495 269.507L422.565 259.664L421.379 270.753L403.452 278.399C402.359 279.406 400.934 279.977 399.448 280.004C397.962 280.031 396.518 279.511 395.389 278.544C394.26 277.577 393.525 276.23 393.324 274.757C393.122 273.284 393.468 271.789 394.295 270.554Z" fill="#FFB8B8"/>
<path d="M453.67 221.257C452.19 220.1 450.377 219.452 448.499 219.409C446.621 219.367 444.78 219.933 443.25 221.023C442.56 221.519 441.944 222.109 441.419 222.777L424.676 253.83L409.225 265.504C408.712 265.89 408.355 266.446 408.216 267.072C408.11 267.531 408.129 268.009 408.269 268.459L409.789 273.359C409.952 273.886 410.27 274.351 410.702 274.692C410.87 274.819 411.051 274.928 411.242 275.017C411.265 275.029 411.289 275.039 411.314 275.047C411.651 275.191 412.014 275.266 412.381 275.264C412.747 275.263 413.11 275.187 413.446 275.041L431.558 267.186L431.756 267.096C437.861 264.394 442.791 259.588 445.647 253.554L455.171 233.454C456.582 231.635 457.217 229.331 456.936 227.046C456.654 224.761 455.48 222.68 453.67 221.257Z" fill="#027FC2"/>
<path d="M455.589 209.815C463.735 209.815 470.339 203.211 470.339 195.065C470.339 186.919 463.735 180.315 455.589 180.315C447.443 180.315 440.84 186.919 440.84 195.065C440.84 203.211 447.443 209.815 455.589 209.815Z" fill="#FFB8B8"/>
<path d="M465.572 293.698L465.422 292.551L464.725 287.32L463.963 281.609L461.255 282.072L460.21 282.246L459.153 282.426L458.804 282.486L431.937 287.05L428.592 285.038L428.52 284.996L428.55 285.303L429.18 291.842L432.189 323.082H469.494L465.572 293.698Z" fill="#044568"/>
<path d="M475.901 233.689C475.423 228.339 472.894 223.382 468.845 219.853C464.947 216.402 459.839 214.639 454.642 214.953C449.688 215.283 445.881 217.319 443.25 221.024C441.897 223.007 440.897 225.21 440.295 227.534C437.305 238.295 434.152 254.059 431.756 267.097C430.411 274.375 429.306 280.807 428.591 285.041C428.579 285.131 428.567 285.215 428.549 285.305C428.273 286.956 428.063 288.247 427.925 289.106C427.837 289.636 427.91 290.179 428.134 290.667C428.357 291.155 428.721 291.565 429.18 291.844C429.186 291.851 429.198 291.857 429.204 291.863C432.235 293.676 435.695 294.648 439.227 294.679C443.502 294.679 448.631 293.19 454.03 288.379C454.396 288.046 454.868 287.853 455.363 287.832C455.858 287.811 456.345 287.964 456.738 288.265L457.327 288.722L463.14 293.244C463.594 293.598 464.149 293.798 464.725 293.814C465.012 293.827 465.299 293.788 465.572 293.7C465.597 293.697 465.621 293.691 465.644 293.682C466.063 293.546 466.442 293.308 466.748 292.991C467.054 292.674 467.277 292.286 467.398 291.863C467.722 290.734 468.082 289.43 468.478 287.977C468.641 287.371 468.809 286.734 468.983 286.073C469.745 283.155 470.592 279.768 471.421 276.081C474.316 263.193 477.066 246.637 475.901 233.689Z" fill="#027FC2"/>
<path d="M451.612 295.241C451.54 294.361 451.662 293.476 451.969 292.648C452.277 291.821 452.762 291.07 453.39 290.45C454.019 289.831 454.776 289.356 455.608 289.06C456.439 288.765 457.326 288.655 458.205 288.739L467.136 269.226L473.046 278.682L463.659 295.763C463.42 297.23 462.651 298.558 461.498 299.496C460.345 300.434 458.888 300.917 457.404 300.853C455.919 300.788 454.509 300.181 453.441 299.147C452.374 298.113 451.723 296.723 451.612 295.241Z" fill="#FFB8B8"/>
<path d="M481.529 250.173L476.616 228.476C476.604 226.336 475.806 224.275 474.373 222.685C472.94 221.095 470.973 220.087 468.846 219.853C468.539 219.823 468.227 219.805 467.909 219.805C466.762 219.808 465.627 220.037 464.568 220.479C463.51 220.921 462.549 221.567 461.741 222.381C460.933 223.195 460.293 224.16 459.858 225.222C459.423 226.283 459.202 227.419 459.207 228.566L465.2 263.331L465.183 263.403L462.006 275.396L460.246 282.056C460.228 282.118 460.216 282.183 460.21 282.248C460.097 282.806 460.171 283.386 460.42 283.899C460.62 284.329 460.931 284.698 461.321 284.968L464.726 287.322L465.537 287.887C465.988 288.201 466.525 288.369 467.074 288.367C467.286 288.367 467.498 288.343 467.705 288.295C467.729 288.289 467.747 288.283 467.771 288.277C468.02 288.212 468.259 288.111 468.479 287.977C468.888 287.729 469.224 287.376 469.452 286.956L478.856 269.595C482.069 263.658 483.018 256.757 481.529 250.173Z" fill="#027FC2"/>
<path opacity="0.2" d="M460.402 243.226L465.807 266.046L458 285.263L463.405 266.646L460.402 243.226Z" fill="black"/>
<path d="M467.526 203.93C468.762 203.489 469.898 202.808 470.869 201.926C471.299 201.542 471.76 201.186 472.188 200.803C475.97 197.421 477.107 191.603 475.419 186.818C473.732 182.033 469.535 178.354 464.739 176.697C459.943 175.039 454.628 175.265 449.758 176.692C444.513 178.229 439.26 181.69 438.014 187.011C437.683 188.428 437.67 190 438.635 191.195C438.925 191.555 439.305 191.834 439.736 192.002C441.436 192.654 442.383 191.324 443.652 190.759C445.395 189.982 447.541 190.821 448.755 192.294C449.969 193.767 450.418 195.724 450.605 197.623C450.643 198.795 450.826 199.957 451.152 201.082C451.321 201.644 451.631 202.154 452.053 202.563C452.474 202.971 452.993 203.266 453.56 203.418C454.929 203.67 456.244 202.728 457.105 201.635C457.966 200.542 458.576 199.243 459.593 198.294C460.611 197.345 462.27 196.844 463.385 197.676C463.758 197.991 464.073 198.37 464.316 198.794C466.025 201.419 465.817 201.305 467.526 203.93H467.526Z" fill="#3B3D42"/>
<path d="M396.892 257.927L386.486 262.609C386.051 262.805 385.71 263.166 385.541 263.613C385.371 264.059 385.386 264.555 385.582 264.991L386.814 267.729C386.669 267.795 386.556 267.915 386.5 268.064C386.444 268.213 386.448 268.378 386.513 268.523L387.006 269.618C387.072 269.763 387.192 269.876 387.341 269.933C387.49 269.989 387.655 269.985 387.8 269.92L388.293 271.015C388.148 271.081 388.035 271.201 387.978 271.35C387.922 271.499 387.927 271.664 387.991 271.809L388.484 272.904C388.55 273.049 388.67 273.162 388.819 273.219C388.968 273.275 389.133 273.27 389.278 273.206L395.931 287.992C396.127 288.428 396.488 288.768 396.935 288.938C397.382 289.107 397.877 289.092 398.313 288.896L408.719 284.215C409.154 284.019 409.494 283.658 409.664 283.211C409.833 282.764 409.818 282.268 409.622 281.833L399.274 258.831C399.078 258.395 398.717 258.055 398.27 257.886C397.823 257.716 397.327 257.731 396.892 257.927Z" fill="#3F3D56"/>
<path d="M407.694 280.476L406.228 277.215L402.385 268.676L399.01 261.175C398.823 260.758 398.477 260.431 398.049 260.268C397.621 260.105 397.146 260.118 396.728 260.305L390.999 262.881L388.375 264.064C387.958 264.253 387.634 264.599 387.472 265.027C387.31 265.454 387.323 265.928 387.51 266.346L390.999 274.105L392.338 277.077L396.194 285.653C396.384 286.07 396.731 286.395 397.159 286.557C397.588 286.719 398.063 286.705 398.482 286.518L406.829 282.758C407.246 282.57 407.571 282.224 407.733 281.796C407.895 281.368 407.881 280.894 407.694 280.476Z" fill="#941759"/>
</g>
<defs>
<clipPath id="clip0_5145_44393">
<rect width="435.898" height="296.557" fill="white" transform="translate(71.3242 30.8477)"/>
</clipPath>
</defs>
</svg>
