<svg width="48" height="40" viewBox="0 0 48 40" fill="none" xmlns="http://www.w3.org/2000/svg">
<path fill-rule="evenodd" clip-rule="evenodd" d="M0 1.71428C0 0.767511 0.767511 0 1.71428 0H32.5714C33.5182 0 34.2857 0.767511 34.2857 1.71428V11.9989H27.4289H17.1432H6.85754C5.91077 11.9989 5.14326 12.7664 5.14326 13.7132C5.14326 14.66 5.91077 15.4275 6.85754 15.4275H17.1432V18.8586H6.85754C5.91077 18.8586 5.14326 19.6261 5.14326 20.5729C5.14326 21.5197 5.91077 22.2872 6.85754 22.2872H17.1432V27.4285H1.71428C0.767511 27.4285 0 26.661 0 25.7143V1.71428ZM5.14326 6.85552C5.14326 5.90874 5.91077 5.14123 6.85754 5.14123H27.4289C28.3757 5.14123 29.1432 5.90874 29.1432 6.85552C29.1432 7.80229 28.3757 8.5698 27.4289 8.5698H6.85754C5.91077 8.5698 5.14326 7.80229 5.14326 6.85552Z" fill="#51BCF4"/>
<path d="M42.8594 39.427V34.2842H37.7165L42.8594 39.427Z" fill="#027FC2"/>
<path fill-rule="evenodd" clip-rule="evenodd" d="M15.4291 6.85547C14.4824 6.85547 13.7148 7.62298 13.7148 8.56975V32.5697C13.7148 33.5165 14.4824 34.284 15.4291 34.284H46.2862C47.233 34.284 48.0005 33.5165 48.0005 32.5697V8.56975C48.0005 7.62298 47.233 6.85547 46.2862 6.85547H15.4291ZM20.5729 25.7122C19.6261 25.7122 18.8586 26.4798 18.8586 27.4265C18.8586 28.3733 19.6261 29.1408 20.5729 29.1408H41.1443C42.091 29.1408 42.8586 28.3733 42.8586 27.4265C42.8586 26.4798 42.091 25.7122 41.1443 25.7122H20.5729ZM18.8586 20.5729C18.8586 19.6261 19.6261 18.8586 20.5729 18.8586H41.1443C42.091 18.8586 42.8586 19.6261 42.8586 20.5729C42.8586 21.5197 42.091 22.2872 41.1443 22.2872H20.5729C19.6261 22.2872 18.8586 21.5197 18.8586 20.5729ZM20.5729 11.9989C19.6261 11.9989 18.8586 12.7664 18.8586 13.7132C18.8586 14.66 19.6261 15.4275 20.5729 15.4275H41.1443C42.091 15.4275 42.8586 14.66 42.8586 13.7132C42.8586 12.7664 42.091 11.9989 41.1443 11.9989H20.5729Z" fill="#027FC2"/>
</svg>
