<svg width="43" height="48" viewBox="0 0 43 48" fill="none" xmlns="http://www.w3.org/2000/svg">
<path fill-rule="evenodd" clip-rule="evenodd" d="M21.4141 4.375C14.6486 4.375 9.16406 9.85951 9.16406 16.625C9.16406 23.3905 14.6486 28.875 21.4141 28.875C28.1796 28.875 33.6641 23.3905 33.6641 16.625C33.6641 9.85951 28.1796 4.375 21.4141 4.375ZM5.66406 16.625C5.66406 7.92651 12.7156 0.875 21.4141 0.875C30.1125 0.875 37.1641 7.92651 37.1641 16.625C37.1641 25.3235 30.1125 32.375 21.4141 32.375C12.7156 32.375 5.66406 25.3235 5.66406 16.625Z" fill="#027FC2"/>
<path d="M17.9141 14C17.9141 15.4497 17.1306 16.625 16.1641 16.625C15.1976 16.625 14.4141 15.4497 14.4141 14C14.4141 12.5503 15.1976 11.375 16.1641 11.375C17.1306 11.375 17.9141 12.5503 17.9141 14Z" fill="#027FC2"/>
<path d="M28.4141 14C28.4141 15.4497 27.6306 16.625 26.6641 16.625C25.6976 16.625 24.9141 15.4497 24.9141 14C24.9141 12.5503 25.6976 11.375 26.6641 11.375C27.6306 11.375 28.4141 12.5503 28.4141 14Z" fill="#027FC2"/>
<path fill-rule="evenodd" clip-rule="evenodd" d="M25.2095 20.0267C25.2095 20.0267 25.2089 20.0275 25.2078 20.0293C25.7439 19.2251 26.8304 19.0078 27.6346 19.5439C28.4388 20.08 28.6561 21.1666 28.12 21.9707C27.5383 22.8432 26.5353 23.4542 25.4757 23.845C24.3653 24.2546 22.9897 24.5 21.4139 24.5C18.2162 24.5 16.1738 23.4848 14.9264 22.2374C14.243 21.554 14.243 20.446 14.9264 19.7626C15.6099 19.0791 16.7179 19.0791 17.4013 19.7626C17.904 20.2652 19.0116 21 21.4139 21C22.638 21 23.5958 20.8079 24.2645 20.5613C24.5987 20.438 24.842 20.3081 25.0054 20.1967C25.1586 20.0922 25.2092 20.0264 25.2095 20.0267Z" fill="#027FC2"/>
<path fill-rule="evenodd" clip-rule="evenodd" d="M0.414062 28.125C0.414062 27.5727 0.861778 27.125 1.41406 27.125H41.4141C41.9663 27.125 42.4141 27.5727 42.4141 28.125V47.125C42.4141 47.6773 41.9663 48.125 41.4141 48.125H1.41406C0.861779 48.125 0.414062 47.6773 0.414062 47.125V28.125ZM8.28794 43.7493C8.28794 45.4993 10.0379 45.4993 10.0379 45.4993C10.0379 45.4993 11.7879 45.4993 11.7879 43.7493H8.28794ZM23.1629 32.375C22.1964 32.375 21.4129 33.1585 21.4129 34.125C21.4129 35.0915 22.1964 35.875 23.1629 35.875H38.9129C39.8794 35.875 40.6629 35.0915 40.6629 34.125C40.6629 33.1585 39.8794 32.375 38.9129 32.375H23.1629ZM21.4129 41.1257C21.4129 40.1592 22.1964 39.3757 23.1629 39.3757H33.6629C34.6294 39.3757 35.4129 40.1592 35.4129 41.1257C35.4129 42.0922 34.6294 42.8757 33.6629 42.8757H23.1629C22.1964 42.8757 21.4129 42.0922 21.4129 41.1257ZM8.28794 30.75V32.6885C5.14744 33.9032 4.09952 38.4042 3.93601 41.8766C3.91003 42.4283 4.35999 42.875 4.91228 42.875H15.1623C15.7146 42.875 16.1645 42.4283 16.1385 41.8766C15.9751 38.4047 14.9274 33.9045 11.7879 32.689V30.75C11.7879 30.1977 11.3402 29.75 10.7879 29.75H9.28794C8.73566 29.75 8.28794 30.1977 8.28794 30.75Z" fill="#51BCF4"/>
</svg>
