<svg width="38" height="48" viewBox="0 0 38 48" fill="none" xmlns="http://www.w3.org/2000/svg">
<path d="M0.646484 28.793C0.646484 18.5921 8.94559 10.293 19.1465 10.293C29.3474 10.293 37.6465 18.5921 37.6465 28.793C37.6465 38.9939 29.3474 47.293 19.1465 47.293C8.94559 47.293 0.646484 38.9939 0.646484 28.793Z" fill="#51BCF4"/>
<path d="M19.3446 0C15.8844 0.0043894 12.5673 1.38088 10.1206 3.82758C8.14905 5.79908 6.87242 8.33576 6.44859 11.057C6.27845 12.1494 7.18995 13.0516 8.29551 13.0516H10.9283C12.0328 13.0516 12.8974 12.1346 13.2369 11.0835C14.0697 8.50439 16.4937 6.63529 19.3446 6.63529C22.8812 6.63529 25.7609 9.51169 25.7609 13.0516C25.7609 15.0356 24.1651 16.4754 21.7267 18.4461C20.9301 19.0702 20.165 19.7334 19.4342 20.4334C16.1232 23.7411 16.0269 27.2545 16.0269 27.646C16.0269 28.8681 17.0177 29.8588 18.2398 29.8588H20.5622C21.7215 29.8588 22.6608 28.9181 22.6589 27.7588C22.6622 27.7057 22.7684 26.4781 24.122 25.1279C24.6197 24.6302 25.2467 24.1326 25.8969 23.6084C28.4814 21.5149 32.3929 18.3532 32.3929 13.0516C32.3903 9.5915 31.0148 6.2738 28.5684 3.82681C26.1221 1.37983 22.8047 0.00351449 19.3446 0ZM16.0269 35.1765C16.0269 34.0719 16.9224 33.1765 18.0269 33.1765H20.6622C21.7668 33.1765 22.6622 34.0719 22.6622 35.1765V37.8118C22.6622 38.9163 21.7668 39.8118 20.6622 39.8118H18.0269C16.9224 39.8118 16.0269 38.9163 16.0269 37.8118V35.1765Z" fill="#027FC2"/>
</svg>
