<svg width="47" height="42" viewBox="0 0 47 42" fill="none" xmlns="http://www.w3.org/2000/svg">
<path d="M0.414062 4.95829C0.414062 2.2199 2.62484 0 5.35198 0H39.3687C42.0958 0 44.3067 2.2199 44.3067 4.95829V27.5461C44.3067 20.8522 38.9026 15.4258 32.2362 15.4258C25.5698 15.4258 20.1657 20.8522 20.1657 27.5461C20.1657 30.4761 21.2012 33.1635 22.9248 35.259H5.35198C2.62484 35.259 0.414062 33.039 0.414062 30.3007V4.95829Z" fill="#51BCF4"/>
<path d="M40.424 33.1903C41.5735 31.5693 42.2497 29.5862 42.2497 27.4444C42.2497 21.9676 37.8282 17.5278 32.3739 17.5278C26.9196 17.5278 22.498 21.9676 22.498 27.4444C22.498 32.9212 26.9196 37.361 32.3739 37.361C34.5068 37.361 36.4818 36.682 38.0962 35.5278L43.8292 41.2842C44.472 41.9297 45.514 41.9297 46.1568 41.2842C46.7996 40.6388 46.7996 39.5925 46.1568 38.947L40.424 33.1903ZM38.9578 27.4444C38.9578 31.0957 36.0102 34.0555 32.3739 34.0555C28.7376 34.0555 25.79 31.0957 25.79 27.4444C25.79 23.7931 28.7376 20.8334 32.3739 20.8334C36.0102 20.8334 38.9578 23.7931 38.9578 27.4444Z" fill="#027FC2"/>
</svg>
