<svg width="49" height="48" viewBox="0 0 49 48" fill="none" xmlns="http://www.w3.org/2000/svg">
<g clip-path="url(#clip0_5145_44103)">
<rect x="9.41406" y="5" width="39" height="30" rx="2" fill="#51BCF4"/>
<path d="M32.4141 46V39H26.4141L32.4141 46Z" fill="#027FC2"/>
<path fill-rule="evenodd" clip-rule="evenodd" d="M2.36406 8C1.28711 8 0.414062 8.89141 0.414062 9.99101V37.8652C0.414062 38.9648 1.28711 39.8562 2.36406 39.8562H37.4641C38.541 39.8562 39.4141 38.9648 39.4141 37.8652V9.99101C39.4141 8.89141 38.541 8 37.4641 8H2.36406ZM8.21424 29.901C7.13729 29.901 6.26424 30.7924 6.26424 31.8921C6.26424 32.9917 7.13729 33.8831 8.21424 33.8831H31.6142C32.6912 33.8831 33.5642 32.9917 33.5642 31.8921C33.5642 30.7924 32.6912 29.901 31.6142 29.901H8.21424ZM6.26424 23.9288C6.26424 22.8293 7.13729 21.9379 8.21424 21.9379H31.6142C32.6912 21.9379 33.5642 22.8293 33.5642 23.9288C33.5642 25.0284 32.6912 25.9198 31.6142 25.9198H8.21424C7.13729 25.9198 6.26424 25.0284 6.26424 23.9288ZM8.21424 13.9724C7.13729 13.9724 6.26424 14.8637 6.26424 15.9633C6.26424 17.0629 7.13729 17.9543 8.21424 17.9543H31.6142C32.6912 17.9543 33.5642 17.0629 33.5642 15.9633C33.5642 14.8637 32.6912 13.9724 31.6142 13.9724H8.21424Z" fill="#027FC2"/>
</g>
<defs>
<clipPath id="clip0_5145_44103">
<rect width="48" height="48" fill="white" transform="translate(0.414062)"/>
</clipPath>
</defs>
</svg>
