<svg width="48" height="48" viewBox="0 0 48 48" fill="none" xmlns="http://www.w3.org/2000/svg">
<path d="M25.5021 13.9394C27.6159 12.3699 30.5818 14.0901 30.2692 16.7042L26.894 44.9331C26.5702 47.6416 23.0924 48.5473 21.4886 46.3408L15.8209 38.5436C15.3237 37.8596 14.5609 37.4172 13.7202 37.3253L4.13831 36.278C1.42663 35.9816 0.485751 32.5132 2.67591 30.887L25.5021 13.9394Z" fill="#027FC2"/>
<path fill-rule="evenodd" clip-rule="evenodd" d="M26.0218 18.5355L7.10754 32.5787L14.1549 33.349C16.1164 33.5634 17.8963 34.5957 19.0565 36.1918L23.225 41.9266L26.0218 18.5355ZM30.2692 16.7042C30.5818 14.0901 27.6159 12.3699 25.5021 13.9394L2.67591 30.887C0.485751 32.5132 1.42663 35.9816 4.13831 36.278L13.7202 37.3253C14.5609 37.4172 15.3237 37.8596 15.8209 38.5436L21.4886 46.3408C23.0924 48.5473 26.5702 47.6416 26.894 44.9331L30.2692 16.7042Z" fill="#027FC2"/>
<path fill-rule="evenodd" clip-rule="evenodd" d="M15.8911 2.61861C16.7688 1.94803 18.024 2.11594 18.6945 2.99366L23.0285 8.66629C23.6991 9.54401 23.5311 10.7992 22.6534 11.4697C21.7757 12.1403 20.5206 11.9724 19.85 11.0947L15.516 5.42206C14.8455 4.54434 15.0134 3.2892 15.8911 2.61861Z" fill="#51BCF4"/>
<path fill-rule="evenodd" clip-rule="evenodd" d="M29.5938 0.393543C30.687 0.55163 31.445 1.566 31.2869 2.65919L30.2652 9.72445C30.1071 10.8177 29.0928 11.5757 27.9996 11.4176C26.9064 11.2595 26.1483 10.2452 26.3064 9.15197L27.3281 2.08671C27.4862 0.993515 28.5006 0.235457 29.5938 0.393543Z" fill="#51BCF4"/>
<path fill-rule="evenodd" clip-rule="evenodd" d="M41.3456 7.39083C41.9736 8.29952 41.746 9.54523 40.8373 10.1732L34.9645 14.2318C34.0558 14.8597 32.8101 14.6322 32.1821 13.7235C31.5542 12.8148 31.7817 11.5691 32.6904 10.9411L38.5632 6.88254C39.4719 6.25457 40.7176 6.48214 41.3456 7.39083Z" fill="#51BCF4"/>
<path fill-rule="evenodd" clip-rule="evenodd" d="M44.7702 19.2929C44.9121 18.1974 44.1391 17.1944 43.0437 17.0525L35.9641 16.1355C34.8686 15.9937 33.8656 16.7666 33.7237 17.8621C33.5818 18.9575 34.3548 19.9605 35.4503 20.1024L42.5299 21.0194C43.6253 21.1613 44.6283 20.3883 44.7702 19.2929Z" fill="#51BCF4"/>
</svg>
