<svg width="42" height="48" viewBox="0 0 42 48" fill="none" xmlns="http://www.w3.org/2000/svg">
<path fill-rule="evenodd" clip-rule="evenodd" d="M21 4.375C14.2345 4.375 8.75 9.85951 8.75 16.625C8.75 23.3905 14.2345 28.875 21 28.875C27.7655 28.875 33.25 23.3905 33.25 16.625C33.25 9.85951 27.7655 4.375 21 4.375ZM5.25 16.625C5.25 7.92651 12.3015 0.875 21 0.875C29.6985 0.875 36.75 7.92651 36.75 16.625C36.75 25.3235 29.6985 32.375 21 32.375C12.3015 32.375 5.25 25.3235 5.25 16.625Z" fill="#027FC2"/>
<path d="M17.5 14C17.5 15.4497 16.7165 16.625 15.75 16.625C14.7835 16.625 14 15.4497 14 14C14 12.5503 14.7835 11.375 15.75 11.375C16.7165 11.375 17.5 12.5503 17.5 14Z" fill="#027FC2"/>
<path d="M28 14C28 15.4497 27.2165 16.625 26.25 16.625C25.2835 16.625 24.5 15.4497 24.5 14C24.5 12.5503 25.2835 11.375 26.25 11.375C27.2165 11.375 28 12.5503 28 14Z" fill="#027FC2"/>
<path fill-rule="evenodd" clip-rule="evenodd" d="M17.2046 23.7233C17.2045 23.7233 17.2051 23.7225 17.2063 23.7207C16.6702 24.5249 15.5836 24.7422 14.7795 24.2061C13.9753 23.67 13.758 22.5834 14.2941 21.7793C14.8757 20.9068 15.8788 20.2958 16.9383 19.905C18.0488 19.4954 19.4243 19.25 21.0002 19.25C24.1979 19.25 26.2403 20.2652 27.4876 21.5126C28.171 22.196 28.171 23.304 27.4876 23.9874C26.8042 24.6709 25.6962 24.6709 25.0128 23.9874C24.5101 23.4848 23.4025 22.75 21.0002 22.75C19.776 22.75 18.8183 22.9421 18.1495 23.1887C17.8154 23.312 17.572 23.4419 17.4087 23.5533C17.2555 23.6578 17.2049 23.7236 17.2046 23.7233Z" fill="#027FC2"/>
<path fill-rule="evenodd" clip-rule="evenodd" d="M0 28.125C0 27.5727 0.447715 27.125 1 27.125H41C41.5523 27.125 42 27.5727 42 28.125V47.125C42 47.6773 41.5523 48.125 41 48.125H1C0.447716 48.125 0 47.6773 0 47.125V28.125ZM7.8749 43.7514C7.8749 45.5014 9.6249 45.5014 9.6249 45.5014C9.6249 45.5014 11.3749 45.5014 11.3749 43.7514H7.8749ZM22.7499 32.375C21.7834 32.375 20.9999 33.1585 20.9999 34.125C20.9999 35.0915 21.7834 35.875 22.7499 35.875H38.4999C39.4664 35.875 40.2499 35.0915 40.2499 34.125C40.2499 33.1585 39.4664 32.375 38.4999 32.375H22.7499ZM20.9999 41.1257C20.9999 40.1592 21.7834 39.3757 22.7499 39.3757H33.2499C34.2164 39.3757 34.9999 40.1592 34.9999 41.1257C34.9999 42.0922 34.2164 42.8757 33.2499 42.8757H22.7499C21.7834 42.8757 20.9999 42.0922 20.9999 41.1257ZM7.87491 30.75V32.6885C4.7344 33.9032 3.68648 38.4042 3.52297 41.8766C3.49699 42.4283 3.94695 42.875 4.49924 42.875H14.7492C15.3015 42.875 15.7515 42.4283 15.7255 41.8766C15.562 38.4047 14.5144 33.9045 11.3749 32.689V30.75C11.3749 30.1977 10.9272 29.75 10.3749 29.75H8.8749C8.32262 29.75 7.87491 30.1977 7.87491 30.75Z" fill="#51BCF4"/>
</svg>
