<svg width="48" height="48" viewBox="0 0 48 48" fill="none" xmlns="http://www.w3.org/2000/svg">
<path fill-rule="evenodd" clip-rule="evenodd" d="M23.5004 1.65039C19.6375 1.65039 16.4886 4.71157 16.3073 8.55163H5.56962L5.33136 8.56778L5.31955 8.56939C4.37487 8.69847 3.65039 9.51252 3.65039 10.4942V10.5059L3.66639 10.7454L3.66796 10.757C3.79546 11.7038 4.60149 12.4368 5.58147 12.4368H6.93994L9.60969 39.7666L9.65875 40.1473L9.66051 40.1582C10.1403 43.1302 12.6953 45.3504 15.7276 45.3504H23.9151L23.3521 44.759C22.4762 43.8391 21.7287 42.7947 21.1388 41.6546L21.0409 41.4654L15.7365 41.4652L15.4867 41.4525C14.4223 41.3399 13.5609 40.4863 13.4535 39.3868L10.8202 12.4368H36.1786L35.2295 22.1775L35.5417 22.2384C36.59 22.4429 37.5944 22.771 38.5397 23.2071L38.9868 23.4133L40.0587 12.4368H41.4312L41.6695 12.4207L41.6813 12.419C42.6258 12.29 43.3504 11.4759 43.3504 10.4942C43.3504 9.42376 42.4882 8.55163 41.4193 8.55163H30.6923L30.691 8.50041L30.6905 8.49059C30.4786 4.67912 27.3427 1.65039 23.5004 1.65039ZM23.5004 5.53558C21.7755 5.53558 20.3526 6.85523 20.179 8.55163H26.8218C26.648 6.85518 25.2252 5.53558 23.5004 5.53558Z" fill="#027FC2"/>
<path fill-rule="evenodd" clip-rule="evenodd" d="M33.5 24C39.8513 24 45 29.1487 45 35.5C45 41.8513 39.8513 47 33.5 47C27.1487 47 22 41.8513 22 35.5C22 29.1487 27.1487 24 33.5 24ZM35.6213 35.3791L39.9396 31.0609C40.5254 30.4751 40.5254 29.5254 39.9396 28.9396C39.3538 28.3538 38.404 28.3538 37.8182 28.9396L33.5 33.2578L29.1818 28.9396C28.596 28.3538 27.6462 28.3538 27.0604 28.9396C26.4746 29.5254 26.4746 30.4751 27.0604 31.0609L31.3787 35.3791L26.9396 39.8182C26.3538 40.404 26.3538 41.3538 26.9396 41.9396C27.5254 42.5254 28.4751 42.5254 29.0609 41.9396L33.5 37.5005L37.9391 41.9396C38.5249 42.5254 39.4746 42.5254 40.0604 41.9396C40.6462 41.3538 40.6462 40.404 40.0604 39.8182L35.6213 35.3791Z" fill="#51BCF4"/>
</svg>
