<svg width="48" height="48" viewBox="0 0 48 48" fill="none" xmlns="http://www.w3.org/2000/svg">
<path fill-rule="evenodd" clip-rule="evenodd" d="M10.8055 36.6853C16.221 36.6853 20.611 32.2952 20.611 26.8797C20.611 21.4643 16.221 17.0742 10.8055 17.0742C5.39008 17.0742 1 21.4643 1 26.8797C1 32.2952 5.39008 36.6853 10.8055 36.6853ZM16.9994 24.6151C17.5536 23.9026 17.4252 22.8758 16.7128 22.3217C16.0003 21.7676 14.9736 21.8959 14.4194 22.6084L9.76375 28.5942L6.98141 26.1543C6.3028 25.5593 5.27027 25.627 4.67518 26.3056C4.08009 26.9842 4.1478 28.0167 4.82641 28.6118L8.91204 32.1946C9.25047 32.4914 9.69633 32.6354 10.1444 32.5928C10.5925 32.5501 11.0032 32.3245 11.2795 31.9692L16.9994 24.6151Z" fill="#027FC2"/>
<path fill-rule="evenodd" clip-rule="evenodd" d="M20.6103 4C18.8052 4 17.3418 5.46336 17.3418 7.26851V41.5878C17.3418 43.393 18.8052 44.8563 20.6103 44.8563H43.4899C45.295 44.8563 46.7584 43.393 46.7584 41.5878V14.3338L35.9752 4H20.6103ZM20.6103 7.26851L33.6843 7.26851V13.397C33.6843 15.2021 35.1477 16.6655 36.9528 16.6655H43.4899V41.5878H20.6103V7.26851ZM36.9548 9.46582L36.9528 9.46396V13.397H36.9548V9.46582Z" fill="#51BCF4"/>
<path fill-rule="evenodd" clip-rule="evenodd" d="M23.8809 21.9761C23.8809 21.0735 24.6125 20.3418 25.5151 20.3418H38.5891C39.4917 20.3418 40.2234 21.0735 40.2234 21.9761C40.2234 22.8786 39.4917 23.6103 38.5891 23.6103H25.5151C24.6125 23.6103 23.8809 22.8786 23.8809 21.9761Z" fill="#51BCF4"/>
<path fill-rule="evenodd" clip-rule="evenodd" d="M23.8809 28.5151C23.8809 27.6125 24.6125 26.8809 25.5151 26.8809H38.5891C39.4917 26.8809 40.2234 27.6125 40.2234 28.5151C40.2234 29.4177 39.4917 30.1494 38.5891 30.1494H25.5151C24.6125 30.1494 23.8809 29.4177 23.8809 28.5151Z" fill="#51BCF4"/>
<path fill-rule="evenodd" clip-rule="evenodd" d="M23.8809 35.0493C23.8809 34.1467 24.6125 33.415 25.5151 33.415H38.5891C39.4917 33.415 40.2234 34.1467 40.2234 35.0493C40.2234 35.9519 39.4917 36.6835 38.5891 36.6835H25.5151C24.6125 36.6835 23.8809 35.9519 23.8809 35.0493Z" fill="#51BCF4"/>
</svg>
