<svg width="48" height="48" viewBox="0 0 48 48" fill="none" xmlns="http://www.w3.org/2000/svg">
<rect y="4" width="39" height="39" rx="5" fill="#51BCF4"/>
<path d="M29.5008 11.3139C29.5008 9.98017 30.6089 8.89893 31.9758 8.89893H43.5258C44.8926 8.89893 46.0008 9.98017 46.0008 11.3139V22.584C46.0008 23.9177 44.8926 24.999 43.5258 24.999C42.1589 24.999 41.0508 23.9177 41.0508 22.584V17.1442L27.9508 29.9266C27.4868 30.3796 26.8571 30.634 26.2008 30.634C25.5444 30.634 24.9148 30.3796 24.4505 29.9266L19.6008 25.1944L12.2759 32.3416C11.3093 33.2847 9.74222 33.2847 8.77568 32.3416C7.80915 31.3984 7.80915 29.8696 8.77568 28.9264L17.8507 20.0713C18.3148 19.6184 18.9444 19.364 19.6008 19.364C20.2572 19.364 20.8867 19.6184 21.3509 20.0713L26.2008 24.8037L37.5505 13.7289H31.9758C30.6089 13.7289 29.5008 12.6477 29.5008 11.3139Z" fill="#027FC2"/>
</svg>
