<svg width="566" height="405" viewBox="0 0 566 405" fill="none" xmlns="http://www.w3.org/2000/svg">
<path fill-rule="evenodd" clip-rule="evenodd" d="M504.35 103.835C466.559 71.3333 405.664 69.6702 352.629 55.8594C306.083 43.7386 261.824 21.2109 213.559 28.1112C164.553 35.1175 127.543 64.5948 92.9562 92.9842C57.1221 122.397 23.7076 154.071 11.7139 193.788C-1.46553 237.431 -9.20006 287.857 22.9731 324.732C54.6704 361.062 119.21 363.252 172.02 377.523C219.341 390.311 264.627 404.722 314.641 403.552C373.961 402.164 437.518 400.273 483.216 370.242C531.932 338.228 561.378 288.774 565.342 238.802C569.223 189.884 546.241 139.864 504.35 103.835Z" fill="white"/>
<g clip-path="url(#clip0_5145_45045)">
<path d="M346.143 105.212C342.052 113.736 334.525 120.082 326.641 125.247C318.278 130.706 309.287 135.125 299.865 138.407C298.569 138.864 297.259 139.301 295.95 139.712H239.882C239.519 139.294 239.169 138.857 238.832 138.407C235.311 133.725 233.425 127.797 234.131 121.986C235.059 114.369 240.809 107.364 248.271 105.741C255.734 104.123 264.24 108.604 266.502 115.934C267.754 101.802 269.193 87.0758 276.662 75.037C283.424 64.1394 295.146 56.3396 307.84 54.9439C315.306 54.1617 322.839 55.5491 329.546 58.9416C330.162 59.2547 330.771 59.5807 331.368 59.9199C335.392 62.2154 338.944 65.2635 341.832 68.9001C349.748 78.9825 351.686 93.6365 346.143 105.212Z" fill="#76CFFF"/>
<path d="M331.369 59.9197C331.385 60.0908 331.356 60.2632 331.285 60.4198C331.215 60.5764 331.105 60.712 330.967 60.8132C305.574 81.6134 285.491 108.217 272.391 138.407C272.196 138.837 272.008 139.274 271.826 139.711H269.246C269.427 139.274 269.609 138.837 269.797 138.407C272.254 132.642 274.971 126.994 277.947 121.464C284.387 109.524 291.965 98.2406 300.573 87.7734C309.181 77.2935 318.794 67.6929 329.275 59.111C329.358 59.0429 329.45 58.9859 329.547 58.9415C329.729 58.8625 329.927 58.8258 330.125 58.8342C330.323 58.8425 330.517 58.8956 330.692 58.9896C330.867 59.0836 331.019 59.216 331.136 59.377C331.253 59.538 331.333 59.7235 331.369 59.9197Z" fill="white"/>
<path d="M411.98 163.212C420.775 163.212 427.904 156.041 427.904 147.194C427.904 138.348 420.775 131.177 411.98 131.177C403.186 131.177 396.057 138.348 396.057 147.194C396.057 156.041 403.186 163.212 411.98 163.212Z" fill="#FFB8B8"/>
<path d="M472.334 370.589H324.516C324.344 370.589 324.179 370.521 324.057 370.398C323.936 370.276 323.867 370.11 323.867 369.937C323.867 369.764 323.936 369.598 324.057 369.476C324.179 369.354 324.344 369.285 324.516 369.285H472.334C472.506 369.285 472.671 369.354 472.793 369.476C472.914 369.598 472.983 369.764 472.983 369.937C472.983 370.11 472.914 370.276 472.793 370.398C472.671 370.521 472.506 370.589 472.334 370.589Z" fill="#3F3D56"/>
<path d="M115.476 137.228C114.451 137.229 113.468 137.639 112.743 138.368C112.018 139.097 111.611 140.086 111.609 141.117V261.054C111.611 262.085 112.018 263.074 112.743 263.803C113.468 264.532 114.451 264.943 115.476 264.944H337.305C338.33 264.943 339.313 264.532 340.038 263.803C340.763 263.074 341.17 262.085 341.172 261.054V141.117C341.17 140.086 340.763 139.097 340.038 138.368C339.313 137.639 338.33 137.229 337.305 137.228H115.476Z" fill="#027FC2"/>
<path d="M337.304 273.03H115.476C112.32 273.026 109.294 271.763 107.063 269.519C104.831 267.274 103.576 264.23 103.572 261.056V141.119C103.576 137.945 104.831 134.901 107.063 132.657C109.294 130.412 112.32 129.149 115.476 129.146H337.304C340.46 129.149 343.485 130.412 345.717 132.657C347.949 134.901 349.204 137.945 349.207 141.119V261.056C349.204 264.23 347.949 267.274 345.717 269.519C343.486 271.763 340.46 273.026 337.304 273.03ZM115.476 130.389C112.648 130.392 109.936 131.524 107.936 133.536C105.937 135.547 104.812 138.274 104.809 141.119V261.056C104.812 263.901 105.937 266.628 107.936 268.64C109.936 270.651 112.648 271.783 115.476 271.786H337.304C340.132 271.783 342.843 270.651 344.843 268.64C346.843 266.628 347.968 263.901 347.971 261.056V141.119C347.968 138.274 346.843 135.547 344.843 133.536C342.843 131.524 340.132 130.392 337.304 130.389H115.476Z" fill="#00527D"/>
<path d="M312.041 206.935H135.811C134.393 206.933 133.01 206.491 131.85 205.669C130.691 204.846 129.812 203.684 129.334 202.341L106.8 138.745C106.43 137.702 106.315 136.585 106.463 135.488C106.612 134.391 107.021 133.346 107.654 132.44C108.288 131.535 109.129 130.796 110.105 130.285C111.082 129.775 112.166 129.507 113.267 129.506L339.275 129.156C340.361 129.155 341.433 129.412 342.401 129.908C343.369 130.403 344.207 131.122 344.846 132.006C345.485 132.89 345.907 133.913 346.077 134.993C346.246 136.072 346.16 137.176 345.823 138.215L345.849 138.226L318.361 202.743C317.832 203.988 316.95 205.049 315.827 205.794C314.703 206.54 313.386 206.936 312.041 206.935ZM339.285 130.4L113.269 130.749C112.366 130.751 111.477 130.97 110.676 131.389C109.875 131.808 109.185 132.414 108.665 133.156C108.146 133.899 107.811 134.756 107.689 135.656C107.567 136.556 107.661 137.472 107.964 138.327L130.499 201.923C130.891 203.025 131.612 203.978 132.562 204.653C133.513 205.327 134.648 205.69 135.811 205.692H312.041C313.144 205.692 314.224 205.367 315.146 204.756C316.068 204.144 316.79 203.274 317.224 202.253L344.469 138.308L344.696 138.406L344.469 138.308C344.836 137.445 344.985 136.504 344.902 135.569C344.819 134.634 344.507 133.734 343.993 132.95C343.479 132.166 342.78 131.523 341.958 131.078C341.137 130.633 340.218 130.4 339.285 130.4Z" fill="#00527D"/>
<path d="M241.983 206.315C241.983 210.475 240.34 214.464 237.416 217.405C234.492 220.346 230.527 221.998 226.392 221.998C222.257 221.998 218.291 220.346 215.367 217.405C212.443 214.464 210.801 210.475 210.801 206.315" fill="#00527D"/>
<path d="M421.401 252.12C422.254 251.56 422.975 250.82 423.512 249.95C424.05 249.08 424.392 248.102 424.513 247.086C424.634 246.069 424.533 245.037 424.215 244.064C423.897 243.091 423.371 242.2 422.674 241.453L426.546 195.013L415.456 196.24L412.418 241.44C411.249 242.701 410.58 244.35 410.539 246.073C410.498 247.797 411.087 249.477 412.194 250.793C413.301 252.11 414.85 252.972 416.547 253.216C418.244 253.461 419.971 253.07 421.401 252.12Z" fill="#FFB8B8"/>
<path d="M381.931 362.889L373.982 362.888L370.201 332.049L381.932 332.049L381.931 362.889Z" fill="#FFB8B8"/>
<path d="M368.304 360.604H383.633V370.312H358.652C358.652 369.037 358.902 367.775 359.387 366.597C359.872 365.419 360.583 364.349 361.479 363.447C362.375 362.546 363.439 361.83 364.61 361.343C365.781 360.855 367.036 360.604 368.304 360.604Z" fill="#1D4C66"/>
<path d="M438.335 362.889L430.387 362.888L426.605 332.049L438.336 332.049L438.335 362.889Z" fill="#FFB8B8"/>
<path d="M424.71 360.604H440.039V370.312H415.059C415.059 367.737 416.075 365.268 417.885 363.447C419.695 361.626 422.15 360.604 424.71 360.604Z" fill="#1D4C66"/>
<path d="M382.065 343.789C381.979 343.789 381.892 343.785 381.805 343.778L370.556 342.873C370.109 342.837 369.675 342.708 369.281 342.495C368.886 342.282 368.54 341.989 368.264 341.635C367.987 341.281 367.787 340.873 367.675 340.437C367.563 340.001 367.542 339.546 367.614 339.102L384.67 232.982L385.813 218.015C385.863 217.315 386.138 216.651 386.596 216.121C387.054 215.592 387.67 215.226 388.352 215.079L405.507 211.305C406.138 211.163 406.796 211.215 407.397 211.455C407.998 211.694 408.513 212.11 408.876 212.648L413.059 218.799C414.701 221.19 416.486 223.478 418.404 225.652C421.372 229.052 426.418 236.602 426.871 248.957C426.993 253.016 427.412 257.06 428.125 261.057L441.937 335.899C442.006 336.338 441.986 336.787 441.878 337.217C441.769 337.648 441.574 338.052 441.304 338.404C441.035 338.756 440.696 339.049 440.31 339.265C439.924 339.481 439.498 339.615 439.058 339.659L428.394 340.472C427.632 340.547 426.867 340.347 426.237 339.908C425.607 339.468 425.153 338.817 424.957 338.072L406.041 267.312C406.004 267.173 405.922 267.051 405.809 266.963C405.696 266.876 405.557 266.829 405.414 266.829C405.271 266.829 405.132 266.877 405.019 266.965C404.906 267.052 404.825 267.175 404.788 267.314L385.196 341.367C385.012 342.061 384.605 342.674 384.039 343.112C383.473 343.55 382.779 343.788 382.065 343.789Z" fill="#1D4C66"/>
<path d="M384.99 220.422L384.66 197.548C383.448 182.919 389.888 175.238 395.505 171.374C396.954 170.39 398.586 169.712 400.303 169.382C402.019 169.052 403.785 169.075 405.492 169.451L418.024 172.176C419.769 172.559 421.419 173.293 422.873 174.335C424.328 175.377 425.558 176.705 426.488 178.239C427.377 179.686 427.961 181.302 428.203 182.986C428.446 184.669 428.341 186.385 427.896 188.027C427.025 191.099 425.095 193.758 422.45 195.528C411.682 203.174 410.924 216.018 410.917 216.147L410.904 216.413L384.99 220.422Z" fill="#027FC2"/>
<path d="M424.209 203.413H413.187C412.414 203.412 411.672 203.103 411.125 202.553C410.578 202.003 410.27 201.257 410.27 200.478V181.24C410.27 178.991 411.157 176.835 412.738 175.245C414.319 173.655 416.462 172.762 418.698 172.762C420.933 172.762 423.077 173.655 424.657 175.245C426.238 176.835 427.126 178.991 427.126 181.24V200.478C427.125 201.257 426.818 202.003 426.271 202.553C425.724 203.103 424.982 203.412 424.209 203.413Z" fill="#027FC2"/>
<path d="M350.211 207.048C349.561 207.827 348.755 208.46 347.846 208.903C346.936 209.347 345.943 209.591 344.932 209.621C343.922 209.65 342.917 209.464 341.983 209.074C341.049 208.684 340.208 208.1 339.515 207.359C333.235 200.734 343.501 190.786 349.805 197.425C350.027 197.654 350.234 197.898 350.423 198.156L382.209 197.361L386.003 190.381L397.663 194.935C395.425 198.427 392.854 212.132 386.999 211.465C386.232 211.486 350.996 207.104 350.211 207.048Z" fill="#FFB8B8"/>
<path d="M392.732 201.767L383.846 195.207C383.223 194.746 382.807 194.055 382.69 193.286C382.573 192.517 382.763 191.733 383.22 191.105L394.536 175.595C395.191 174.697 396.015 173.938 396.962 173.361C397.908 172.784 398.958 172.4 400.052 172.231C401.146 172.062 402.263 172.112 403.338 172.377C404.413 172.642 405.425 173.117 406.318 173.776C407.21 174.435 407.964 175.264 408.538 176.216C409.112 177.168 409.494 178.224 409.662 179.325C409.83 180.425 409.78 181.548 409.517 182.629C409.253 183.711 408.781 184.729 408.126 185.627L396.81 201.137C396.352 201.764 395.665 202.182 394.9 202.3C394.136 202.418 393.356 202.226 392.732 201.767Z" fill="#027FC2"/>
<path d="M415.169 155.52C415.683 154.441 415.861 153.232 415.681 152.05C415.5 150.868 414.969 149.768 414.158 148.895C411.162 145.856 406.482 147.883 402.433 147.585C395.69 147.09 391.097 139.001 393.11 132.508C395.123 126.015 402.279 121.986 409.027 122.413C415.775 122.84 421.884 127.039 425.952 132.472C428.735 127.965 435.575 127.44 439.989 130.345C444.403 133.25 446.687 138.56 447.631 143.78C448.574 149.001 448.42 154.366 449.215 159.611C451.142 172.326 459.3 184.3 471.105 189.242C482.909 194.185 498.015 191.008 505.738 180.757C507.24 193.18 504.606 205.753 498.247 216.509C491.889 227.266 482.166 235.599 470.598 240.204C464.201 242.751 457.137 244.103 450.402 242.688C439.53 240.402 431.073 231.049 427.388 220.509C423.702 209.97 424.144 198.405 425.934 187.378C427.036 180.586 428.257 172.543 423.333 167.766C421.95 166.608 420.324 165.783 418.577 165.354C417.651 165.074 416.8 164.585 416.09 163.924C415.38 163.263 414.829 162.448 414.48 161.541C414.13 160.634 413.991 159.659 414.074 158.689C414.156 157.72 414.457 156.782 414.954 155.947C415.033 155.805 415.105 155.663 415.169 155.52Z" fill="#061821"/>
</g>
<defs>
<clipPath id="clip0_5145_45045">
<rect width="433.034" height="370.589" fill="white" transform="translate(73.1074)"/>
</clipPath>
</defs>
</svg>
