<svg width="566" height="380" viewBox="0 0 566 380" fill="none" xmlns="http://www.w3.org/2000/svg">
<path fill-rule="evenodd" clip-rule="evenodd" d="M61.3043 77.853C99.0854 45.1007 160.032 43.3446 213.096 29.3771C259.667 17.1187 303.935 -5.60705 352.252 1.26977C401.311 8.25221 438.394 37.8596 473.049 66.3756C508.955 95.9198 542.441 127.742 554.499 167.686C567.748 211.578 575.557 262.302 543.405 299.447C511.728 336.042 447.134 338.333 394.296 352.763C346.95 365.694 301.643 380.255 251.583 379.146C192.208 377.83 128.592 376.014 82.8135 345.861C34.0116 313.718 4.47301 264.001 0.438365 213.729C-3.51119 164.517 19.4237 114.159 61.3043 77.853Z" fill="white"/>
<g clip-path="url(#clip0_5145_44510)">
<path d="M114.154 314.766C119.293 324.38 130.199 328.507 130.199 328.507C130.199 328.507 132.773 317.047 127.635 307.433C122.496 297.819 111.59 293.692 111.59 293.692C111.59 293.692 109.016 305.152 114.154 314.766Z" fill="#027FC2"/>
<path d="M117.687 311.604C126.964 317.235 130.537 328.419 130.537 328.419C130.537 328.419 119.069 330.474 109.792 324.843C100.514 319.212 96.9414 308.028 96.9414 308.028C96.9414 308.028 108.41 305.973 117.687 311.604Z" fill="#76CFFF"/>
<path d="M338.913 64.9922H338.086V72.7086H338.913V64.9922Z" fill="#AFDD44"/>
<path d="M390.594 83.7607H389.768V91.4772H390.594V83.7607Z" fill="#AFDD44"/>
<path d="M384.807 277.299H383.98V285.015H384.807V277.299Z" fill="#AFDD44"/>
<path d="M396.796 213.48H395.969V221.197H396.796V213.48Z" fill="#AFDD44"/>
<path d="M246.636 310.364H148.736V309.654H245.931V275.192H156.966L152.645 266.109L153.28 265.802L157.41 274.482H246.636V310.364Z" fill="#2F2E41"/>
<path d="M161.766 327.772C165.851 327.772 169.162 324.432 169.162 320.311C169.162 316.191 165.851 312.851 161.766 312.851C157.682 312.851 154.371 316.191 154.371 320.311C154.371 324.432 157.682 327.772 161.766 327.772Z" fill="#3F3D56"/>
<path d="M234.663 327.772C238.747 327.772 242.058 324.432 242.058 320.311C242.058 316.191 238.747 312.851 234.663 312.851C230.579 312.851 227.268 316.191 227.268 320.311C227.268 324.432 230.579 327.772 234.663 327.772Z" fill="#3F3D56"/>
<path d="M320.59 166.481C323.118 166.481 325.168 164.413 325.168 161.863C325.168 159.312 323.118 157.244 320.59 157.244C318.061 157.244 316.012 159.312 316.012 161.863C316.012 164.413 318.061 166.481 320.59 166.481Z" fill="#3F3D56"/>
<path d="M257.107 263.469H147.068L123.258 184.955H281.628L281.484 185.417L257.107 263.469ZM147.589 262.759H256.591L280.668 185.666H124.21L147.589 262.759Z" fill="#2F2E41"/>
<path d="M248.516 259.384H151.864L130.951 189.751H270.053L269.927 190.161L248.516 259.384Z" fill="#027FC2"/>
<path d="M283.601 177.941L282.92 177.758L287.568 160.086H314.603V160.797H288.11L283.601 177.941Z" fill="#2F2E41"/>
<path d="M273.713 208.757H130.951V209.467H273.713V208.757Z" fill="#2F2E41"/>
<path d="M265.539 234.936H138.891V235.646H265.539V234.936Z" fill="#2F2E41"/>
<path d="M202.792 185.31H202.088V263.113H202.792V185.31Z" fill="#2F2E41"/>
<path d="M234.325 185.287L229.27 263.089L229.972 263.135L235.028 185.334L234.325 185.287Z" fill="#2F2E41"/>
<path d="M170.568 185.286L169.865 185.332L174.892 263.136L175.595 263.09L170.568 185.286Z" fill="#2F2E41"/>
<path d="M467.394 328.224H96.9414V329.058H467.394V328.224Z" fill="#2F2E41"/>
<path d="M343.115 43.2892C343.115 43.2892 349.159 60.6433 345.44 63.3132C341.72 65.9831 357.993 87.787 357.993 87.787L377.52 82.4473L366.826 64.2031C366.826 64.2031 365.432 45.959 365.432 43.2891C365.432 40.6193 343.115 43.2892 343.115 43.2892Z" fill="#A0616A"/>
<path opacity="0.76" d="M343.115 43.2892C343.115 43.2892 349.159 60.6433 345.44 63.3132C341.72 65.9831 357.993 87.787 357.993 87.787L377.52 82.4473L366.826 64.2031C366.826 64.2031 365.432 45.959 365.432 43.2891C365.432 40.6193 343.115 43.2892 343.115 43.2892Z" fill="#FDA893"/>
<path d="M332.97 166.994C332.97 166.994 331.205 189.243 332.97 200.812C334.734 212.382 337.381 244.42 337.381 244.42C337.381 244.42 337.381 304.937 347.084 305.827C356.788 306.717 363.845 307.607 364.728 304.047C365.61 300.487 360.317 298.707 362.963 296.928C365.61 295.148 366.492 288.918 362.963 281.798C359.435 274.679 362.963 202.592 362.963 202.592L379.724 247.98C379.724 247.98 381.489 285.358 383.253 290.698C385.017 296.038 381.489 305.827 387.664 306.717C393.839 307.607 400.896 302.267 404.425 300.487C407.954 298.707 399.132 298.707 400.896 297.817C402.661 296.928 407.954 294.258 406.189 293.368C404.425 292.478 402.661 249.76 402.661 249.76C402.661 249.76 397.809 158.539 391.634 154.979C385.458 151.42 381.489 157.551 381.489 157.551L332.97 166.994Z" fill="#044568"/>
<path d="M348.849 302.267V309.386C348.849 309.386 340.909 328.74 348.849 328.74C356.788 328.74 362.964 330.745 362.964 328.075V304.047L348.849 302.267Z" fill="#041F2E"/>
<path d="M400.898 302.255V309.375C400.898 309.375 408.837 328.728 400.898 328.728C392.958 328.728 386.783 330.734 386.783 328.064V304.035L400.898 302.255Z" fill="#041F2E"/>
<path d="M355.465 56.1937C364.235 56.1937 371.344 49.0217 371.344 40.1745C371.344 31.3273 364.235 24.1553 355.465 24.1553C346.695 24.1553 339.586 31.3273 339.586 40.1745C339.586 49.0217 346.695 56.1937 355.465 56.1937Z" fill="#FDA893"/>
<path d="M350.614 69.9883C350.614 69.9883 355.025 83.3376 362.082 80.6678L369.139 77.9979L381.49 163.434C381.49 163.434 371.786 177.673 357.671 168.773C343.557 159.874 350.614 69.9883 350.614 69.9883Z" fill="#027FC2"/>
<path d="M362.963 67.3179L366.933 58.8633C366.933 58.8633 390.31 69.9877 393.839 73.5476C397.367 77.1074 397.367 82.4471 397.367 82.4471L391.192 104.696C391.192 104.696 392.956 153.644 392.956 155.424C392.956 157.204 399.132 166.993 394.721 163.433C390.31 159.873 389.428 156.314 385.899 161.653C382.371 166.993 374.431 173.223 374.431 173.223L362.963 67.3179Z" fill="#76CFFF"/>
<path d="M393.839 131.395L391.192 156.313C391.192 156.313 375.313 170.553 378.842 171.443C382.37 172.333 384.135 168.773 384.135 168.773C384.135 168.773 390.31 175.002 393.839 171.443C397.367 167.883 406.189 134.064 406.189 134.064L393.839 131.395Z" fill="#FDA893"/>
<path d="M355.803 17.5346C352.283 17.4077 348.516 17.3449 345.548 19.2586C344.182 20.219 342.984 21.4019 342.003 22.7588C339.113 26.4453 336.615 31.0839 337.689 35.6579L338.936 35.1672C338.936 36.3881 338.667 37.5938 338.148 38.697C338.324 38.1818 338.912 39.0146 338.755 39.5357L337.381 44.0824C339.639 43.2472 342.448 44.9383 342.792 47.3399C342.949 42.0588 343.492 36.0031 347.739 32.9109C349.88 31.3514 352.59 30.8754 355.198 30.4527C357.604 30.0627 360.125 29.6908 362.43 30.4897C364.734 31.2887 366.696 33.666 366.174 36.0668C367.236 35.6976 368.424 36.4446 368.949 37.4468C369.474 38.4491 369.502 39.6314 369.518 40.7649C370.65 41.5723 371.939 39.969 372.401 38.6497C373.484 35.553 374.447 32.2566 373.863 29.0259C373.28 25.7951 370.67 22.7077 367.415 22.6967C367.81 22.2589 368.021 21.6832 368.003 21.0914L365.32 20.8627C366.001 20.7654 366.627 20.4322 367.092 19.9202C366.014 21.116 357.545 17.5975 355.803 17.5346Z" fill="#2F2E41"/>
<path d="M355.026 64.6476C355.026 64.6476 347.844 57.5482 345.26 57.9831C342.675 58.4179 339.147 64.6476 339.147 64.6476C339.147 64.6476 317.975 71.7673 318.857 78.887C319.739 86.0066 329.443 120.715 329.443 120.715C329.443 120.715 337.382 162.543 330.325 166.993C323.268 171.442 363.847 183.012 364.729 177.672C365.612 172.332 367.376 118.935 364.729 110.925C362.083 102.916 355.026 64.6476 355.026 64.6476Z" fill="#76CFFF"/>
<path d="M385.9 78.8877H396.808C396.808 78.8877 404.426 112.706 405.308 116.266C406.19 119.826 407.954 136.735 407.072 136.735C406.19 136.735 388.547 133.175 388.547 135.845L385.9 78.8877Z" fill="#76CFFF"/>
<path d="M385.532 162.633H343.773C339.698 143.721 339.358 125.449 343.773 107.992H385.532C378.793 125.135 378.372 143.282 385.532 162.633Z" fill="#027FC2"/>
<path d="M326.795 139.405L339.145 144.744C339.145 144.744 362.964 148.304 362.964 138.515C362.964 128.725 339.145 134.065 339.145 134.065L331.205 131.504L326.795 139.405Z" fill="#FDA893"/>
<path d="M329.442 73.5488L318.856 76.2187L310.916 123.386C310.916 123.386 308.27 135.846 312.681 136.736C317.091 137.626 329.442 144.745 329.442 144.745C329.442 144.745 331.206 131.396 334.735 131.396L325.913 124.276L331.206 93.1279L329.442 73.5488Z" fill="#76CFFF"/>
</g>
<defs>
<clipPath id="clip0_5145_44510">
<rect width="370.453" height="311.982" fill="white" transform="translate(96.9414 17.4805)"/>
</clipPath>
</defs>
</svg>
