<svg width="48" height="46" viewBox="0 0 48 46" fill="none" xmlns="http://www.w3.org/2000/svg">
<path d="M45.8822 19.7199C45.8822 20.4234 45.781 21.1157 45.5787 21.7857C46.5228 23.0251 47.0454 24.5438 47.0454 26.1238C47.0454 28.6307 45.6349 31.0091 43.3647 32.3212C42.7803 32.6617 42.1172 32.8404 41.4373 32.8404H27.9565L28.2937 39.7022C28.378 41.3604 27.788 42.9348 26.636 44.1352C25.484 45.3412 23.9275 46 22.2586 46C19.3365 46 16.7516 44.0459 15.9762 41.2487L10 26H14L19.876 40.1767C20.0216 40.6918 20.3315 41.146 20.7591 41.4712C21.1867 41.7963 21.7089 41.9749 22.2473 41.9801C22.6688 41.9857 23.0902 41.8573 23.433 41.606C23.9893 41.1929 24.2871 40.5676 24.2534 39.9031L23.714 28.8261H41.3811C42.3813 28.2175 42.9995 27.1902 42.9995 26.1238C43.0002 25.6685 42.9022 25.2184 42.7122 24.8041C42.5221 24.3898 42.2445 24.0211 41.8981 23.723L40.6674 22.6622L41.4541 21.2385C41.7126 20.7695 41.8419 20.2559 41.8419 19.7143C41.8426 19.259 41.7447 18.8089 41.5546 18.3946C41.3645 17.9803 41.0869 17.6116 40.7405 17.3135L39.5099 16.2527L40.2909 14.8346C40.5494 14.3656 40.6787 13.852 40.6787 13.3104C40.6794 12.8551 40.5815 12.405 40.3914 11.9907C40.2014 11.5764 39.9237 11.2077 39.5773 10.9096L38.3467 9.8488L39.1277 8.43067C39.3862 7.96168 39.5155 7.44803 39.5155 6.90646C39.5146 6.29491 39.336 5.69662 39.001 5.18355C38.6661 4.67048 38.1891 4.26447 37.6274 4.01436H16V4.62545e-05H37.6667C38.1787 -0.00250049 38.6857 0.100145 39.1558 0.301539C41.8306 1.43493 43.5558 4.03111 43.5558 6.91204C43.5558 7.61553 43.4546 8.30784 43.2523 8.97783C44.1964 10.2173 44.719 11.7359 44.719 13.316C44.719 14.0195 44.6178 14.7118 44.4155 15.3818C45.3596 16.6212 45.8822 18.1399 45.8822 19.7199Z" fill="#027FC2"/>
<path d="M2 4C2 2.89543 2.89543 2 4 2H12V22H4C2.89543 22 2 21.1046 2 20V4Z" fill="#51BCF4" stroke="#51BCF4" stroke-width="4"/>
</svg>
