<svg width="565" height="383" viewBox="0 0 565 383" fill="none" xmlns="http://www.w3.org/2000/svg">
<path fill-rule="evenodd" clip-rule="evenodd" d="M61.196 80.2214C98.9104 47.3142 159.749 45.5497 212.719 31.5161C259.208 19.1997 303.398 -3.63359 351.63 3.27578C400.602 10.2913 437.619 40.0388 472.214 68.6898C508.055 98.3738 541.483 130.346 553.519 170.479C566.745 214.579 574.54 265.544 542.445 302.864C510.824 339.632 446.344 341.934 393.599 356.433C346.337 369.424 301.11 384.055 251.138 382.94C191.869 381.618 128.365 379.793 82.6672 349.498C33.9515 317.202 4.46511 267.251 0.437591 216.74C-3.50498 167.295 19.3894 116.699 61.196 80.2214Z" fill="white"/>
<g clip-path="url(#clip0_5145_45003)">
<path d="M507.143 371.602C507.144 371.7 507.124 371.798 507.087 371.889C507.049 371.98 506.994 372.063 506.924 372.133C506.854 372.203 506.771 372.258 506.68 372.296C506.588 372.333 506.49 372.352 506.392 372.352H329.371C329.171 372.352 328.98 372.273 328.839 372.132C328.698 371.992 328.619 371.801 328.619 371.602C328.619 371.403 328.698 371.212 328.839 371.071C328.98 370.931 329.171 370.852 329.371 370.852H506.392C506.49 370.851 506.588 370.87 506.68 370.908C506.771 370.946 506.854 371.001 506.924 371.071C506.994 371.14 507.049 371.223 507.087 371.314C507.124 371.406 507.144 371.503 507.143 371.602Z" fill="#027FC2"/>
<path d="M101.518 126.886L80.9683 115.332C80.6911 102.97 83.441 90.7273 88.9791 79.667C93.717 101.134 118.651 111.347 130.155 130.09C133.698 135.963 135.872 142.557 136.515 149.383C137.158 156.209 136.255 163.092 133.871 169.522L135.223 186.165C124.602 182.99 114.797 177.553 106.483 170.231C98.1698 162.908 91.5453 153.873 87.0664 143.749C84.6101 138.044 82.8832 132.053 81.9265 125.918C91.5077 126.936 101.518 126.886 101.518 126.886Z" fill="#76CFFF"/>
<path d="M470.935 337.091L471.565 322.947C478.134 319.442 485.461 317.591 492.91 317.554C482.658 325.92 483.939 342.048 476.989 353.299C474.795 356.792 471.841 359.746 468.347 361.944C464.853 364.142 460.908 365.527 456.805 365.997L448.227 371.24C447.049 364.689 447.309 357.961 448.987 351.52C450.666 345.079 453.723 339.078 457.948 333.93C460.347 331.065 463.098 328.513 466.136 326.335C468.191 331.743 470.935 337.091 470.935 337.091Z" fill="#76CFFF"/>
<path d="M343.155 144.246H128.316C124.96 144.25 121.742 145.583 119.369 147.952C116.995 150.321 115.66 153.534 115.656 156.884V290.409C115.66 293.76 116.995 296.972 119.369 299.342C121.742 301.711 124.96 303.044 128.316 303.047H343.155C346.512 303.044 349.73 301.711 352.103 299.342C354.477 296.972 355.812 293.76 355.816 290.409V156.884C355.812 153.534 354.477 150.321 352.103 147.952C349.73 145.583 346.512 144.25 343.155 144.246Z" fill="#76CFFF"/>
<path d="M343.155 144.246H128.316C124.96 144.25 121.742 145.583 119.369 147.952C116.995 150.321 115.66 153.534 115.656 156.884V290.409C115.66 293.76 116.995 296.972 119.369 299.342C121.742 301.711 124.96 303.044 128.316 303.047H343.155C346.512 303.044 349.73 301.711 352.103 299.342C354.477 296.972 355.812 293.76 355.816 290.409V156.884C355.812 153.534 354.477 150.321 352.103 147.952C349.73 145.583 346.512 144.25 343.155 144.246ZM347.31 240.159C347.259 253.752 341.872 266.784 332.307 276.459C322.741 286.134 309.757 291.681 296.142 291.91C274.343 292.193 308.203 292.303 281.912 292.303C221.791 292.303 159.103 291.73 135.713 291.358C132.635 291.295 129.705 290.033 127.547 287.842C125.388 285.651 124.174 282.705 124.162 279.632V156.894C124.163 155.794 124.601 154.739 125.379 153.96C126.158 153.181 127.213 152.741 128.316 152.737H343.147C344.249 152.739 345.305 153.175 346.086 153.952C346.866 154.729 347.306 155.783 347.31 156.883V240.159Z" fill="#027FC2"/>
<path d="M316.709 67.3574H153.025C151.576 67.3595 150.164 67.8077 148.98 68.6409C147.797 69.4741 146.9 70.6516 146.411 72.0127L116.703 152.175C116.551 151.064 116.326 153.232 116.703 152.175C116.855 153.287 121.357 148.284 122.004 149.202C122.651 150.119 123.51 150.868 124.507 151.385C125.504 151.903 126.611 152.174 127.735 152.175L347.263 152.564H347.273C348.434 152.564 349.578 152.276 350.601 151.727C351.624 151.177 352.494 150.382 353.134 149.414C353.773 148.446 355.015 147.655 355.118 146.5C355.221 145.345 355.576 143.566 355.118 142.5L323.162 71.6051C322.622 70.3438 321.722 69.2687 320.575 68.5136C319.428 67.7584 318.084 67.3564 316.709 67.3574Z" fill="#027FC2"/>
<path d="M355.619 144.5C355.619 145.449 355.994 154.627 355.619 155.5L323.163 201.894C322.619 203.153 321.718 204.225 320.572 204.979C319.425 205.733 318.082 206.136 316.709 206.137H153.027C151.578 206.136 150.165 205.688 148.98 204.856C147.796 204.023 146.897 202.846 146.408 201.485L121.133 147.076C120.823 146.209 120.687 145.289 120.733 144.37C120.78 143.451 121.007 142.55 121.402 141.719C121.798 140.887 122.353 140.142 123.037 139.525C123.722 138.908 124.521 138.431 125.389 138.123C126.141 137.852 126.934 137.713 127.732 137.713L154.549 137.663L165.494 137.644L309.515 137.392L320.467 137.373L347.264 137.322H347.27C349.133 137.323 351.297 138.185 352.614 139.5C353.931 140.815 355.619 142.641 355.619 144.5Z" fill="#027FC2"/>
<path d="M144.422 244.404C147.668 244.404 192.24 247.124 192.24 250.364C192.24 253.604 147.668 256.138 144.422 256.138C142.863 256.138 141.368 255.52 140.266 254.42C139.164 253.319 138.545 251.827 138.545 250.271C138.545 248.715 139.164 247.223 140.266 246.123C141.368 245.022 142.863 244.404 144.422 244.404Z" fill="#027FC2"/>
<path d="M306.516 24.2871H168.5C164.801 24.2914 161.255 25.76 158.64 28.3709C156.024 30.9818 154.553 34.5217 154.549 38.2141V206.138H316.709C318.041 206.143 319.345 205.764 320.467 205.048V38.2141C320.463 34.5217 318.991 30.9818 316.376 28.3709C313.76 25.7601 310.214 24.2914 306.516 24.2871Z" fill="#1D4C66"/>
<path d="M253.835 35.5771H178.199C174.831 35.5804 171.602 36.9171 169.22 39.2939C166.838 41.6707 165.497 44.8937 165.492 48.2558V206.137H309.514V91.159C309.497 76.423 303.625 62.2954 293.187 51.8755C282.749 41.4555 268.597 35.5941 253.835 35.5771Z" fill="white"/>
<path d="M284.979 192.116H190.03C189.209 192.116 188.422 192.442 187.842 193.021C187.262 193.6 186.936 194.386 186.936 195.205C186.936 196.025 187.262 196.811 187.842 197.39C188.422 197.969 189.209 198.295 190.03 198.295H284.979C285.8 198.295 286.587 197.969 287.168 197.39C287.748 196.811 288.074 196.025 288.074 195.205C288.074 194.386 287.748 193.6 287.168 193.021C286.587 192.442 285.8 192.116 284.979 192.116Z" fill="#1D4C66"/>
<path d="M284.979 179.896H190.029C189.208 179.896 188.42 180.222 187.839 180.802C187.258 181.382 186.932 182.169 186.932 182.989C186.932 183.809 187.258 184.596 187.839 185.176C188.42 185.756 189.208 186.081 190.029 186.081H284.979C285.8 186.081 286.588 185.756 287.169 185.176C287.75 184.596 288.077 183.809 288.077 182.989C288.077 182.169 287.75 181.382 287.169 180.802C286.588 180.222 285.8 179.896 284.979 179.896Z" fill="#1D4C66"/>
<path d="M231.189 167.686H190.03C189.209 167.686 188.422 168.011 187.842 168.59C187.262 169.17 186.936 169.956 186.936 170.775C186.936 171.594 187.262 172.38 187.842 172.959C188.422 173.539 189.209 173.864 190.03 173.864H231.189C232.01 173.864 232.797 173.539 233.377 172.959C233.958 172.38 234.284 171.594 234.284 170.775C234.284 169.956 233.958 169.17 233.377 168.59C232.797 168.011 232.01 167.686 231.189 167.686Z" fill="#1D4C66"/>
<path d="M284.979 142.101H190.029C189.208 142.101 188.42 142.426 187.839 143.006C187.258 143.586 186.932 144.373 186.932 145.193C186.932 146.013 187.258 146.8 187.839 147.38C188.42 147.96 189.208 148.285 190.029 148.285H284.979C285.8 148.285 286.588 147.96 287.169 147.38C287.75 146.8 288.077 146.013 288.077 145.193C288.077 144.373 287.75 143.586 287.169 143.006C286.588 142.426 285.8 142.101 284.979 142.101Z" fill="#1D4C66"/>
<path d="M284.979 129.89H190.03C189.209 129.89 188.422 130.215 187.842 130.794C187.262 131.374 186.936 132.16 186.936 132.979C186.936 133.798 187.262 134.584 187.842 135.163C188.422 135.743 189.209 136.068 190.03 136.068H284.979C285.8 136.068 286.587 135.743 287.168 135.163C287.748 134.584 288.074 133.798 288.074 132.979C288.074 132.16 287.748 131.374 287.168 130.794C286.587 130.215 285.8 129.89 284.979 129.89Z" fill="#1D4C66"/>
<path d="M231.188 117.67H190.029C189.208 117.67 188.42 117.996 187.839 118.576C187.258 119.156 186.932 119.942 186.932 120.762C186.932 121.583 187.258 122.369 187.839 122.949C188.42 123.529 189.208 123.855 190.029 123.855H231.188C232.01 123.855 232.798 123.529 233.379 122.949C233.96 122.369 234.286 121.583 234.286 120.762C234.286 119.942 233.96 119.156 233.379 118.576C232.798 117.996 232.01 117.67 231.188 117.67Z" fill="#1D4C66"/>
<path d="M284.979 92.0859H190.029C189.208 92.0859 188.42 92.4117 187.839 92.9917C187.258 93.5716 186.932 94.3582 186.932 95.1784C186.932 95.9985 187.258 96.7851 187.839 97.365C188.42 97.945 189.208 98.2708 190.029 98.2708H284.979C285.8 98.2708 286.588 97.945 287.169 97.365C287.75 96.7851 288.077 95.9985 288.077 95.1784C288.077 94.3582 287.75 93.5716 287.169 92.9917C286.588 92.4117 285.8 92.0859 284.979 92.0859Z" fill="#027FC2"/>
<path d="M284.979 79.874H190.029C189.208 79.874 188.42 80.1998 187.839 80.7798C187.258 81.3597 186.932 82.1463 186.932 82.9665C186.932 83.7866 187.258 84.5732 187.839 85.1531C188.42 85.7331 189.208 86.0589 190.029 86.0589H284.979C285.8 86.0589 286.588 85.7331 287.169 85.1531C287.75 84.5732 288.077 83.7866 288.077 82.9665C288.077 82.1463 287.75 81.3597 287.169 80.7798C286.588 80.1998 285.8 79.874 284.979 79.874Z" fill="#027FC2"/>
<path d="M231.188 67.6562H190.029C189.208 67.6562 188.42 67.9821 187.839 68.562C187.258 69.1419 186.932 69.9285 186.932 70.7487C186.932 71.5688 187.258 72.3554 187.839 72.9354C188.42 73.5153 189.208 73.8411 190.029 73.8411H231.188C232.01 73.8411 232.798 73.5153 233.379 72.9354C233.96 72.3554 234.286 71.5688 234.286 70.7487C234.286 69.9285 233.96 69.1419 233.379 68.562C232.798 67.9821 232.01 67.6562 231.188 67.6562Z" fill="#027FC2"/>
<path d="M315.292 48.1206C328.603 48.1206 339.394 37.3485 339.394 24.0603C339.394 10.7722 328.603 0 315.292 0C301.98 0 291.189 10.7722 291.189 24.0603C291.189 37.3485 301.98 48.1206 315.292 48.1206Z" fill="#FFC533"/>
<path d="M312.005 36.5831C311.589 36.5831 311.178 36.4863 310.806 36.3005C310.434 36.1146 310.11 35.8448 309.86 35.5123L303.285 26.7601C303.072 26.479 302.918 26.1589 302.829 25.818C302.741 25.4771 302.721 25.1222 302.771 24.7736C302.82 24.425 302.938 24.0895 303.117 23.7865C303.297 23.4834 303.534 23.2187 303.817 23.0074C304.099 22.7962 304.42 22.6426 304.762 22.5555C305.103 22.4683 305.459 22.4494 305.808 22.4997C306.157 22.5499 306.493 22.6685 306.796 22.8485C307.099 23.0285 307.364 23.2664 307.574 23.5487L311.876 29.2741L322.925 12.7299C323.32 12.1393 323.933 11.7293 324.63 11.5901C325.327 11.4509 326.051 11.5939 326.643 11.9876C327.235 12.3813 327.646 12.9936 327.785 13.6896C327.924 14.3857 327.781 15.1085 327.387 15.6991L314.236 35.3912C313.998 35.7474 313.678 36.0414 313.303 36.2486C312.928 36.4558 312.508 36.5702 312.079 36.5822C312.055 36.5827 312.03 36.5831 312.005 36.5831Z" fill="white"/>
<path d="M372.598 126.002C357.716 125.858 321.855 134.411 319.202 135.06C319.068 134.988 312.096 132.033 310.684 131.925C308.784 131.933 306.886 132.057 305.001 132.297C302.677 132.573 304.089 134.7 305.622 135.06C307.8 135.625 308.713 135.529 309.54 135.973C309.969 136.196 310.377 136.457 310.757 136.754C308.195 137.587 305.538 138.099 302.847 138.28C301.253 138.28 299.854 138.28 297.59 138.148C296.593 138.148 296.301 139.349 297.262 139.89C299.038 140.701 300.975 141.112 302.933 141.091C303.918 141.091 304.928 141.091 305.865 140.947C304.769 141.237 303.649 141.434 302.519 141.536C300.973 141.656 299.55 141.427 297.347 141.439C296.337 141.439 296.203 142.545 297.189 143.061C297.655 143.298 298.14 143.499 298.637 143.662C298.503 143.757 298.398 143.887 298.334 144.037C298.269 144.187 298.248 144.351 298.272 144.512C298.296 144.673 298.364 144.825 298.469 144.951C298.574 145.076 298.712 145.171 298.868 145.224C299.597 145.511 300.356 145.717 301.132 145.837C301.155 146.006 301.224 146.167 301.331 146.302C301.438 146.437 301.579 146.542 301.74 146.605C305.987 148.54 316.184 148.131 319.032 147.35C327.452 147.122 358.385 146.089 373.426 143.23C384.864 141.115 384.207 126.11 372.598 126.002Z" fill="#FFB072"/>
<path d="M409.187 79.7753C401.474 85.0671 388.649 104.561 380.286 115.715C375.486 122.11 365.173 124.452 361.41 125.109C361.261 125.137 361.12 125.2 361 125.292C360.879 125.385 360.783 125.504 360.718 125.641C360.653 125.778 360.622 125.928 360.628 126.079C360.633 126.23 360.674 126.377 360.748 126.509C363.16 130.847 364.185 138.791 362.373 145.247C362.309 145.461 362.298 145.686 362.342 145.904C362.386 146.122 362.483 146.326 362.625 146.498C362.767 146.671 362.949 146.806 363.156 146.893C363.362 146.979 363.587 147.014 363.81 146.995C374.023 146.152 381.173 144.628 385.874 142.509C400.962 135.717 405.399 125.766 416.65 104.512C421.662 95.0063 421.462 71.3729 409.187 79.7753Z" fill="#0B5E8B"/>
<path d="M415.722 342.402L414.994 359.927C415.306 361.557 415.532 363.201 415.671 364.854C415.555 366.489 415.354 368.117 415.071 369.731C413.512 370.868 408.569 371.26 406.129 370.565L405.657 370.161C404.359 370.646 403.021 371.018 401.658 371.273C398.082 372.132 387.454 372.397 385.87 371.134C385.87 371.134 384.503 365.903 388.91 364.816C399.921 362.049 401.518 359.131 402.284 355.77C403.242 351.55 404.315 341 404.315 341L415.722 342.402Z" fill="#F4B998"/>
<path d="M399.729 359.868C401.312 359.685 402.903 360.128 404.164 361.101C405.683 362.593 406.869 363.851 409.105 363.383C414.948 362.211 414.614 357.685 417.122 359.683L417.221 371.509L384.893 373.186L384.732 364.221L399.729 359.868Z" fill="#1D4C66"/>
<path d="M437.876 175.675C431.622 159.541 412.176 158.243 408.246 175.057C400.701 212.147 409.463 262.652 401.699 357.146C403.742 358.667 406.141 359.619 408.657 359.907C411.174 360.195 413.721 359.811 416.046 358.79C420.901 359.396 446.905 198.98 437.876 175.675Z" fill="#1D4C66"/>
<path d="M446.526 341.502L445.825 358.443C445.825 358.443 444.906 361.942 444.797 363.14C444.688 364.339 444.991 367.899 444.991 367.899C446.369 369.122 451.037 369.88 453.455 369.403L453.939 369.049C455.101 369.63 456.316 370.097 457.567 370.443C460.868 371.544 470.869 372.645 472.477 371.544C472.477 371.544 474.17 366.651 470.058 365.195C459.889 361.66 458.607 358.712 458.147 355.41C457.579 351.263 457.397 341 457.397 341L446.526 341.502Z" fill="#F4B998"/>
<path d="M460.779 360.08C459.163 359.764 457.487 360.082 456.102 360.968C454.42 362.362 453.095 363.503 450.789 362.894C444.889 361.183 445.616 356.556 442.863 358.445L441.768 370.551L474.897 375L475.827 365.835L460.779 360.08Z" fill="#1D4C66"/>
<path d="M468.846 173.395C466.17 156.327 435.193 159.297 434.787 176.55C434.127 202.59 444.186 358.844 444.186 358.844C450.592 362.073 451.43 361.444 458.901 358.487C462.263 281.13 478.372 234.152 468.846 173.395Z" fill="#1D4C66"/>
<path d="M477.787 85.3496C470.086 68.1164 439.482 65.658 438.042 65C438.042 65 408.102 72.077 400.175 89.2978C397.521 101.838 407 140.352 401.428 186.626C401.903 195.689 472.39 194.808 471.614 185.757C467.031 136.615 482.959 96.8963 477.787 85.3496Z" fill="#027FC2"/>
<path d="M439.154 57.9909C439.154 57.9909 443.749 58.4541 451.851 52.7738C457.161 49.0438 468.794 28.858 452.264 20.9105C435.735 12.963 427.358 23.0315 424.44 30.3452C421.522 37.6589 428.422 46.1915 431.578 49.9093C434.733 53.6271 439.154 57.9909 439.154 57.9909Z" fill="#112C3A"/>
<path d="M445.713 49C445.682 53.118 446.182 57.2245 447.202 61.2303C448.794 66.6727 450.904 68.503 453.364 70.9273C455.823 73.3515 447.435 87.6545 432.652 89C427.539 85.2182 420.187 78.3455 425.688 72.103C430.206 66.9637 433.455 66.7455 432.704 59.2788C432.109 52.7818 431.72 49.1697 431.72 49.1697L445.713 49Z" fill="#FFB072"/>
<path fill-rule="evenodd" clip-rule="evenodd" d="M445.366 50.1274C445.366 50.1274 444.553 55.3967 441.924 57.0289C439.295 58.6611 434.203 62.9279 426.062 59.9977C415.178 56.1421 424.335 39.4345 424.335 39.4345C424.801 35.1145 425.946 30.8975 427.726 26.9424C430.418 21.6346 442.216 21.7374 450.421 26.9424C450.421 26.9424 452.313 30.1297 448.325 40.9254C449.01 40.4857 449.827 40.3052 450.631 40.4158C451.435 40.5263 452.175 40.9207 452.719 41.5294C454.396 43.1616 453.913 45.7963 452.58 48.0325C450.992 50.8214 447.309 52.4664 445.366 50.1274Z" fill="#FFB072"/>
<path d="M444.798 46C444.798 46 444.216 41.0412 446.434 37.4584C446.826 36.8748 447.092 36.212 447.212 35.5147C447.333 34.8173 447.307 34.1016 447.134 33.4156C446.962 32.7297 446.648 32.0894 446.214 31.538C445.78 30.9865 445.235 30.5366 444.616 30.2186C442.52 29.3756 435.139 28.7805 432.291 28.3094C420.027 26.3011 427.832 15.3545 432.8 15.0446C437.769 14.7346 449.161 15.9372 453.766 21.9621C456.783 25.9044 456.953 36.0452 450.651 39.4048C447.779 40.8924 444.798 46 444.798 46Z" fill="#112C3A"/>
<path d="M447.492 64L448.805 70.1779C448.805 70.1779 447.995 88.032 436.538 86.6605C423.413 85.1037 432.036 64.8402 432.036 64.8402C432.036 64.8402 426.897 64.6548 421.696 71.9448C416.63 79.8154 409.797 106.541 433.484 108.876C457.735 111.236 457.894 79.1111 457.76 74.6878C458.508 65.0873 447.492 64 447.492 64Z" fill="#027FC2"/>
<path d="M479.558 135.964C462.949 143.443 432.945 159.71 432.945 159.71C430.883 159.053 428.709 158.814 426.553 159.007C424.639 159.368 422.75 159.847 420.896 160.439C418.616 161.142 420.422 162.981 422.042 163.105C424.347 163.277 425.257 163.018 426.166 163.314C426.547 163.438 426.918 163.591 427.275 163.771C426.564 164.361 425.771 164.847 424.92 165.215C424.734 165.284 424.561 165.384 424.41 165.511C422.64 166.104 421.232 166.511 419.812 166.894C418.059 167.266 416.287 167.542 414.504 167.721C413.482 167.869 413.432 169.165 414.504 169.547C416.443 170.062 418.474 170.138 420.447 169.77C421.432 169.572 422.441 169.338 423.375 169.091C423.375 169.177 423.375 169.263 423.375 169.35C422.204 169.72 421.145 170.016 420.098 170.3C418.566 170.708 417.083 170.732 414.878 171.152C413.856 171.349 413.931 172.485 415.027 172.83C415.543 172.975 416.067 173.087 416.597 173.164C416.111 173.608 416.261 174.398 417.133 174.694C417.916 174.848 418.714 174.914 419.513 174.892C419.572 175.057 419.673 175.206 419.806 175.322C419.939 175.439 420.099 175.52 420.273 175.558C423.104 176.171 426.038 176.146 428.858 175.484C431.409 175.176 433.917 174.584 436.334 173.719C436.334 173.719 472.854 162.068 485.688 152.86C495.357 145.949 490.386 131.088 479.558 135.964Z" fill="#FFB072"/>
<path d="M472.529 79.8438C459.228 69.0682 456.61 91.6946 460.352 101.468C463.736 110.322 476.148 121.738 476.061 131.813C476.061 134.918 472.245 137.648 468.651 139.714C468.543 139.77 468.451 139.852 468.383 139.951C468.314 140.05 468.271 140.164 468.258 140.283C468.245 140.402 468.261 140.522 468.306 140.633C468.351 140.745 468.423 140.844 468.515 140.922C472.504 144.896 475.123 152.036 475.555 157.23C475.578 157.511 475.663 157.785 475.806 158.03C475.949 158.275 476.145 158.486 476.381 158.649C476.617 158.812 476.886 158.922 477.171 158.971C477.455 159.02 477.746 159.007 478.025 158.933C491.956 155.201 499.168 145.416 500.132 142.118C504.664 126.824 487.448 91.9241 472.529 79.8438Z" fill="#027FC2"/>
</g>
<defs>
<clipPath id="clip0_5145_45003">
<rect width="426.19" height="372.352" fill="white" transform="translate(80.9531)"/>
</clipPath>
</defs>
</svg>
