<svg width="48" height="48" viewBox="0 0 48 48" fill="none" xmlns="http://www.w3.org/2000/svg">
<g clip-path="url(#clip0_5145_44123)">
<path d="M5.72865 19.0831C4.48933 23.6065 4.83855 28.4181 6.71807 32.7152C8.59758 37.0122 11.8937 40.5349 16.0566 42.6954C20.2194 44.8559 24.9973 45.5237 29.593 44.5873C34.1887 43.6509 38.3243 41.1669 41.3099 37.5498C44.2955 33.9327 45.9506 29.4012 45.9989 24.7113C46.0473 20.0215 44.486 15.4568 41.5756 11.7789C38.6652 8.10106 34.5816 5.53237 30.0062 4.50142C25.4308 3.47046 20.6402 4.03958 16.4337 6.11384L25.5 24.5L5.72865 19.0831Z" fill="#51BCF4"/>
<rect x="9" y="27" width="14" height="20" rx="1.73333" fill="#027FC2"/>
<rect x="26" y="19" width="14" height="28" rx="1.73333" fill="#027FC2"/>
<path fill-rule="evenodd" clip-rule="evenodd" d="M39.1079 7.52329C39.7762 8.20872 39.7623 9.30611 39.0769 9.9744L33.7436 15.1744C33.123 15.7795 32.1509 15.8331 31.4675 15.3001L28.1342 12.7001C27.3793 12.1113 27.2447 11.0221 27.8335 10.2673C28.4222 9.51245 29.5114 9.37783 30.2663 9.9666L32.4067 11.6361L36.6568 7.49227C37.3423 6.82398 38.4397 6.83787 39.1079 7.52329Z" fill="#027FC2"/>
<path fill-rule="evenodd" clip-rule="evenodd" d="M0 45.5C0 44.1193 0.783502 43 1.75 43H47.25C48.2165 43 49 44.1193 49 45.5C49 46.8807 48.2165 48 47.25 48H1.75C0.783502 48 0 46.8807 0 45.5Z" fill="#027FC2"/>
</g>
<defs>
<clipPath id="clip0_5145_44123">
<rect width="48" height="48" fill="white"/>
</clipPath>
</defs>
</svg>
