<svg width="566" height="415" viewBox="0 0 566 415" fill="none" xmlns="http://www.w3.org/2000/svg">
<path fill-rule="evenodd" clip-rule="evenodd" d="M504.696 127.321C466.915 96.0544 405.968 94.3779 352.904 81.0442C306.333 69.342 262.065 47.6474 213.748 54.2122C164.689 60.8778 127.606 89.1418 92.9507 116.364C57.0454 144.568 23.5588 174.946 11.5011 213.077C-1.7483 254.978 -9.55719 303.401 22.5953 338.86C54.2722 373.795 118.866 375.982 171.704 389.757C219.05 402.101 264.357 416.002 314.417 414.943C373.792 413.687 437.408 411.953 483.187 383.169C531.988 352.484 561.527 305.023 565.562 257.031C569.511 210.052 546.576 161.979 504.696 127.321Z" fill="#ECF8FC"/>
<path d="M532.947 356.436C532.947 349.222 423.973 343.365 289.564 343.365C155.154 343.365 46.1797 349.222 46.1797 356.436C46.1797 363.651 155.143 369.519 289.564 369.519C423.984 369.519 532.947 363.662 532.947 356.436Z" fill="#027FC2"/>
<path d="M220.203 106.293C214.492 105.677 208.921 104.135 203.707 101.726C195.864 98.096 188.866 91.121 192.805 84.2373C198.684 74.8079 181.96 66.8283 187.645 61.577C193.433 56.9308 194.654 60.7779 192.417 50.3782C190.579 39.7615 197.885 37.2158 201.994 27.7179C206.698 18.1629 217.486 25.3092 214.814 37.7752C212.714 50.6407 217.68 37.3528 221.333 43.152C224.449 47.9466 212.2 68.5863 217.611 66.7255C222.623 64.4424 226.938 67.6045 226.276 73.3695C224.324 86.7031 220.02 106.03 220.203 106.293Z" fill="#51BCF4"/>
<path d="M224.195 111.726C224.167 111.725 224.139 111.719 224.113 111.707C224.088 111.695 224.065 111.679 224.046 111.658C215.6 101.751 209.396 90.1341 205.861 77.6044V77.4903H205.77C202.22 75.2049 198.974 72.4775 196.112 69.3737C195.142 68.3691 194.171 67.3417 193.201 66.3028C193.183 66.2778 193.174 66.2479 193.174 66.2172C193.174 66.1865 193.183 66.1566 193.201 66.1316C193.221 66.0818 193.26 66.0414 193.308 66.0182C193.357 65.995 193.412 65.9907 193.464 66.006C193.482 66.002 193.502 66.002 193.521 66.006C194.468 67.0106 195.416 68.0266 196.375 69.0084C199.024 71.8704 201.988 74.4246 205.21 76.6227L205.747 76.9651L205.576 76.3144C203.98 70.1054 203.08 63.7381 202.893 57.33V57.1474L202.745 57.0789H202.676C200.098 53.1289 198.106 48.8261 196.763 44.3047C196.743 44.2761 196.733 44.2423 196.733 44.2076C196.733 44.173 196.743 44.1391 196.763 44.1106C196.796 44.0865 196.836 44.0735 196.877 44.0735C196.918 44.0735 196.958 44.0865 196.991 44.1106C197.026 44.1351 197.05 44.1718 197.06 44.2133C198.285 48.3708 200.071 52.3419 202.368 56.0172C202.516 56.2684 202.676 56.5081 202.836 56.7592C202.836 56.4624 202.836 56.1542 202.836 55.8574C202.77 49.0375 203.428 42.2298 204.799 35.5488C204.802 35.526 204.809 35.5039 204.821 35.4842C204.833 35.4645 204.849 35.4476 204.868 35.4346C204.896 35.4186 204.927 35.4102 204.959 35.4102C204.991 35.4102 205.023 35.4186 205.051 35.4346C205.085 35.4574 205.112 35.4908 205.126 35.5299C205.141 35.5689 205.142 35.6116 205.13 35.6515C203.282 44.6095 202.747 53.7889 203.544 62.9009C203.544 63.0836 203.544 63.2548 203.544 63.4375L203.909 63.0836C207.923 59.2713 211.465 54.9901 214.457 50.3322C214.457 50.2751 214.526 50.2523 214.594 50.3322C214.625 50.3486 214.652 50.3713 214.674 50.3988C214.695 50.4263 214.711 50.4581 214.72 50.492C214.734 50.5163 214.741 50.5439 214.741 50.5719C214.741 50.6 214.734 50.6275 214.72 50.6518C211.621 55.4859 207.932 59.9151 203.738 63.837L203.624 63.9398V64.0996C204.079 68.5436 204.884 72.9447 206.032 77.2619V77.3304C206.049 77.356 206.057 77.3857 206.057 77.416C206.057 77.4464 206.049 77.4761 206.032 77.5017V77.5702V77.6387C207.098 81.5053 208.44 85.2899 210.051 88.9631L210.336 89.6138C210.393 89.3855 210.462 89.1572 210.519 88.9288C212.179 82.7864 214.717 76.9154 218.053 71.497C218.071 71.4598 218.102 71.4308 218.14 71.4159C218.178 71.4011 218.221 71.4015 218.259 71.4171C218.286 71.4261 218.312 71.4409 218.334 71.4606C218.355 71.4803 218.373 71.5044 218.384 71.5312C218.395 71.5481 218.401 71.568 218.401 71.5883C218.401 71.6086 218.395 71.6285 218.384 71.6454C214.881 77.3462 212.256 83.5422 210.599 90.0248V90.1161V90.2074C214.118 97.8921 218.677 105.056 224.149 111.498C224.16 111.517 224.166 111.539 224.166 111.561C224.166 111.583 224.16 111.604 224.149 111.623C224.129 111.659 224.101 111.69 224.068 111.714C224.034 111.738 223.996 111.754 223.955 111.76L224.195 111.726Z" fill="#027FC2"/>
<path d="M199.834 138.78C200.211 132.568 199.653 126.334 198.179 120.287C195.896 111.257 190.188 102.581 182.756 105.8C172.482 110.675 167.391 91.3934 161.249 96.6674C155.667 102.181 159.263 104.088 149.377 100.092C139.194 96.462 135.438 103.939 125.403 106.942C115.129 110.515 120.392 123.266 133.166 122.33C146.226 122.067 132.253 125.355 137.367 130.196C141.568 134.294 164.046 124.294 161.272 129.853C158.201 134.899 160.564 140.047 166.375 140.23C179.777 140.173 199.617 138.461 199.834 138.78Z" fill="#51BCF4"/>
<path d="M204.516 143.932C204.528 143.907 204.534 143.879 204.534 143.852C204.534 143.824 204.528 143.797 204.516 143.772C197.884 135.279 187.221 125.119 173.968 118.851H173.865V118.737C172.232 114.6 170.093 110.681 167.495 107.07C166.662 105.86 165.805 104.662 164.949 103.452C164.927 103.433 164.899 103.423 164.869 103.423C164.84 103.423 164.812 103.433 164.789 103.452C164.736 103.467 164.69 103.501 164.659 103.547C164.628 103.592 164.613 103.648 164.618 103.703C164.615 103.729 164.615 103.756 164.618 103.783C165.452 104.924 166.285 106.134 167.107 107.321C169.502 110.659 171.516 114.255 173.112 118.041L173.363 118.669L172.758 118.395C166.909 115.727 160.756 113.783 154.435 112.607H154.264V112.424C154.27 112.398 154.27 112.371 154.264 112.344C150.851 108.979 146.939 106.16 142.666 103.988C142.635 103.969 142.599 103.959 142.563 103.959C142.527 103.959 142.491 103.969 142.46 103.988C142.427 104.017 142.402 104.055 142.388 104.097C142.374 104.139 142.371 104.184 142.38 104.228C142.403 104.269 142.439 104.301 142.483 104.319C146.407 106.317 150.027 108.862 153.237 111.876L153.887 112.504L152.997 112.344C146.26 111.211 139.414 110.862 132.597 111.306C132.506 111.306 132.483 111.306 132.483 111.363C132.466 111.394 132.457 111.43 132.457 111.465C132.457 111.501 132.466 111.537 132.483 111.568C132.498 111.606 132.525 111.638 132.56 111.659C132.595 111.679 132.637 111.688 132.677 111.682C141.818 111.084 150.996 111.939 159.869 114.217L160.394 114.354L159.983 114.696C155.579 118.39 150.746 121.54 145.588 124.08C145.588 124.08 145.497 124.137 145.52 124.217C145.545 124.287 145.593 124.348 145.657 124.388C145.681 124.402 145.709 124.409 145.737 124.409C145.765 124.409 145.792 124.402 145.817 124.388C151.158 121.723 156.144 118.398 160.657 114.491L160.783 114.376H160.931C165.243 115.56 169.445 117.114 173.488 119.023H173.557V119.091C173.577 119.116 173.604 119.135 173.634 119.147C173.664 119.159 173.696 119.163 173.728 119.16H173.797H173.865C177.518 120.921 181.03 122.963 184.368 125.267L184.95 125.667L184.253 125.758C177.847 126.617 171.608 128.441 165.748 131.169C165.712 131.188 165.682 131.218 165.663 131.255C165.645 131.292 165.639 131.334 165.646 131.374C165.644 131.406 165.651 131.437 165.665 131.465C165.679 131.493 165.7 131.517 165.726 131.534C165.726 131.534 165.783 131.534 165.84 131.534C171.997 128.671 178.571 126.806 185.315 126.009H185.418H185.509C192.564 131.075 198.867 137.112 204.231 143.943C204.231 144.012 204.322 144 204.345 144C204.386 143.985 204.423 143.959 204.451 143.925C204.479 143.891 204.498 143.85 204.505 143.806L204.516 143.932Z" fill="#027FC2"/>
<path d="M193.968 120.198C193.865 120.198 200.247 111.625 202.872 101.168C205.715 90.8935 204.79 78.8157 195.189 77.0691C181.685 75.0713 187.529 53.096 178.066 54.2376C169.104 55.9499 171.741 60.1509 163.796 49.7968C155.326 39.6368 147.129 44.4314 134.983 40.6642C122.311 37.4564 120.416 53.2216 134.195 60.6532C147.894 68.9296 131.512 62.9934 134.035 71.0301C136.044 77.754 165.097 82.7085 159.036 86.293C152.94 89.1812 152.449 95.7224 158.374 99.6837C172.381 108.485 193.922 119.775 193.968 120.198Z" fill="#027FC2"/>
<path d="M195.876 128.267C195.9 128.241 195.917 128.21 195.927 128.176C195.937 128.143 195.939 128.107 195.933 128.072C193.377 112.297 187.446 97.2589 178.547 83.9849L178.467 83.8707V83.7451C179.166 78.6108 179.196 73.4076 178.558 68.2654C178.398 66.553 178.204 64.8406 177.999 63.094C177.999 63.0553 177.986 63.0178 177.96 62.9884C177.935 62.959 177.9 62.9397 177.862 62.9342C177.803 62.9118 177.737 62.9137 177.68 62.9393C177.622 62.965 177.577 63.0124 177.554 63.0712C177.548 63.1052 177.548 63.1399 177.554 63.174C177.748 64.8635 177.942 66.5987 178.113 68.2311C178.681 72.9845 178.708 77.7871 178.193 82.5465C178.193 82.809 178.124 83.0602 178.079 83.3227C177.93 83.0944 177.771 82.8775 177.611 82.6492C173.064 76.2253 167.806 70.3354 161.937 65.0918L161.777 64.9434V64.7493C161.783 64.7115 161.783 64.673 161.777 64.6352C160.141 59.0858 157.703 53.8053 154.54 48.9613C154.52 48.9215 154.489 48.8889 154.45 48.8684C154.411 48.8478 154.366 48.8404 154.323 48.8472C154.271 48.8465 154.22 48.8646 154.18 48.8982C154.14 48.9317 154.114 48.9784 154.106 49.0298C154.094 49.0527 154.087 49.0782 154.087 49.104C154.087 49.1299 154.094 49.1553 154.106 49.1782C157.025 53.6309 159.329 58.4578 160.955 63.5278C161.058 63.8703 161.172 64.2128 161.275 64.5552L160.441 63.8246C154.12 58.3364 147.232 53.5375 139.893 49.5093C139.79 49.5093 139.756 49.5093 139.733 49.5093C139.698 49.5281 139.669 49.5561 139.649 49.5904C139.629 49.6246 139.619 49.6637 139.619 49.7034C139.613 49.7528 139.623 49.803 139.647 49.8463C139.672 49.8896 139.71 49.9236 139.756 49.9431C149.608 55.3406 158.622 62.1434 166.515 70.1375C166.663 70.2974 166.811 70.4572 166.971 70.6056L166.355 70.6741C159.594 71.3919 152.772 71.2961 146.035 70.3887C145.955 70.3887 145.909 70.3887 145.886 70.4915C145.87 70.5292 145.861 70.57 145.861 70.6113C145.861 70.6526 145.87 70.6934 145.886 70.7312C145.905 70.7602 145.93 70.7845 145.96 70.8023C145.99 70.8201 146.023 70.8309 146.058 70.8339C153.042 71.7791 160.116 71.8558 167.12 71.0622H167.314L167.439 71.1992C171.24 75.1543 174.715 79.4111 177.828 83.9278L177.885 83.9963V84.0876C177.886 84.1269 177.899 84.165 177.921 84.1973C177.943 84.2297 177.974 84.255 178.01 84.2703H178.09L178.147 84.3502C180.904 88.4249 183.368 92.6898 185.522 97.113L185.91 97.8893L185.134 97.5239C178.064 94.1854 170.552 91.8788 162.827 90.6745C162.78 90.6634 162.731 90.6701 162.689 90.6933C162.647 90.7165 162.615 90.7545 162.599 90.8001C162.585 90.8326 162.578 90.8675 162.578 90.9028C162.578 90.9381 162.585 90.9731 162.599 91.0055C162.611 91.0287 162.629 91.0483 162.651 91.0624C162.673 91.0764 162.698 91.0844 162.725 91.0855C170.842 92.3449 178.724 94.8194 186.104 98.4258L186.218 98.4829V98.597C190.602 108 193.675 117.96 195.351 128.198C195.351 128.301 195.419 128.324 195.442 128.335C195.491 128.344 195.541 128.341 195.589 128.327C195.636 128.314 195.68 128.289 195.716 128.255L195.876 128.267Z" fill="#51BCF4"/>
<path d="M313.081 87.9131H204.814C194.31 87.9131 185.795 96.428 185.795 106.932V333.032C185.795 343.536 194.31 352.051 204.814 352.051H313.081C323.584 352.051 332.099 343.536 332.099 333.032V106.932C332.099 96.428 323.584 87.9131 313.081 87.9131Z" fill="#003754"/>
<path d="M313.091 87.9131H204.813C202.313 87.9101 199.838 88.3998 197.528 89.3542C195.218 90.3087 193.118 91.7091 191.35 93.4755C189.582 95.2418 188.179 97.3394 187.221 99.6484C186.264 101.957 185.771 104.432 185.771 106.932V333.032C185.772 335.923 186.434 338.775 187.706 341.371C188.979 343.967 190.828 346.238 193.112 348.01L330.535 99.3859C329.064 95.9799 326.629 93.0788 323.529 91.0401C320.43 89.0014 316.801 87.9144 313.091 87.9131Z" fill="#005D8E"/>
<path d="M280.088 97.168H239.927C239.395 97.171 238.886 97.3836 238.51 97.7597C238.134 98.1359 237.921 98.6452 237.918 99.1771C237.918 99.71 238.13 100.221 238.506 100.598C238.883 100.975 239.394 101.186 239.927 101.186H280.088C280.621 101.186 281.132 100.975 281.508 100.598C281.885 100.221 282.097 99.71 282.097 99.1771C282.094 98.6452 281.881 98.1359 281.505 97.7597C281.129 97.3836 280.62 97.171 280.088 97.168Z" fill="white"/>
<path d="M313.092 95.083H297.201L291.493 105.917C290.447 107.905 288.877 109.569 286.954 110.73C285.03 111.891 282.826 112.504 280.58 112.503H237.337C235.09 112.504 232.886 111.891 230.963 110.73C229.039 109.569 227.47 107.905 226.423 105.917L220.715 95.083H204.813C201.659 95.086 198.635 96.3402 196.405 98.5704C194.175 100.801 192.921 103.824 192.918 106.978V333.033C192.924 336.185 194.18 339.206 196.409 341.433C198.639 343.661 201.661 344.914 204.813 344.917H313.092C316.242 344.914 319.263 343.661 321.491 341.433C323.719 339.205 324.972 336.184 324.975 333.033V106.933C324.963 103.788 323.706 100.775 321.479 98.5549C319.252 96.3343 316.237 95.086 313.092 95.083Z" fill="#DBF2FF"/>
<g style="mix-blend-mode:multiply">
<path d="M324.975 106.933V109.444L196.64 341.663C195.465 340.551 194.53 339.211 193.89 337.725C193.25 336.24 192.919 334.639 192.918 333.022V106.99C192.918 103.834 194.171 100.807 196.401 98.5745C198.632 96.3419 201.657 95.0861 204.813 95.0831H220.704L226.412 105.917C227.461 107.905 229.033 109.569 230.958 110.73C232.883 111.89 235.089 112.504 237.337 112.504H280.522C282.769 112.502 284.972 111.887 286.895 110.727C288.817 109.566 290.388 107.903 291.436 105.917L297.144 95.0831H313.035C314.597 95.0771 316.145 95.3788 317.59 95.9711C319.036 96.5633 320.35 97.4345 321.459 98.5348C322.568 99.6351 323.449 100.943 324.052 102.384C324.656 103.825 324.969 105.371 324.975 106.933Z" fill="#B4E4FF"/>
</g>
<path d="M378 129.076H213.533C208.937 129.076 205.211 132.802 205.211 137.398V178.107C205.211 182.703 208.937 186.429 213.533 186.429H378C382.596 186.429 386.322 182.703 386.322 178.107V137.398C386.322 132.802 382.596 129.076 378 129.076Z" fill="white"/>
<path d="M285.226 148.211L286.368 151.636C286.404 151.752 286.477 151.854 286.576 151.926C286.674 151.998 286.794 152.036 286.916 152.035H290.523C290.645 152.036 290.764 152.075 290.863 152.148C290.961 152.22 291.035 152.321 291.073 152.437C291.111 152.553 291.111 152.678 291.074 152.795C291.037 152.911 290.964 153.013 290.865 153.086L287.943 155.209C287.846 155.283 287.774 155.385 287.737 155.502C287.701 155.618 287.701 155.743 287.738 155.86L288.879 159.284C288.919 159.402 288.92 159.53 288.882 159.648C288.844 159.766 288.769 159.869 288.668 159.942C288.567 160.015 288.446 160.053 288.321 160.052C288.197 160.051 288.077 160.01 287.977 159.935L285.009 157.869C284.91 157.796 284.79 157.757 284.667 157.757C284.544 157.757 284.424 157.796 284.324 157.869L281.413 159.992C281.314 160.067 281.193 160.108 281.069 160.109C280.945 160.11 280.823 160.072 280.723 159.999C280.622 159.926 280.547 159.823 280.509 159.705C280.471 159.587 280.472 159.459 280.511 159.341L281.653 155.917C281.69 155.799 281.689 155.673 281.65 155.556C281.612 155.439 281.536 155.338 281.436 155.266L278.525 153.143C278.427 153.07 278.354 152.968 278.317 152.852C278.279 152.736 278.28 152.61 278.318 152.494C278.356 152.378 278.429 152.277 278.528 152.205C278.626 152.133 278.745 152.093 278.867 152.092H282.475C282.597 152.093 282.716 152.055 282.815 151.983C282.913 151.911 282.986 151.809 283.023 151.693L284.164 148.268C284.205 148.163 284.274 148.072 284.365 148.006C284.456 147.94 284.564 147.901 284.677 147.895C284.789 147.889 284.901 147.916 284.998 147.972C285.096 148.028 285.175 148.111 285.226 148.211Z" fill="#FBBE42"/>
<path d="M305.25 148.209L306.391 151.634C306.431 151.75 306.507 151.851 306.607 151.923C306.707 151.995 306.827 152.033 306.95 152.034H310.558C310.68 152.034 310.799 152.074 310.898 152.146C310.996 152.218 311.07 152.319 311.108 152.435C311.145 152.552 311.146 152.677 311.109 152.793C311.071 152.909 310.999 153.011 310.9 153.084L307.921 155.219C307.822 155.291 307.748 155.393 307.709 155.509C307.67 155.626 307.668 155.752 307.704 155.869L308.845 159.294C308.882 159.41 308.881 159.535 308.843 159.65C308.805 159.766 308.732 159.867 308.634 159.939C308.535 160.01 308.417 160.05 308.295 160.051C308.174 160.052 308.055 160.015 307.955 159.945L305.044 157.867C304.945 157.795 304.825 157.756 304.702 157.756C304.578 157.756 304.459 157.795 304.359 157.867L301.437 159.99C301.337 160.06 301.218 160.098 301.096 160.096C300.975 160.095 300.856 160.056 300.758 159.984C300.66 159.913 300.587 159.812 300.549 159.696C300.511 159.58 300.51 159.456 300.546 159.34L301.688 155.915C301.723 155.797 301.722 155.672 301.683 155.555C301.644 155.439 301.57 155.337 301.471 155.264L298.548 153.141C298.45 153.068 298.377 152.967 298.34 152.85C298.303 152.734 298.303 152.609 298.341 152.492C298.379 152.376 298.453 152.275 298.551 152.203C298.65 152.131 298.769 152.092 298.891 152.091H302.498C302.621 152.09 302.741 152.052 302.842 151.98C302.942 151.909 303.017 151.808 303.058 151.691L304.199 148.266C304.237 148.161 304.305 148.069 304.396 148.002C304.486 147.935 304.593 147.896 304.705 147.89C304.818 147.883 304.929 147.911 305.026 147.967C305.122 148.024 305.2 148.108 305.25 148.209Z" fill="#76838F"/>
<path d="M325.282 148.211L326.423 151.636C326.46 151.752 326.533 151.854 326.632 151.926C326.73 151.997 326.849 152.036 326.971 152.035H330.59C330.711 152.038 330.829 152.079 330.925 152.152C331.022 152.225 331.094 152.326 331.13 152.442C331.167 152.558 331.166 152.682 331.129 152.797C331.091 152.913 331.019 153.013 330.921 153.085L328.01 155.209C327.91 155.28 327.835 155.382 327.796 155.499C327.757 155.616 327.756 155.742 327.793 155.859L328.935 159.284C328.974 159.402 328.975 159.529 328.937 159.648C328.899 159.766 328.824 159.869 328.724 159.942C328.623 160.014 328.501 160.053 328.377 160.052C328.253 160.05 328.132 160.01 328.033 159.935L325.042 157.869C324.943 157.796 324.823 157.757 324.7 157.757C324.577 157.757 324.457 157.796 324.357 157.869L321.435 159.992C321.335 160.067 321.215 160.108 321.091 160.109C320.966 160.11 320.845 160.071 320.744 159.999C320.643 159.926 320.568 159.823 320.53 159.705C320.492 159.586 320.493 159.459 320.533 159.341L321.674 155.916C321.715 155.8 321.717 155.674 321.68 155.557C321.643 155.44 321.569 155.338 321.469 155.266L318.547 153.142C318.448 153.07 318.375 152.968 318.338 152.852C318.301 152.735 318.301 152.61 318.339 152.494C318.377 152.378 318.451 152.276 318.549 152.204C318.648 152.132 318.767 152.093 318.889 152.092H322.496C322.618 152.093 322.738 152.055 322.836 151.983C322.935 151.911 323.008 151.809 323.044 151.693L324.186 148.268C324.22 148.153 324.289 148.051 324.384 147.976C324.478 147.902 324.594 147.859 324.714 147.852C324.834 147.846 324.953 147.877 325.055 147.941C325.156 148.006 325.236 148.1 325.282 148.211Z" fill="#76838F"/>
<path d="M345.318 148.211L346.459 151.636C346.499 151.752 346.575 151.853 346.675 151.925C346.775 151.996 346.895 152.035 347.019 152.035H350.626C350.748 152.036 350.867 152.075 350.966 152.148C351.064 152.22 351.138 152.321 351.176 152.437C351.214 152.553 351.214 152.678 351.177 152.795C351.139 152.911 351.067 153.013 350.968 153.086L348.046 155.209C347.946 155.281 347.872 155.383 347.835 155.5C347.798 155.617 347.8 155.744 347.84 155.86L348.982 159.284C349.019 159.401 349.018 159.525 348.98 159.641C348.942 159.756 348.868 159.857 348.77 159.929C348.672 160.001 348.554 160.04 348.432 160.041C348.31 160.042 348.191 160.005 348.092 159.935L345.101 157.869C345.001 157.796 344.881 157.757 344.758 157.757C344.635 157.757 344.515 157.796 344.416 157.869L341.493 159.992C341.394 160.062 341.275 160.099 341.153 160.098C341.031 160.097 340.913 160.058 340.815 159.986C340.717 159.914 340.643 159.813 340.605 159.698C340.567 159.582 340.566 159.458 340.603 159.341L341.744 155.917C341.782 155.799 341.781 155.673 341.742 155.556C341.703 155.439 341.628 155.338 341.528 155.266L338.605 153.143C338.507 153.07 338.434 152.968 338.397 152.852C338.36 152.736 338.36 152.61 338.398 152.494C338.436 152.378 338.509 152.277 338.608 152.205C338.707 152.133 338.825 152.093 338.948 152.092H342.566C342.688 152.093 342.807 152.055 342.906 151.983C343.005 151.911 343.078 151.809 343.114 151.693L344.256 148.268C344.296 148.163 344.366 148.072 344.457 148.006C344.548 147.94 344.656 147.901 344.768 147.895C344.88 147.889 344.992 147.916 345.09 147.972C345.187 148.028 345.266 148.111 345.318 148.211Z" fill="#76838F"/>
<path d="M365.341 148.211L366.482 151.635C366.521 151.753 366.596 151.855 366.697 151.926C366.797 151.998 366.918 152.036 367.042 152.035H370.649C370.771 152.036 370.89 152.075 370.989 152.147C371.088 152.219 371.161 152.32 371.199 152.436C371.237 152.553 371.237 152.678 371.2 152.794C371.163 152.911 371.09 153.012 370.992 153.085L368.069 155.208C367.97 155.281 367.896 155.383 367.857 155.499C367.818 155.616 367.817 155.742 367.852 155.859L368.994 159.284C369.03 159.4 369.03 159.525 368.992 159.64C368.954 159.756 368.88 159.857 368.782 159.928C368.684 160 368.565 160.039 368.444 160.041C368.322 160.042 368.203 160.005 368.103 159.934L365.135 157.868C365.036 157.796 364.916 157.757 364.793 157.757C364.67 157.757 364.55 157.796 364.45 157.868L361.574 159.957C361.474 160.027 361.355 160.064 361.233 160.063C361.112 160.062 360.993 160.023 360.895 159.951C360.797 159.879 360.724 159.779 360.686 159.663C360.648 159.547 360.647 159.423 360.683 159.307L361.825 155.882C361.865 155.766 361.867 155.64 361.83 155.522C361.793 155.405 361.719 155.303 361.619 155.231L358.697 153.108C358.599 153.035 358.526 152.933 358.489 152.817C358.451 152.701 358.452 152.575 358.49 152.459C358.528 152.343 358.601 152.242 358.7 152.17C358.798 152.098 358.917 152.058 359.039 152.058H362.647C362.77 152.057 362.89 152.019 362.99 151.947C363.09 151.875 363.166 151.774 363.206 151.658L364.348 148.233C364.398 148.147 364.469 148.075 364.555 148.024C364.641 147.974 364.738 147.946 364.838 147.944C364.938 147.941 365.036 147.965 365.124 148.011C365.212 148.058 365.287 148.127 365.341 148.211Z" fill="#76838F"/>
<path d="M336.493 165.698H278.25V167.319H336.493V165.698Z" fill="#76838F"/>
<path d="M336.493 139.077H278.25V142.125H336.493V139.077Z" fill="#027FC2"/>
<path d="M336.493 171.867H278.25V173.488H336.493V171.867Z" fill="#76838F"/>
<path d="M304.872 177.586H278.25V179.207H304.872V177.586Z" fill="#76838F"/>
<path d="M247.586 181.237C260.091 178.311 267.856 165.802 264.93 153.297C262.004 140.792 249.495 133.027 236.99 135.953C224.485 138.879 216.72 151.388 219.646 163.893C222.572 176.398 235.081 184.163 247.586 181.237Z" fill="#027FC2"/>
<path d="M253.798 172.708L251.754 151.223C251.754 145.721 249.597 140.652 243.763 142.159C242.484 141.465 241.021 141.186 239.576 141.362C238.132 141.538 236.778 142.16 235.704 143.141C234.55 144.296 233.639 145.669 233.024 147.18C232.408 148.692 232.101 150.311 232.119 151.943L229.836 172.822L253.798 172.708Z" fill="#00293F"/>
<path d="M245.714 161.659V166.385C245.714 166.385 245.052 170.084 241.936 170.712C240.972 170.409 240.111 169.844 239.45 169.08C238.788 168.316 238.353 167.383 238.191 166.385V161.659H245.714Z" fill="#FFA683"/>
<path d="M245.714 160.987V164.001C244.557 164.619 243.265 164.942 241.953 164.942C240.641 164.942 239.349 164.619 238.191 164.001V160.987H245.714Z" fill="#E57C5C"/>
<path d="M249.587 151.465C247.398 151.308 245.354 150.315 243.879 148.691C241.767 150.518 234.381 151.465 234.381 151.465V154.376C234.482 156.87 235.321 159.277 236.79 161.294C237.394 162.111 238.181 162.775 239.088 163.232C239.995 163.69 240.996 163.928 242.012 163.928C243.028 163.928 244.03 163.69 244.937 163.232C245.844 162.775 246.631 162.111 247.235 161.294C248.704 159.277 249.542 156.87 249.644 154.376L249.587 151.465Z" fill="#FFA683"/>
<path d="M260.556 174.261C257.611 169.192 245.133 166.384 245.133 166.384L241.857 167.651L238.581 166.384C238.581 166.384 226.103 169.192 223.158 174.261L219.539 201.567L225.247 201.476L228.603 178.644C228.603 178.644 230.726 186.007 230.612 190.311C230.353 194.142 229.865 197.954 229.151 201.727H254.494C253.78 197.954 253.292 194.142 253.033 190.311C252.919 186.007 255.042 178.644 255.042 178.644L258.398 201.476L264.106 201.567L260.556 174.261Z" fill="#FFA683"/>
<path d="M251.982 168.505C251.345 170.682 250.02 172.594 248.204 173.954C246.389 175.314 244.182 176.049 241.914 176.049C239.645 176.049 237.438 175.314 235.623 173.954C233.808 172.594 232.482 170.682 231.845 168.505C229.905 169.231 228.046 170.157 226.297 171.267L228.58 178.699C228.617 178.76 228.648 178.825 228.671 178.893V178.699L228.911 179.555L228.98 179.818C229.952 183.256 230.523 186.796 230.681 190.366C230.422 194.197 229.934 198.009 229.219 201.782H254.562C253.848 198.009 253.36 194.197 253.101 190.366C252.987 186.062 255.11 178.699 255.11 178.699V179.007C255.157 178.901 255.21 178.798 255.27 178.699L257.553 171.313C255.804 170.177 253.936 169.236 251.982 168.505Z" fill="#51BCF4"/>
<path d="M402.808 195.665C402.4 195.658 402.002 195.542 401.655 195.329C401.308 195.116 401.024 194.815 400.833 194.455L388.972 170.733C388.972 170.733 387.545 165.025 385.867 165.025L385.695 172.583L393.755 201.738C394.223 203.565 395.17 205.163 397.602 205.163C404.326 205.624 410.992 206.717 417.511 208.428C421.151 209.388 424.978 209.388 428.619 208.428C428.927 195.049 407.888 195.779 402.808 195.665Z" fill="#FFA683"/>
<path d="M420.639 192.688V199.435H410.365V195.633C410.365 195.633 403.63 194.046 403.961 187.962C404.292 181.877 407.146 178.943 408.687 178.475C410.228 178.007 417.66 180.998 417.82 181.375C417.98 181.752 418.756 188.224 418.756 188.224L420.639 192.688Z" fill="#FFA683"/>
<path d="M409.885 183.473C409.885 183.473 411.7 180.916 413.39 182.183C415.079 183.45 414.235 185.985 412.123 187.252C412.123 187.252 414.235 194.444 418.458 194.021C421.198 193.561 423.665 192.087 425.368 189.891C427.07 187.696 427.884 184.94 427.648 182.172C427.18 175.208 418.082 170.3 413.116 171.281C408.15 172.263 403.207 177.823 409.885 183.473Z" fill="#3B3D42"/>
<path d="M427.602 177.781C427.602 177.781 433.115 170.76 438.629 176.845C444.143 182.929 447.613 189.744 450.136 191.057C452.659 192.37 447.979 195.544 441.905 193.58C435.832 191.616 427.978 184.128 427.602 177.781Z" fill="#3B3D42"/>
<path d="M410.4 199.435V195.633C410.4 195.633 414.59 195.793 416.371 194.172C416.371 194.172 415.115 197.071 412.387 197.151V199.435H410.4Z" fill="#ED7D5A"/>
<path d="M405.903 253.371C405.903 253.371 408.323 291.043 411.383 298.977C414.442 306.911 433.872 342.802 433.872 342.802L443.929 340.599L429.591 297.698C429.477 300.324 427.57 287.961 431.121 275.438C433.147 268.2 432.494 260.474 429.283 253.679L404.168 253.405" fill="#00293F"/>
<path d="M429.088 251.784C429.088 251.784 428.151 262.252 416.096 274.147C404.041 286.042 399.167 294.205 399.167 294.205L397.352 346.226H387.329C387.329 346.226 381.404 291.431 381.564 289.49C381.724 287.549 398.345 251.818 400.32 248.713C402.295 245.608 429.088 251.784 429.088 251.784Z" fill="#013957"/>
<path d="M421.689 198.888C421.689 198.888 432.443 199.698 428.481 213.032C424.155 227.61 429.121 250.978 430.102 253.387L426.883 254.676C417.216 258.307 406.522 258.079 397.02 254.037C397.02 254.037 405.57 235.178 399.485 225.315C395.581 218.968 396.734 212.564 401.3 206.89C404.257 203.226 407.99 199.39 409.463 199.321L421.689 198.888Z" fill="#027FC2"/>
<path d="M387.328 346.225H389.451L385.147 289.889C385.866 288.747 388.321 284.181 395.764 269.888C398.135 265.349 400.047 260.584 401.472 255.664C400.116 255.272 398.782 254.807 397.476 254.271C392.168 265.185 381.711 287.937 381.574 289.489C381.403 291.43 387.328 346.225 387.328 346.225Z" fill="#00293F"/>
<path d="M408.15 221.802C403.127 223.663 406.86 237.008 401.46 255.65C399.952 255.206 398.47 254.68 397.02 254.074C397.02 254.074 405.57 235.215 399.485 225.352C397.691 222.587 396.886 219.295 397.202 216.014L418.527 211.174C418.527 211.174 414.988 219.233 408.15 221.802Z" fill="#0069A2"/>
<path d="M362.189 188.363C362.189 188.363 381.71 220.807 387.407 222.611C389.941 223.433 405.729 217.268 412.385 216.172C414.119 215.888 415.681 214.957 416.757 213.568C417.833 212.179 418.342 210.433 418.184 208.683C417.796 204.517 413.024 200.978 408.937 201.834L387.03 208.683C387.03 208.683 368.422 189.539 364.336 185.156C364.336 185.156 362.623 179.756 360.078 179.756C357.806 179.756 361.253 186.503 362.189 188.363Z" fill="#FFA683"/>
<path d="M377.762 349.494C380.525 348.592 385.696 347.496 387.58 346.172H397.318C397.226 348.124 397.169 350.03 397.146 351.286C397.137 351.694 396.968 352.082 396.676 352.366C396.383 352.65 395.99 352.808 395.582 352.804H376.176C375.911 352.797 375.655 352.706 375.446 352.543C375.237 352.381 375.085 352.156 375.012 351.902C374.94 351.647 374.95 351.376 375.043 351.127C375.135 350.879 375.304 350.667 375.525 350.521C376.223 350.083 376.975 349.737 377.762 349.494Z" fill="#00111B"/>
<path d="M425.261 348.225C427.75 346.729 432.545 344.492 434.074 342.779L443.561 340.576C443.915 342.505 444.291 344.366 444.543 345.599C444.628 345.992 444.557 346.404 444.344 346.745C444.131 347.086 443.792 347.331 443.401 347.426L424.508 351.809C424.245 351.862 423.971 351.829 423.728 351.715C423.485 351.601 423.285 351.411 423.157 351.175C423.029 350.939 422.981 350.668 423.018 350.402C423.056 350.136 423.178 349.889 423.366 349.697C423.938 349.134 424.574 348.64 425.261 348.225Z" fill="#00111B"/>
<path opacity="0.58" d="M387.407 211.524C391.973 211.638 412.522 203.944 417.979 207.62C416.974 203.944 412.67 201.044 408.937 201.912L387.03 208.761C387.03 208.761 368.423 189.537 364.336 185.153C364.336 185.153 382.418 211.444 387.407 211.524Z" fill="#ED7D5A"/>
<path d="M427.452 177.353L426.025 177.615C427.081 179.367 427.59 181.394 427.487 183.437L429.336 183.083C429.336 183.083 429.142 177.958 427.452 177.353Z" fill="white"/>
<path d="M298.843 199.718H134.377C129.781 199.718 126.055 203.444 126.055 208.04V248.748C126.055 253.345 129.781 257.07 134.377 257.07H298.843C303.44 257.07 307.166 253.345 307.166 248.748V208.04C307.166 203.444 303.44 199.718 298.843 199.718Z" fill="white"/>
<path d="M206.058 218.853L207.199 222.277C207.238 222.395 207.313 222.497 207.414 222.568C207.514 222.64 207.635 222.678 207.759 222.677H211.366C211.488 222.678 211.607 222.717 211.706 222.789C211.804 222.861 211.878 222.962 211.916 223.079C211.954 223.195 211.954 223.32 211.917 223.436C211.88 223.553 211.807 223.654 211.708 223.727L208.786 225.85C208.687 225.923 208.613 226.025 208.574 226.141C208.535 226.258 208.534 226.384 208.569 226.501L209.711 229.926C209.747 230.042 209.746 230.167 209.708 230.282C209.67 230.398 209.597 230.499 209.499 230.57C209.401 230.642 209.282 230.681 209.161 230.683C209.039 230.684 208.92 230.647 208.82 230.577L205.898 228.453C205.798 228.381 205.678 228.342 205.555 228.342C205.432 228.342 205.312 228.381 205.213 228.453L202.29 230.577C202.191 230.647 202.072 230.684 201.95 230.683C201.829 230.681 201.71 230.642 201.612 230.57C201.514 230.499 201.44 230.398 201.402 230.282C201.364 230.167 201.364 230.042 201.4 229.926L202.542 226.501C202.582 226.385 202.584 226.259 202.547 226.142C202.51 226.024 202.436 225.922 202.336 225.85L199.414 223.727C199.315 223.654 199.243 223.553 199.205 223.436C199.168 223.32 199.169 223.195 199.206 223.079C199.244 222.962 199.318 222.861 199.416 222.789C199.515 222.717 199.634 222.678 199.756 222.677H203.364C203.487 222.676 203.607 222.638 203.707 222.566C203.807 222.495 203.883 222.394 203.923 222.277L205.064 218.853C205.117 218.768 205.19 218.697 205.276 218.649C205.363 218.6 205.461 218.574 205.561 218.574C205.661 218.574 205.759 218.6 205.846 218.649C205.933 218.697 206.006 218.768 206.058 218.853Z" fill="#FBBE42"/>
<path d="M226.092 218.852L227.234 222.277C227.27 222.393 227.343 222.495 227.442 222.567C227.54 222.639 227.659 222.677 227.781 222.676H231.389C231.511 222.677 231.63 222.716 231.729 222.788C231.827 222.861 231.901 222.962 231.939 223.078C231.976 223.194 231.977 223.319 231.94 223.436C231.902 223.552 231.83 223.654 231.731 223.727L228.809 225.85C228.712 225.924 228.64 226.026 228.603 226.143C228.567 226.259 228.567 226.384 228.603 226.501L229.745 229.925C229.785 230.043 229.785 230.17 229.747 230.289C229.709 230.407 229.634 230.51 229.534 230.583C229.433 230.656 229.312 230.694 229.187 230.693C229.063 230.692 228.942 230.651 228.843 230.576L225.921 228.453C225.823 228.381 225.705 228.343 225.584 228.343C225.463 228.343 225.345 228.381 225.247 228.453L222.302 230.599C222.203 230.674 222.082 230.714 221.958 230.716C221.833 230.717 221.712 230.678 221.611 230.606C221.51 230.533 221.436 230.43 221.398 230.312C221.36 230.193 221.36 230.066 221.4 229.948L222.542 226.523C222.578 226.407 222.578 226.282 222.542 226.166C222.505 226.049 222.433 225.947 222.336 225.873L219.414 223.749C219.315 223.677 219.243 223.575 219.205 223.459C219.168 223.342 219.169 223.217 219.206 223.101C219.244 222.985 219.318 222.883 219.416 222.811C219.515 222.739 219.634 222.7 219.756 222.699H223.364C223.486 222.7 223.605 222.661 223.703 222.59C223.802 222.518 223.875 222.416 223.912 222.3L225.053 218.875C225.1 218.778 225.172 218.695 225.262 218.637C225.353 218.579 225.458 218.546 225.565 218.544C225.673 218.542 225.779 218.569 225.872 218.624C225.965 218.678 226.041 218.757 226.092 218.852Z" fill="#76838F"/>
<path d="M246.125 218.849L247.266 222.273C247.306 222.39 247.382 222.491 247.482 222.562C247.582 222.634 247.702 222.673 247.825 222.673H251.433C251.555 222.674 251.674 222.713 251.773 222.785C251.871 222.857 251.945 222.958 251.983 223.075C252.02 223.191 252.021 223.316 251.984 223.432C251.946 223.549 251.874 223.65 251.775 223.723L248.853 225.846C248.753 225.918 248.679 226.02 248.642 226.138C248.605 226.255 248.607 226.381 248.647 226.497L249.789 229.922C249.825 230.038 249.825 230.163 249.787 230.278C249.749 230.394 249.675 230.495 249.577 230.566C249.479 230.638 249.36 230.677 249.239 230.679C249.117 230.68 248.998 230.643 248.899 230.573L245.976 228.449C245.877 228.377 245.757 228.338 245.634 228.338C245.511 228.338 245.391 228.377 245.291 228.449L242.369 230.573C242.269 230.643 242.15 230.68 242.028 230.679C241.907 230.677 241.788 230.638 241.69 230.566C241.592 230.495 241.519 230.394 241.481 230.278C241.443 230.163 241.442 230.038 241.478 229.922L242.62 226.497C242.655 226.38 242.654 226.254 242.615 226.137C242.576 226.021 242.502 225.919 242.403 225.846L239.423 223.735C239.325 223.662 239.252 223.56 239.215 223.444C239.178 223.327 239.178 223.202 239.216 223.086C239.254 222.97 239.328 222.868 239.426 222.796C239.525 222.724 239.644 222.685 239.766 222.684H243.373C243.497 222.686 243.618 222.648 243.718 222.576C243.819 222.504 243.894 222.402 243.933 222.285L245.074 218.86C245.121 218.76 245.194 218.676 245.286 218.616C245.379 218.557 245.486 218.525 245.596 218.523C245.706 218.522 245.814 218.552 245.907 218.61C246.001 218.667 246.076 218.75 246.125 218.849Z" fill="#76838F"/>
<path d="M266.15 218.848L267.291 222.273C267.328 222.39 267.401 222.491 267.499 222.563C267.598 222.635 267.717 222.673 267.839 222.673H271.389C271.512 222.673 271.63 222.713 271.729 222.785C271.828 222.857 271.901 222.958 271.939 223.074C271.977 223.191 271.977 223.316 271.94 223.432C271.903 223.548 271.83 223.65 271.732 223.723L268.809 225.846C268.709 225.918 268.634 226.019 268.595 226.136C268.556 226.253 268.555 226.379 268.593 226.497L269.734 229.922C269.771 230.038 269.77 230.162 269.732 230.278C269.694 230.394 269.62 230.494 269.522 230.566C269.424 230.638 269.306 230.677 269.184 230.678C269.062 230.679 268.943 230.642 268.844 230.572L265.921 228.449C265.822 228.377 265.702 228.338 265.579 228.338C265.456 228.338 265.336 228.377 265.236 228.449L262.314 230.572C262.214 230.642 262.095 230.679 261.974 230.678C261.852 230.677 261.734 230.638 261.635 230.566C261.537 230.494 261.464 230.394 261.426 230.278C261.388 230.162 261.387 230.038 261.423 229.922L262.565 226.497C262.605 226.381 262.607 226.255 262.57 226.138C262.533 226.02 262.459 225.918 262.36 225.846L259.437 223.723C259.339 223.65 259.266 223.548 259.229 223.432C259.192 223.316 259.192 223.191 259.23 223.074C259.268 222.958 259.341 222.857 259.44 222.785C259.539 222.713 259.657 222.673 259.78 222.673H263.398C263.522 222.672 263.642 222.634 263.742 222.562C263.842 222.491 263.918 222.39 263.958 222.273L265.099 218.848C265.147 218.749 265.221 218.666 265.314 218.607C265.407 218.549 265.515 218.518 265.624 218.518C265.734 218.518 265.842 218.549 265.935 218.607C266.028 218.666 266.102 218.749 266.15 218.848Z" fill="#76838F"/>
<path d="M286.231 218.85L287.373 222.274C287.41 222.391 287.483 222.492 287.581 222.564C287.68 222.636 287.799 222.675 287.921 222.674H291.528C291.651 222.675 291.769 222.714 291.868 222.786C291.967 222.858 292.04 222.959 292.078 223.076C292.116 223.192 292.116 223.317 292.079 223.433C292.042 223.55 291.969 223.651 291.871 223.724L288.948 225.847C288.849 225.919 288.775 226.021 288.738 226.139C288.701 226.256 288.703 226.382 288.743 226.498L289.884 229.923C289.924 230.041 289.925 230.168 289.887 230.286C289.849 230.405 289.774 230.508 289.673 230.58C289.572 230.653 289.451 230.692 289.327 230.69C289.203 230.689 289.082 230.648 288.983 230.574L286.06 228.45C285.961 228.378 285.841 228.339 285.718 228.339C285.595 228.339 285.475 228.378 285.375 228.45L282.464 230.574C282.365 230.648 282.244 230.689 282.12 230.69C281.996 230.692 281.874 230.653 281.774 230.58C281.673 230.508 281.598 230.405 281.56 230.286C281.522 230.168 281.523 230.041 281.562 229.923L282.704 226.498C282.741 226.381 282.74 226.254 282.702 226.137C282.663 226.02 282.587 225.919 282.487 225.847L279.576 223.724C279.479 223.652 279.406 223.551 279.368 223.436C279.331 223.321 279.33 223.196 279.367 223.081C279.403 222.965 279.475 222.864 279.572 222.791C279.669 222.718 279.786 222.677 279.907 222.674H283.526C283.648 222.675 283.767 222.636 283.866 222.564C283.964 222.492 284.037 222.391 284.074 222.274L285.215 218.85C285.266 218.759 285.34 218.684 285.429 218.632C285.518 218.579 285.62 218.552 285.723 218.552C285.827 218.552 285.929 218.579 286.018 218.632C286.107 218.684 286.181 218.759 286.231 218.85Z" fill="#76838F"/>
<path d="M257.337 236.354H199.094V237.975H257.337V236.354Z" fill="#76838F"/>
<path d="M257.337 209.718H199.094V212.766H257.337V209.718Z" fill="#027FC2"/>
<path d="M257.337 242.504H199.094V244.125H257.337V242.504Z" fill="#76838F"/>
<path d="M225.715 248.227H199.094V249.848H225.715V248.227Z" fill="#76838F"/>
<path d="M179.542 245.705C188.623 236.623 188.623 221.9 179.542 212.819C170.461 203.738 155.737 203.738 146.656 212.819C137.575 221.9 137.575 236.623 146.656 245.705C155.737 254.786 170.461 254.786 179.542 245.705Z" fill="#027FC2"/>
<path d="M113.441 318.088C113.441 318.088 152.883 285.051 159.812 296.729C166.742 308.407 156.536 346.228 156.536 346.228L113.441 318.088Z" fill="#013957"/>
<path d="M134.139 331.591L156.536 346.226C156.536 346.226 165.874 311.66 160.612 298.429C163.021 315.803 144.561 326.82 134.139 331.591Z" fill="#00293F"/>
<path d="M133.646 314.562C133.646 314.562 158.064 334.163 160.062 341.218C163.281 352.634 144.159 351.39 135.894 351.39C127.629 351.39 75.0371 349.928 75.0371 349.928L75.5052 341.835L124.079 339.551C124.079 339.551 97.1266 335.533 98.1312 319.973C99.1358 304.414 133.646 314.562 133.646 314.562Z" fill="#013957"/>
<path d="M158.738 347.688C154.275 352.094 142.071 351.375 135.907 351.375C127.642 351.375 74.9922 349.925 74.9922 349.925L75.4831 341.82L124.046 339.537C124.046 339.537 143.452 348.852 158.361 347.756L158.738 347.688Z" fill="#00293F"/>
<path d="M75.2312 349.792C75.2312 349.792 73.0965 354.621 74.7289 357.783C76.3614 360.946 69.2608 358.651 68.1192 352.35C66.9776 346.048 67.5256 338.525 75.4595 341.904L75.2312 349.792Z" fill="#00111B"/>
<path d="M102.607 266C102.607 266 120.336 214.767 120.873 214.995C122.731 215.718 124.639 216.309 126.581 216.764L119.274 272.998L102.607 266Z" fill="#0069A2"/>
<path d="M120.93 260.153C116.9 258.246 111.797 256.02 105.952 256.385C103.521 263.36 102.607 265.997 102.607 265.997L119.286 272.995L120.93 260.153Z" fill="#004C75"/>
<path d="M124.808 252.447C123.496 257.288 118.302 256.386 118.302 256.386V260.952H109.352V254.73C113.998 255.804 119.055 252.447 116.817 250.758C114.58 249.068 114.123 246.363 115.276 245.05C116.429 243.737 119.249 244.707 119.249 244.707C121.202 244.769 123.145 244.422 124.957 243.691C125.495 246.59 125.444 249.568 124.808 252.447Z" fill="#FFA683"/>
<path d="M119.288 244.733C119.288 244.733 116.491 243.728 115.338 245.064C114.185 246.399 114.642 249.162 116.879 250.772C119.117 252.381 114.048 255.806 109.39 254.733C104.733 253.66 102.141 243.945 106.137 237.609C109.801 231.81 122.678 229.287 125.281 235.326C127.884 241.365 128.021 244.493 119.288 244.733Z" fill="#3B3D42"/>
<path d="M118.303 260.986V256.42C116.871 256.242 115.465 255.897 114.113 255.393C114.851 256.295 115.734 257.066 116.727 257.676V260.975L118.303 260.986Z" fill="#E57C5C"/>
<path d="M120.701 261.078C120.701 261.078 105.861 255.953 101.728 267.46C97.5959 278.967 104.651 306.661 97.1621 316.148C102.936 318.847 109.195 320.357 115.564 320.588C121.934 320.82 128.285 319.768 134.24 317.495L135.862 316.878C135.862 316.878 130.69 281.604 130.439 282.837C130.234 283.864 147.917 289.503 151.444 287.574C154.971 285.645 176.308 261.558 176.308 261.558L169.127 260.496L149.834 273.167C149.834 273.167 125.565 261.386 120.701 261.078Z" fill="#027FC2"/>
<path d="M176.251 261.582C176.251 261.582 183.648 258.397 184.105 256.936H173.443C172.897 256.932 172.359 257.058 171.873 257.305C171.386 257.551 170.966 257.91 170.646 258.351L169.07 260.52L176.251 261.582Z" fill="#FFA683"/>
<path d="M135.806 316.901C135.806 316.901 131.239 285.918 130.486 283.042C130.626 283.156 130.775 283.259 130.931 283.35L130.383 282.859C130.383 282.859 119.104 280.119 115.086 275.37C115.086 275.37 118.922 283.224 123.853 285.051C128.248 286.672 126.684 310.428 130.075 318.864C131.456 318.487 132.837 318.042 134.184 317.528L135.806 316.901Z" fill="#0069A1"/>
<path d="M121.408 215.247C121.408 215.247 123.292 208.523 126.1 208.044V216.823L121.408 215.247Z" fill="#FFA683"/>
<path d="M188.636 263.326L187.14 249.901C187.005 248.827 186.636 247.795 186.061 246.878C185.485 245.961 184.716 245.181 183.807 244.593L179.149 241.545V241.659V241.556L175.314 240.072L171.398 238.554L168.167 237.309L166.74 236.75L163.179 238.577L159.628 236.75L158.373 237.241L155.325 238.382L151.192 239.981L147.219 241.522V241.59L142.653 244.558C141.744 245.147 140.975 245.927 140.399 246.844C139.824 247.761 139.455 248.792 139.32 249.867L137.824 263.326H147.265V274.49H179.035V263.326H188.636Z" fill="#51BCF4"/>
<path d="M163.316 213.177C160.799 213.177 158.385 214.176 156.604 215.955C154.823 217.733 153.821 220.146 153.818 222.663V227.23H172.803V222.663C172.803 220.147 171.803 217.734 170.024 215.955C168.245 214.176 165.832 213.177 163.316 213.177Z" fill="#00293F"/>
<path d="M167.071 234.26V237.582C167.058 237.671 167.039 237.758 167.014 237.844C166.523 239.808 164.867 243.552 163.235 243.552C161.603 243.552 160.016 239.659 159.65 237.673C159.648 237.643 159.648 237.612 159.65 237.582V234.26H167.071Z" fill="#FFA683"/>
<path d="M167.07 233.602V236.57C165.928 237.184 164.651 237.506 163.355 237.506C162.058 237.506 160.781 237.184 159.639 236.57V233.602H167.07Z" fill="#E57C5C"/>
<path d="M158.373 227.229C158.373 226.778 158.239 226.336 157.988 225.961C157.737 225.586 157.381 225.293 156.964 225.12C156.546 224.947 156.087 224.902 155.644 224.99C155.201 225.078 154.795 225.296 154.475 225.615C154.156 225.934 153.939 226.341 153.851 226.784C153.762 227.227 153.808 227.686 153.98 228.103C154.153 228.52 154.446 228.877 154.821 229.128C155.197 229.379 155.638 229.513 156.09 229.513C156.695 229.513 157.276 229.272 157.704 228.844C158.132 228.416 158.373 227.835 158.373 227.229Z" fill="#FFA683"/>
<path d="M172.744 227.229C172.744 226.778 172.61 226.336 172.359 225.961C172.108 225.586 171.752 225.293 171.335 225.12C170.917 224.947 170.458 224.902 170.015 224.99C169.573 225.078 169.166 225.296 168.846 225.615C168.527 225.934 168.31 226.341 168.222 226.784C168.134 227.227 168.179 227.686 168.352 228.103C168.524 228.52 168.817 228.877 169.192 229.128C169.568 229.379 170.009 229.513 170.461 229.513C171.066 229.513 171.647 229.272 172.075 228.844C172.503 228.416 172.744 227.835 172.744 227.229Z" fill="#FFA683"/>
<path d="M170.93 223.327C169.53 222.606 168.242 221.687 167.105 220.599H159.639C159.034 222.288 155.906 223.327 155.906 223.327L155.838 227.06C155.942 229.528 156.772 231.911 158.224 233.909C158.821 234.708 159.597 235.356 160.488 235.803C161.38 236.249 162.364 236.482 163.361 236.482C164.358 236.482 165.342 236.249 166.233 235.803C167.125 235.356 167.901 234.708 168.498 233.909C169.946 231.909 170.772 229.527 170.872 227.06L170.93 223.327Z" fill="#FFA683"/>
<path d="M378 269.938H213.533C208.937 269.938 205.211 273.664 205.211 278.261V318.969C205.211 323.565 208.937 327.291 213.533 327.291H378C382.596 327.291 386.322 323.565 386.322 318.969V278.261C386.322 273.664 382.596 269.938 378 269.938Z" fill="white"/>
<path d="M285.225 289.069L286.367 292.494C286.404 292.61 286.477 292.712 286.575 292.784C286.674 292.856 286.793 292.894 286.915 292.894H290.522C290.644 292.894 290.763 292.934 290.862 293.006C290.961 293.078 291.034 293.179 291.072 293.295C291.11 293.411 291.11 293.537 291.073 293.653C291.036 293.769 290.963 293.871 290.865 293.944L287.942 296.067C287.845 296.141 287.773 296.244 287.737 296.36C287.7 296.476 287.7 296.601 287.737 296.718L288.878 300.143C288.918 300.26 288.919 300.388 288.881 300.506C288.843 300.624 288.768 300.727 288.667 300.8C288.566 300.873 288.445 300.911 288.321 300.91C288.196 300.909 288.076 300.868 287.977 300.793L285.054 298.67C284.955 298.598 284.835 298.559 284.712 298.559C284.589 298.559 284.469 298.598 284.369 298.67L281.458 300.793C281.359 300.868 281.238 300.909 281.114 300.91C280.99 300.911 280.868 300.873 280.768 300.8C280.667 300.727 280.592 300.624 280.554 300.506C280.516 300.388 280.517 300.26 280.556 300.143L281.698 296.718C281.735 296.6 281.734 296.474 281.695 296.357C281.656 296.24 281.581 296.139 281.481 296.067L278.57 293.944C278.472 293.871 278.399 293.769 278.362 293.653C278.324 293.537 278.325 293.411 278.363 293.295C278.401 293.179 278.474 293.078 278.573 293.006C278.671 292.934 278.79 292.894 278.912 292.894H282.52C282.642 292.894 282.761 292.856 282.86 292.784C282.958 292.712 283.031 292.61 283.068 292.494L284.209 289.069C284.26 288.979 284.334 288.904 284.423 288.851C284.512 288.799 284.614 288.771 284.717 288.771C284.821 288.771 284.922 288.799 285.012 288.851C285.101 288.904 285.175 288.979 285.225 289.069Z" fill="#76838F"/>
<path d="M305.249 289.069L306.391 292.494C306.431 292.61 306.507 292.711 306.607 292.783C306.707 292.855 306.827 292.893 306.95 292.893H310.558C310.68 292.894 310.799 292.934 310.897 293.006C310.996 293.078 311.069 293.179 311.107 293.295C311.145 293.411 311.146 293.537 311.108 293.653C311.071 293.769 310.998 293.871 310.9 293.944L307.921 296.079C307.821 296.151 307.747 296.253 307.709 296.369C307.67 296.486 307.668 296.612 307.704 296.729L308.845 300.154C308.882 300.27 308.881 300.395 308.843 300.51C308.805 300.626 308.732 300.727 308.633 300.799C308.535 300.87 308.417 300.91 308.295 300.911C308.173 300.912 308.054 300.875 307.955 300.805L305.032 298.681C304.933 298.609 304.813 298.57 304.69 298.57C304.567 298.57 304.447 298.609 304.347 298.681L301.425 300.805C301.325 300.875 301.206 300.912 301.085 300.911C300.963 300.91 300.845 300.87 300.746 300.799C300.648 300.727 300.575 300.626 300.537 300.51C300.499 300.395 300.498 300.27 300.535 300.154L301.676 296.729C301.712 296.612 301.71 296.486 301.671 296.369C301.632 296.253 301.558 296.151 301.459 296.079L298.537 293.955C298.439 293.882 298.366 293.781 298.328 293.664C298.291 293.548 298.292 293.423 298.329 293.307C298.367 293.19 298.441 293.089 298.54 293.017C298.638 292.945 298.757 292.906 298.879 292.905H302.487C302.61 292.905 302.73 292.866 302.83 292.794C302.93 292.723 303.006 292.622 303.046 292.505L304.188 289.081C304.228 288.974 304.301 288.882 304.395 288.816C304.489 288.751 304.6 288.715 304.714 288.714C304.829 288.713 304.941 288.746 305.037 288.809C305.132 288.873 305.206 288.963 305.249 289.069Z" fill="#76838F"/>
<path d="M325.282 289.07L326.423 292.494C326.46 292.611 326.533 292.713 326.632 292.784C326.73 292.856 326.849 292.895 326.971 292.894H330.59C330.711 292.897 330.829 292.938 330.925 293.011C331.022 293.084 331.094 293.185 331.13 293.301C331.167 293.417 331.166 293.541 331.129 293.656C331.091 293.771 331.019 293.872 330.921 293.944L328.01 296.068C327.91 296.139 327.835 296.241 327.796 296.358C327.757 296.475 327.756 296.601 327.793 296.718L328.935 300.143C328.974 300.261 328.975 300.388 328.937 300.506C328.899 300.625 328.824 300.728 328.724 300.801C328.623 300.873 328.501 300.912 328.377 300.911C328.253 300.909 328.132 300.868 328.033 300.794L325.042 298.693C324.943 298.621 324.823 298.582 324.7 298.582C324.577 298.582 324.457 298.621 324.357 298.693L321.435 300.817C321.335 300.891 321.215 300.932 321.091 300.933C320.966 300.935 320.845 300.896 320.744 300.823C320.643 300.751 320.568 300.648 320.53 300.529C320.492 300.411 320.493 300.284 320.533 300.166L321.674 296.741C321.715 296.625 321.717 296.499 321.68 296.382C321.643 296.264 321.569 296.162 321.469 296.09L318.547 293.967C318.448 293.894 318.375 293.793 318.338 293.676C318.301 293.56 318.301 293.435 318.339 293.319C318.377 293.202 318.451 293.101 318.549 293.029C318.648 292.957 318.767 292.918 318.889 292.917H322.496C322.618 292.918 322.738 292.879 322.836 292.807C322.935 292.735 323.008 292.634 323.044 292.517L324.186 289.093C324.224 288.979 324.296 288.88 324.393 288.809C324.49 288.737 324.606 288.698 324.726 288.695C324.846 288.693 324.964 288.728 325.063 288.795C325.163 288.862 325.239 288.958 325.282 289.07Z" fill="#76838F"/>
<path d="M284.631 288.839C284.528 288.854 284.43 288.897 284.35 288.963C284.269 289.03 284.209 289.117 284.174 289.216L283.033 292.64C282.996 292.757 282.923 292.858 282.824 292.93C282.726 293.002 282.607 293.041 282.485 293.04H278.877C278.755 293.041 278.636 293.08 278.538 293.152C278.439 293.224 278.365 293.325 278.328 293.442C278.29 293.558 278.289 293.683 278.326 293.799C278.364 293.916 278.437 294.017 278.535 294.09L281.457 296.213C281.557 296.285 281.631 296.387 281.668 296.505C281.705 296.622 281.703 296.748 281.663 296.864L280.521 300.289C280.482 300.407 280.481 300.534 280.519 300.652C280.557 300.771 280.632 300.874 280.732 300.946C280.833 301.019 280.955 301.058 281.079 301.056C281.203 301.055 281.324 301.014 281.423 300.94L284.345 298.816C284.416 298.768 284.499 298.74 284.585 298.736L284.631 288.839Z" fill="#FBBE42"/>
<path d="M345.317 289.07L346.459 292.495C346.499 292.611 346.575 292.712 346.675 292.784C346.775 292.856 346.895 292.894 347.018 292.895H350.626C350.748 292.895 350.867 292.935 350.965 293.007C351.064 293.079 351.138 293.18 351.176 293.296C351.213 293.412 351.214 293.538 351.177 293.654C351.139 293.77 351.066 293.872 350.968 293.945L348.046 296.068C347.946 296.14 347.872 296.242 347.835 296.359C347.798 296.477 347.8 296.603 347.84 296.719L348.982 300.144C349.018 300.26 349.018 300.384 348.98 300.5C348.942 300.616 348.868 300.716 348.77 300.788C348.672 300.86 348.553 300.899 348.432 300.9C348.31 300.901 348.191 300.864 348.091 300.794L345.169 298.671C345.07 298.599 344.95 298.56 344.827 298.56C344.703 298.56 344.584 298.599 344.484 298.671L341.562 300.794C341.462 300.864 341.343 300.901 341.221 300.9C341.1 300.899 340.981 300.86 340.883 300.788C340.785 300.716 340.712 300.616 340.674 300.5C340.636 300.384 340.635 300.26 340.671 300.144L341.813 296.719C341.85 296.601 341.849 296.475 341.81 296.358C341.771 296.241 341.696 296.14 341.596 296.068L338.673 293.945C338.575 293.872 338.502 293.77 338.465 293.654C338.428 293.538 338.428 293.412 338.466 293.296C338.504 293.18 338.578 293.079 338.676 293.007C338.775 292.935 338.894 292.895 339.016 292.895H342.635C342.757 292.895 342.876 292.857 342.974 292.785C343.073 292.713 343.146 292.611 343.183 292.495L344.324 289.07C344.376 288.985 344.449 288.915 344.536 288.866C344.623 288.818 344.721 288.792 344.821 288.792C344.921 288.792 345.019 288.818 345.105 288.866C345.192 288.915 345.265 288.985 345.317 289.07Z" fill="#76838F"/>
<path d="M365.341 289.071L366.482 292.496C366.521 292.613 366.596 292.715 366.697 292.787C366.797 292.859 366.918 292.897 367.042 292.895H370.649C370.771 292.896 370.89 292.935 370.989 293.007C371.088 293.079 371.161 293.181 371.199 293.297C371.237 293.413 371.237 293.538 371.2 293.655C371.163 293.771 371.09 293.873 370.992 293.945L368.069 296.069C367.97 296.141 367.896 296.243 367.857 296.36C367.818 296.476 367.817 296.602 367.852 296.719L368.994 300.144C369.03 300.26 369.03 300.385 368.992 300.501C368.954 300.616 368.88 300.717 368.782 300.789C368.684 300.861 368.565 300.9 368.444 300.901C368.322 300.902 368.203 300.865 368.103 300.795L365.181 298.672C365.082 298.599 364.962 298.56 364.839 298.56C364.715 298.56 364.596 298.599 364.496 298.672L361.574 300.818C361.474 300.888 361.355 300.925 361.233 300.924C361.112 300.923 360.993 300.883 360.895 300.812C360.797 300.74 360.724 300.639 360.686 300.523C360.648 300.408 360.647 300.283 360.683 300.167L361.825 296.742C361.865 296.626 361.867 296.5 361.83 296.383C361.793 296.266 361.719 296.163 361.619 296.092L358.697 293.968C358.599 293.896 358.526 293.794 358.489 293.677C358.451 293.561 358.452 293.436 358.49 293.32C358.528 293.204 358.601 293.102 358.7 293.03C358.798 292.958 358.917 292.919 359.039 292.918H362.647C362.77 292.918 362.89 292.879 362.99 292.807C363.09 292.736 363.166 292.635 363.206 292.518L364.348 289.094C364.398 289.007 364.469 288.936 364.555 288.885C364.641 288.834 364.738 288.806 364.838 288.804C364.938 288.802 365.036 288.825 365.124 288.872C365.212 288.918 365.287 288.987 365.341 289.071Z" fill="#76838F"/>
<path d="M336.493 306.572H278.25V308.193H336.493V306.572Z" fill="#76838F"/>
<path d="M336.493 279.939H278.25V282.987H336.493V279.939Z" fill="#027FC2"/>
<path d="M336.493 312.722H278.25V314.343H336.493V312.722Z" fill="#76838F"/>
<path d="M304.872 318.441H278.25V320.062H304.872V318.441Z" fill="#76838F"/>
<path d="M262.096 310.956C268.802 300.003 265.36 285.688 254.408 278.981C243.455 272.275 229.139 275.717 222.433 286.67C215.726 297.622 219.168 311.938 230.121 318.644C241.073 325.35 255.389 321.908 262.096 310.956Z" fill="#027FC2"/>
<path d="M232.896 293.85C232.896 293.85 231.572 288.576 233.627 286.259C235.682 283.941 239.757 281.475 243.079 282.743C243.831 282.296 244.68 282.039 245.553 281.994C246.426 281.948 247.297 282.115 248.091 282.48C250.477 283.804 253.924 284.957 254.29 283.37C254.29 283.37 254.484 289.444 251.767 290.403L250.625 295.072H233.228L232.896 293.85Z" fill="#00293F"/>
<path d="M260.556 314.479C257.611 309.411 245.133 306.603 245.133 306.603L241.857 307.87L238.581 306.603C238.581 306.603 226.103 309.411 223.158 314.479L219.539 341.786L225.247 341.695L228.603 318.863C228.603 318.863 230.726 326.226 230.612 330.53C230.353 334.361 229.865 338.173 229.151 341.946H254.494C253.78 338.173 253.292 334.361 253.033 330.53C252.919 326.226 255.042 318.863 255.042 318.863L258.398 341.695L264.106 341.786L260.556 314.479Z" fill="#51BCF4"/>
<path d="M245.714 301.878V306.604C245.714 306.604 245.052 310.303 241.936 310.931C240.972 310.628 240.111 310.063 239.45 309.299C238.788 308.535 238.353 307.602 238.191 306.604V301.878H245.714Z" fill="#FFA683"/>
<path d="M245.714 301.201V304.215C244.557 304.833 243.265 305.156 241.953 305.156C240.641 305.156 239.349 304.833 238.191 304.215V301.201H245.714Z" fill="#E57C5C"/>
<path d="M249.587 291.679C247.398 291.522 245.354 290.529 243.879 288.905C241.767 290.732 234.381 291.679 234.381 291.679V294.59C234.482 297.084 235.321 299.491 236.79 301.508C237.394 302.325 238.181 302.989 239.088 303.446C239.995 303.903 240.996 304.142 242.012 304.142C243.028 304.142 244.03 303.903 244.937 303.446C245.844 302.989 246.631 302.325 247.235 301.508C248.704 299.491 249.542 297.084 249.644 294.59L249.587 291.679Z" fill="#FFA683"/>
<path d="M236.309 294.943C236.309 295.356 236.187 295.76 235.957 296.103C235.727 296.447 235.401 296.715 235.019 296.873C234.638 297.031 234.218 297.072 233.812 296.992C233.407 296.911 233.035 296.712 232.743 296.42C232.451 296.128 232.252 295.755 232.171 295.35C232.09 294.945 232.132 294.525 232.29 294.143C232.448 293.761 232.716 293.435 233.059 293.206C233.403 292.976 233.807 292.854 234.22 292.854C234.774 292.854 235.305 293.074 235.697 293.465C236.089 293.857 236.309 294.389 236.309 294.943Z" fill="#FFA683"/>
<path d="M251.709 294.943C251.709 295.356 251.587 295.76 251.357 296.103C251.128 296.447 250.802 296.715 250.42 296.873C250.038 297.031 249.618 297.072 249.213 296.992C248.808 296.911 248.435 296.712 248.143 296.42C247.851 296.128 247.652 295.755 247.571 295.35C247.491 294.945 247.532 294.525 247.69 294.143C247.848 293.761 248.116 293.435 248.46 293.206C248.803 292.976 249.207 292.854 249.62 292.854C250.174 292.854 250.706 293.074 251.098 293.465C251.489 293.857 251.709 294.389 251.709 294.943Z" fill="#FFA683"/>
<path d="M347.465 68.195C366.284 68.195 381.541 52.9387 381.541 34.119C381.541 15.2993 366.284 0.0429688 347.465 0.0429688C328.645 0.0429688 313.389 15.2993 313.389 34.119C313.389 52.9387 328.645 68.195 347.465 68.195Z" fill="#FBBE42"/>
<path d="M347.464 0.0456645H346.848C352.861 3.606 357.538 9.04179 360.162 15.5181C362.787 21.9945 363.212 29.1533 361.374 35.8949C359.536 42.6366 355.535 48.5883 349.986 52.836C344.438 57.0837 337.648 59.3924 330.66 59.4076C328.384 59.409 326.114 59.1641 323.891 58.677C327.914 62.5336 332.823 65.3443 338.185 66.8629C343.548 68.3814 349.201 68.5614 354.65 67.387C360.098 66.2127 365.175 63.7198 369.436 60.127C373.697 56.5341 377.012 51.951 379.089 46.7792C381.167 41.6075 381.944 36.0051 381.354 30.463C380.763 24.9209 378.821 19.6084 375.7 14.991C372.578 10.3737 368.372 6.59254 363.449 3.97894C358.526 1.36534 353.038 -0.00089228 347.464 4.37205e-07V0.0456645Z" fill="#F9A643"/>
<path d="M107.653 141.942C114.788 141.942 115.165 131.314 108.041 130.869H107.847V130.732C107.862 128.339 107.249 125.985 106.07 123.902C104.892 121.82 103.188 120.083 101.13 118.864C99.0708 117.644 96.7286 116.986 94.3362 116.953C91.9437 116.92 89.5844 117.515 87.493 118.677C85.9914 115.872 83.5956 113.65 80.6863 112.363C77.7769 111.076 74.5208 110.798 71.4354 111.573C68.3499 112.348 65.612 114.132 63.6566 116.642C61.7013 119.151 60.6406 122.242 60.6432 125.424C60.6204 125.842 60.6204 126.261 60.6432 126.679C57.2615 125.704 53.6575 125.828 50.3504 127.032C47.0433 128.236 44.2038 130.459 42.241 133.381C41.6925 134.217 41.3808 135.186 41.3389 136.185C41.2969 137.184 41.5264 138.176 42.0029 139.055C42.4794 139.934 43.1851 140.668 44.0451 141.178C44.905 141.689 45.8872 141.957 46.8872 141.954L107.653 141.942Z" fill="#51BCF4"/>
<path d="M326.881 55.1289C336.23 55.1289 336.721 41.2131 327.395 40.6081H327.132V40.4369C327.132 37.3092 326.318 34.2354 324.769 31.518C323.22 28.8006 320.991 26.5332 318.3 24.9389C315.609 23.3447 312.55 22.4785 309.422 22.4257C306.295 22.3728 303.208 23.1351 300.465 24.6375C298.497 20.9629 295.358 18.0512 291.546 16.3646C287.735 14.6781 283.469 14.3135 279.426 15.3288C275.383 16.3441 271.796 18.681 269.233 21.9683C266.67 25.2557 265.28 29.305 265.281 33.4733C265.281 34.0288 265.304 34.5768 265.35 35.1171C260.918 33.8466 256.197 34.0129 251.866 35.5921C247.534 37.1713 243.814 40.0823 241.24 43.9073C240.52 45.0023 240.109 46.2721 240.053 47.5817C239.997 48.8912 240.298 50.1915 240.922 51.344C241.546 52.4965 242.471 53.4582 243.599 54.1267C244.726 54.7952 246.014 55.1455 247.325 55.1404L326.881 55.1289Z" fill="#51BCF4"/>
<path d="M439.396 87.9355C430.8 87.9355 430.355 75.1498 438.928 74.6019H439.167V74.442C439.168 71.5686 439.916 68.7447 441.338 66.2481C442.761 63.7515 444.808 61.6682 447.28 60.2031C449.752 58.738 452.563 57.9415 455.436 57.8921C458.309 57.8427 461.145 58.542 463.666 59.9212C465.477 56.5462 468.363 53.8727 471.867 52.3248C475.37 50.7769 479.29 50.4433 483.005 51.3769C486.72 52.3105 490.016 54.4578 492.372 57.4782C494.727 60.4986 496.006 64.219 496.007 68.0492C496.007 68.5591 495.984 69.0614 495.938 69.5561C500.012 68.3883 504.35 68.5415 508.331 69.9936C512.313 71.4458 515.731 74.1222 518.096 77.6385C518.743 78.6446 519.108 79.8064 519.152 81.002C519.196 82.1976 518.917 83.3829 518.345 84.4337C517.773 85.4845 516.928 86.3619 515.9 86.974C514.872 87.5861 513.699 87.9103 512.502 87.9126L439.396 87.9355Z" fill="#51BCF4"/>
<path d="M469.658 327.334L471.348 326.775C471.599 323.852 470.343 318.932 463.711 311.341C451.439 297.288 440.879 277.276 443.585 269.468C443.585 269.468 431.575 287.527 439.681 299.457C447.272 310.644 467.478 313.053 469.658 327.334Z" fill="#0069A1"/>
<path d="M470.355 327.106L471.348 326.775C471.599 323.852 470.344 318.932 463.711 311.341C451.439 297.288 440.88 277.276 443.585 269.468C443.585 269.468 437.226 286.066 445.469 297.185C453.711 308.304 468.118 310.439 470.355 327.106Z" fill="#013957"/>
<path d="M474.588 315.329C474.071 317.738 473.306 320.087 472.305 322.338L473.092 322.464C476.688 317.624 482.59 308.023 483.892 295.854C485.81 278.068 488.389 255.796 488.389 255.796C488.389 255.796 470.273 270.739 474.337 291.504C476.334 301.858 475.809 309.701 474.588 315.329Z" fill="#0069A1"/>
<path d="M480.948 283.008C479.954 297.849 477.158 314.173 473.527 320.68C474.052 320.269 474.612 319.847 475.194 319.413C479.869 312.34 482.839 304.278 483.87 295.863C485.788 278.077 488.368 255.805 488.368 255.805C488.368 255.805 482.238 263.682 480.948 283.008Z" fill="#013957"/>
<path d="M477.822 322.258C476.584 323.689 475.199 324.987 473.689 326.127L474.169 326.504C480.991 323.425 486.893 318.621 491.293 312.566C499.169 301.298 509.147 287.257 509.147 287.257C509.147 287.257 491.407 290.682 486.464 306.116C484.724 312.033 481.782 317.529 477.822 322.258Z" fill="#0069A1"/>
<path d="M494.077 302.851C487.913 312.486 479.99 322.452 475.139 325.477L476.725 325.237C482.497 322.204 487.484 317.87 491.292 312.577C499.169 301.31 509.146 287.269 509.146 287.269C509.146 287.269 502.091 290.294 494.077 302.851Z" fill="#013957"/>
<path d="M471.027 321.682C472.169 324.856 472.957 327.025 473.436 328.532L474.075 328.383C473.036 322.824 471.233 313.212 469.509 306.91C467.009 297.618 468.95 293.108 466.94 276.944C464.931 260.779 455.342 239.432 455.342 239.432C455.342 239.432 449.155 261.955 458.002 283.451C466.849 304.947 466.13 307.721 471.027 321.682Z" fill="#0069A1"/>
<path d="M473.447 328.52H473.573L473.641 326.236C472.58 320.528 471.004 312.469 469.509 306.921C467.009 297.628 468.949 293.119 466.94 276.955C464.931 260.79 455.342 239.442 455.342 239.442C455.342 239.442 458.356 271.543 462.751 285.585C466.837 298.553 472.625 324.684 473.447 328.52Z" fill="#013957"/>
<path d="M455.181 325.282L459.051 348.239C459.229 349.277 459.767 350.218 460.571 350.897C461.375 351.576 462.394 351.948 463.446 351.949H485.878C486.929 351.948 487.946 351.575 488.748 350.896C489.55 350.217 490.086 349.276 490.262 348.239L494.143 325.282C494.222 324.795 494.195 324.296 494.063 323.819C493.931 323.343 493.697 322.901 493.378 322.524C493.06 322.147 492.663 321.843 492.215 321.633C491.768 321.423 491.281 321.313 490.787 321.31H458.503C458.012 321.318 457.528 321.432 457.085 321.644C456.642 321.855 456.249 322.16 455.934 322.537C455.619 322.914 455.389 323.354 455.259 323.828C455.129 324.301 455.102 324.797 455.181 325.282Z" fill="white"/>
<path d="M494.1 324.119C494.058 323.905 493.997 323.695 493.917 323.491C493.837 323.307 493.746 323.128 493.643 322.955L493.575 322.863C493.478 322.715 493.371 322.574 493.255 322.441L493.107 322.304C492.998 322.199 492.884 322.1 492.764 322.007L492.502 321.847C492.402 321.776 492.295 321.714 492.182 321.665L491.771 321.528L491.508 321.436C491.268 321.386 491.023 321.359 490.778 321.356H458.505C458.05 321.356 457.599 321.447 457.179 321.624C456.759 321.8 456.378 322.058 456.059 322.384C455.74 322.709 455.49 323.095 455.322 323.518C455.154 323.941 455.072 324.394 455.081 324.85H483.894C483.905 325.009 483.905 325.17 483.894 325.329L480.013 348.286C479.84 349.324 479.304 350.266 478.501 350.945C477.699 351.625 476.681 351.997 475.629 351.996H485.846C486.897 351.995 487.914 351.622 488.716 350.943C489.519 350.264 490.055 349.323 490.23 348.286L494.111 325.329C494.182 324.929 494.178 324.518 494.1 324.119Z" fill="#D5D5D5"/>
<path d="M158.909 157.866H108.257C107.392 157.865 106.536 158.034 105.737 158.363C104.938 158.693 104.212 159.177 103.6 159.788C102.988 160.399 102.503 161.124 102.172 161.923C101.84 162.721 101.67 163.577 101.67 164.442V204.237L114.558 192.559C115.607 191.611 116.969 191.087 118.383 191.086H158.909C160.11 191.071 161.256 190.583 162.101 189.729C162.945 188.874 163.418 187.721 163.418 186.52V162.318C163.388 161.137 162.902 160.013 162.061 159.183C161.22 158.353 160.09 157.881 158.909 157.866Z" fill="#003754"/>
<path d="M460.08 104.1H409.131C407.377 104.103 405.696 104.802 404.457 106.043C403.218 107.284 402.521 108.967 402.521 110.721V150.744L415.478 139.009C416.531 138.052 417.903 137.523 419.325 137.525H460.08C461.291 137.525 462.452 137.044 463.309 136.188C464.165 135.331 464.646 134.17 464.646 132.959V108.643C464.64 107.436 464.156 106.28 463.301 105.429C462.445 104.578 461.287 104.1 460.08 104.1Z" fill="#003754"/>
<path d="M448.038 123.699C448.483 123.748 448.893 123.965 449.185 124.305C449.477 124.645 449.629 125.084 449.61 125.532C449.592 125.98 449.403 126.404 449.084 126.718C448.764 127.033 448.337 127.214 447.889 127.226H444.465C444.286 127.238 444.107 127.238 443.928 127.226C443.032 127.144 442.128 127.19 441.245 127.363C439.75 127.694 441.519 129.521 440.583 132.877C439.647 136.233 436.371 136.039 436.531 134.475C436.69 132.911 436.862 129.167 435.994 127.991C435.369 127.188 434.592 126.516 433.706 126.014C432.82 125.513 431.844 125.191 430.834 125.069L430.766 116.176H434.259C435.598 114.936 437.298 114.156 439.111 113.95H445.766C445.978 113.948 446.189 113.989 446.385 114.069C446.582 114.149 446.761 114.267 446.911 114.417C447.062 114.567 447.182 114.745 447.263 114.941C447.345 115.137 447.387 115.347 447.387 115.559C447.387 115.802 447.332 116.042 447.228 116.261C447.123 116.48 446.971 116.674 446.782 116.826C447.182 116.865 447.556 117.038 447.845 117.318C448.133 117.598 448.317 117.967 448.368 118.365C448.418 118.764 448.332 119.168 448.122 119.51C447.913 119.853 447.593 120.114 447.216 120.251H447.467C447.7 120.25 447.93 120.294 448.146 120.383C448.361 120.471 448.557 120.601 448.721 120.766C448.886 120.931 449.016 121.126 449.105 121.342C449.193 121.557 449.238 121.788 449.236 122.021C449.235 122.39 449.119 122.75 448.905 123.051C448.69 123.352 448.387 123.578 448.038 123.699Z" fill="white"/>
<path d="M148.569 175.977C149.015 176.027 149.425 176.243 149.717 176.584C150.009 176.924 150.16 177.362 150.142 177.81C150.123 178.258 149.935 178.682 149.615 178.997C149.296 179.311 148.869 179.493 148.421 179.505H144.996C144.817 179.516 144.638 179.516 144.459 179.505C143.563 179.422 142.66 179.468 141.777 179.642C140.281 179.973 142.051 181.799 141.114 185.155C140.178 188.512 136.902 188.317 137.062 186.754C137.222 185.19 137.393 181.445 136.525 180.269C135.9 179.466 135.123 178.794 134.237 178.293C133.352 177.791 132.376 177.47 131.365 177.347L131.297 168.454H134.79C136.129 167.215 137.829 166.435 139.642 166.228H146.297C146.51 166.226 146.72 166.267 146.917 166.347C147.113 166.427 147.292 166.546 147.443 166.695C147.593 166.845 147.713 167.023 147.795 167.219C147.876 167.415 147.918 167.625 147.918 167.838C147.918 168.081 147.864 168.32 147.759 168.54C147.654 168.759 147.502 168.952 147.313 169.105C147.713 169.143 148.088 169.317 148.376 169.596C148.664 169.876 148.849 170.245 148.899 170.644C148.95 171.042 148.863 171.446 148.654 171.789C148.444 172.131 148.125 172.393 147.747 172.53H147.998C148.231 172.528 148.462 172.573 148.677 172.661C148.892 172.749 149.088 172.88 149.253 173.044C149.417 173.209 149.548 173.405 149.636 173.62C149.724 173.835 149.769 174.066 149.768 174.299C149.767 174.668 149.651 175.028 149.436 175.329C149.221 175.63 148.918 175.856 148.569 175.977Z" fill="white"/>
<path d="M531.958 214.084C532.906 214.189 533.778 214.65 534.399 215.374C535.02 216.098 535.343 217.031 535.303 217.984C535.263 218.937 534.863 219.839 534.183 220.508C533.504 221.177 532.596 221.564 531.642 221.589H524.358C523.978 221.614 523.597 221.614 523.217 221.589C521.311 221.414 519.39 221.512 517.512 221.88C514.331 222.585 518.094 226.471 516.103 233.612C514.112 240.753 507.144 240.34 507.484 237.012C507.824 233.685 508.188 225.718 506.343 223.216C505.014 221.507 503.36 220.078 501.476 219.011C499.593 217.944 497.517 217.26 495.368 216.998L495.223 198.077H502.652C505.5 195.44 509.115 193.781 512.971 193.341H527.126C527.578 193.338 528.026 193.424 528.444 193.595C528.862 193.766 529.242 194.017 529.563 194.336C529.883 194.654 530.138 195.033 530.311 195.45C530.485 195.867 530.574 196.314 530.574 196.766C530.574 197.283 530.458 197.793 530.235 198.259C530.013 198.726 529.689 199.137 529.287 199.462C530.137 199.544 530.935 199.913 531.548 200.508C532.161 201.103 532.553 201.889 532.66 202.736C532.768 203.584 532.584 204.443 532.138 205.172C531.693 205.901 531.013 206.457 530.21 206.749H530.744C531.239 206.745 531.73 206.84 532.188 207.029C532.646 207.217 533.062 207.494 533.412 207.844C533.762 208.194 534.039 208.611 534.227 209.069C534.415 209.527 534.511 210.018 534.507 210.513C534.505 211.299 534.259 212.065 533.802 212.705C533.345 213.345 532.701 213.827 531.958 214.084Z" fill="#99DBFF"/>
<path d="M420.969 114.546L426.951 114.535L427.031 127.526L421.037 127.537L420.969 114.546Z" fill="white"/>
<path d="M121.5 166.822L127.482 166.811L127.562 179.802L121.568 179.813L121.5 166.822Z" fill="white"/>
<path d="M474.002 194.546L486.799 194.521L486.97 222.791L474.148 222.815L474.002 194.546Z" fill="#99DBFF"/>
<path d="M343.742 249.392C341.815 246.018 341.14 242.073 341.835 238.25C342.53 234.427 344.552 230.972 347.544 228.493C350.536 226.014 354.306 224.67 358.192 224.698C362.077 224.725 365.828 226.122 368.785 228.643C371.742 231.164 373.715 234.647 374.356 238.479C374.998 242.311 374.267 246.246 372.292 249.593C370.318 252.939 367.226 255.482 363.562 256.773C359.897 258.065 355.894 258.022 352.258 256.653C351.216 256.256 350.072 256.216 349.005 256.538L342.578 258.479L344.153 253.285C344.354 252.642 344.421 251.966 344.35 251.296C344.28 250.627 344.073 249.979 343.742 249.392Z" fill="#003754"/>
<path d="M358.315 232.487L356.68 237.495C356.631 237.631 356.541 237.748 356.423 237.832C356.305 237.916 356.163 237.963 356.018 237.965H350.705C350.557 237.961 350.412 238.004 350.291 238.088C350.17 238.173 350.08 238.293 350.034 238.432C349.988 238.571 349.989 238.721 350.036 238.859C350.083 238.998 350.174 239.118 350.296 239.201L354.593 242.295C354.712 242.379 354.801 242.499 354.847 242.636C354.893 242.774 354.893 242.923 354.847 243.061L353.212 248.068C353.157 248.212 353.153 248.369 353.198 248.515C353.244 248.661 353.338 248.788 353.464 248.875C353.591 248.963 353.743 249.007 353.898 248.999C354.052 248.992 354.199 248.933 354.317 248.834L358.613 245.739C358.732 245.654 358.875 245.608 359.022 245.608C359.169 245.608 359.312 245.654 359.431 245.739L363.728 248.834C363.845 248.933 363.992 248.992 364.147 248.999C364.301 249.007 364.453 248.963 364.58 248.875C364.707 248.788 364.8 248.661 364.846 248.515C364.891 248.369 364.887 248.212 364.832 248.068L363.153 243.061C363.104 242.924 363.102 242.776 363.146 242.638C363.189 242.5 363.277 242.379 363.396 242.295L367.704 239.201C367.826 239.118 367.917 238.998 367.964 238.859C368.011 238.721 368.012 238.571 367.966 238.432C367.92 238.293 367.83 238.173 367.709 238.088C367.588 238.004 367.443 237.961 367.295 237.965H361.938C361.792 237.966 361.649 237.921 361.53 237.836C361.411 237.752 361.322 237.633 361.275 237.495L359.63 232.487C359.588 232.347 359.501 232.223 359.383 232.135C359.264 232.048 359.12 232 358.972 232C358.824 232 358.68 232.048 358.562 232.135C358.443 232.223 358.357 232.347 358.315 232.487Z" fill="#001724"/>
<path d="M359 232C358.853 232.021 358.715 232.081 358.601 232.173C358.486 232.266 358.4 232.387 358.351 232.524L356.728 237.289C356.676 237.451 356.573 237.593 356.432 237.693C356.292 237.793 356.123 237.846 355.95 237.845H350.822C350.648 237.846 350.48 237.901 350.339 238.001C350.199 238.102 350.095 238.243 350.041 238.404C349.987 238.566 349.986 238.74 350.039 238.902C350.092 239.064 350.196 239.206 350.335 239.307L354.489 242.261C354.631 242.361 354.736 242.503 354.789 242.667C354.841 242.83 354.839 243.005 354.781 243.167L353.159 247.932C353.102 248.096 353.101 248.273 353.155 248.438C353.209 248.602 353.316 248.746 353.459 248.847C353.602 248.948 353.775 249.002 353.951 249C354.128 248.998 354.299 248.941 354.441 248.837L358.594 245.883C358.695 245.815 358.813 245.777 358.935 245.772L359 232Z" fill="#FBBE42"/>
</svg>
