<svg width="39" height="40" viewBox="0 0 39 40" fill="none" xmlns="http://www.w3.org/2000/svg">
<path d="M33.4844 0C36.2458 0 38.4844 2.55837 38.4844 5.71429V34.2857C38.4844 37.4417 36.2458 40 33.4844 40C30.7229 40 28.4844 37.4417 28.4844 34.2857V5.71429C28.4844 2.55837 30.7229 0 33.4844 0Z" fill="#027FC2"/>
<path d="M24.4844 13.8182C24.4844 10.6049 22.2458 8 19.4844 8C16.7229 8 14.4844 10.6049 14.4844 13.8182V34.1818C14.4844 37.3952 16.7229 40 19.4844 40C22.2458 40 24.4844 37.3952 24.4844 34.1818V13.8182Z" fill="#027FC2"/>
<path d="M10.4844 22.75C10.4844 19.5744 8.24587 17 5.48437 17C2.72287 17 0.484374 19.5744 0.484374 22.75V34.25C0.484374 37.4257 2.72287 40 5.48437 40C8.24587 40 10.4844 37.4257 10.4844 34.25V22.75Z" fill="#51BCF4"/>
</svg>
