<svg width="566" height="401" viewBox="0 0 566 401" fill="none" xmlns="http://www.w3.org/2000/svg">
<path fill-rule="evenodd" clip-rule="evenodd" d="M61.3043 100.606C99.0854 67.9574 160.032 66.2068 213.096 52.2837C259.667 40.0643 303.935 17.4108 352.252 24.2657C401.311 31.226 438.394 60.7392 473.049 89.1646C508.955 118.615 542.441 150.336 554.499 190.153C567.748 233.906 575.557 284.468 543.405 321.495C511.728 357.974 447.134 360.257 394.296 374.642C346.95 387.531 301.643 402.046 251.583 400.941C192.208 399.629 128.592 397.818 82.8135 367.762C34.0116 335.72 4.47301 286.162 0.438365 236.049C-3.51119 186.994 19.4237 136.796 61.3043 100.606Z" fill="white"/>
<g clip-path="url(#clip0_5145_44909)">
<path d="M206.196 52.5421C202.642 33.5208 208.237 11.8808 223.789 0.367188C222.908 21.3918 229.491 42.0505 242.375 58.6882C247.367 65.0867 253.586 71.6835 253.393 79.7968C253.273 84.845 250.543 89.5479 246.945 93.0909C243.347 96.634 238.915 99.1885 234.535 101.703L233.854 102.764C221.017 88.284 209.75 71.5634 206.196 52.5421Z" fill="#76CFFF"/>
<path d="M224.074 0.657983C217.54 15.2813 215.78 31.5917 219.043 47.2724C219.686 50.6605 220.858 53.9262 222.518 56.9492C224.23 59.8418 226.685 62.2232 229.628 63.846C232.342 65.4142 235.3 66.704 237.586 68.9047C238.739 70.0485 239.637 71.4232 240.222 72.9386C240.807 74.454 241.064 76.0759 240.978 77.6978C240.869 81.7449 239.312 85.5113 237.661 89.1416C235.828 93.1723 233.861 97.33 233.979 101.862C233.994 102.411 233.141 102.401 233.127 101.853C232.92 93.9684 238.62 87.6364 239.89 80.071C240.483 76.5409 240.015 72.8108 237.533 70.0744C235.363 67.6816 232.314 66.3489 229.552 64.7848C226.658 63.2438 224.185 61.0175 222.349 58.3003C220.541 55.3716 219.244 52.1565 218.515 48.7928C216.752 41.2461 216.186 33.4691 216.839 25.7468C217.535 16.9293 219.734 8.29575 223.342 0.219835C223.565 -0.27992 224.296 0.161485 224.074 0.657972L224.074 0.657983Z" fill="white"/>
<path d="M217.694 42.285C214.989 42.4754 212.304 41.698 210.12 40.0916C207.935 38.4853 206.392 36.1545 205.767 33.5156C205.642 32.9813 206.467 32.7625 206.591 33.2976C207.169 35.7559 208.606 37.9269 210.644 39.4186C212.682 40.9103 215.185 41.6245 217.703 41.4322C218.251 41.3911 218.239 42.2441 217.694 42.285Z" fill="white"/>
<path d="M228.147 63.2318C231.819 59.079 233.791 53.6946 233.67 48.1523C233.657 47.6032 234.51 47.6127 234.523 48.1612C234.638 53.9289 232.574 59.5281 228.743 63.8412C228.378 64.252 227.783 63.6405 228.147 63.2318Z" fill="white"/>
<path d="M218.534 17.459C219.596 17.6035 220.678 17.4819 221.681 17.1051C222.685 16.7284 223.579 16.1083 224.283 15.3006C224.643 14.8853 225.238 15.4974 224.88 15.91C224.097 16.7987 223.109 17.4823 222.001 17.901C220.894 18.3197 219.7 18.4608 218.525 18.3118C218.414 18.3071 218.308 18.2599 218.229 18.1799C218.151 18.0998 218.106 17.993 218.104 17.881C218.105 17.7681 218.152 17.6604 218.232 17.5814C218.313 17.5024 218.421 17.4584 218.534 17.459Z" fill="white"/>
<path d="M287.389 16.1003C287.172 16.366 286.954 16.6318 286.739 16.9044C283.834 20.4917 281.225 24.3091 278.938 28.3189C278.757 28.6261 278.577 28.9402 278.405 29.252C272.998 38.9712 269.444 49.6096 267.921 60.6265C267.319 65.0109 267.052 69.4347 267.121 73.8597C267.217 79.9708 267.808 86.5892 265.934 92.2097C265.745 92.7983 265.52 93.3746 265.26 93.9353L235.201 103.513C235.122 103.5 235.044 103.494 234.965 103.482L233.782 103.919C233.762 103.691 233.747 103.454 233.727 103.226C233.716 103.094 233.71 102.96 233.699 102.828C233.693 102.739 233.687 102.65 233.677 102.57C233.675 102.541 233.673 102.511 233.673 102.488C233.663 102.408 233.662 102.333 233.654 102.26C233.564 100.937 233.482 99.6107 233.413 98.2803C233.411 98.2735 233.411 98.2735 233.415 98.2645C232.899 88.1323 233.225 77.868 235.098 67.9793C235.154 67.6818 235.208 67.3776 235.278 67.0757C236.147 62.6231 237.379 58.2489 238.96 53.9969C239.834 51.6714 240.825 49.3916 241.929 47.1663C244.793 41.4219 248.542 36.1638 253.04 31.5846C262.007 22.4573 273.794 16.2996 286.424 16.1057C286.747 16.101 287.064 16.0982 287.389 16.1003Z" fill="#76CFFF"/>
<path d="M287.443 16.5039C273.422 24.2459 262.197 36.209 255.362 50.6941C253.835 53.7863 252.805 57.0998 252.31 60.5126C251.935 63.8528 252.462 67.2323 253.835 70.3002C255.058 73.1863 256.643 75.997 257.143 79.1302C257.375 80.7378 257.265 82.3763 256.819 83.9382C256.373 85.5002 255.603 86.9503 254.557 88.1935C252.033 91.359 248.522 93.4288 245.019 95.3335C241.129 97.4484 237.054 99.5834 234.421 103.273C234.102 103.72 233.427 103.199 233.745 102.753C238.327 96.333 246.691 94.7091 252.26 89.4333C254.858 86.9715 256.731 83.7117 256.397 80.0326C256.105 76.8154 254.472 73.9157 253.209 71.0041C251.826 68.0309 251.191 64.7643 251.361 61.4895C251.681 58.0625 252.582 54.7148 254.024 51.5899C257.16 44.5028 261.391 37.9529 266.562 32.1801C272.426 25.5589 279.38 19.9897 287.123 15.7135C287.602 15.449 287.92 16.2412 287.443 16.5039Z" fill="white"/>
<path d="M257.288 45.8998C255.013 44.4231 253.337 42.1859 252.56 39.5879C251.783 36.9898 251.954 34.2 253.044 31.7166C253.266 31.2149 254.056 31.5366 253.833 32.039C252.814 34.3496 252.655 36.9484 253.384 39.3662C254.113 41.7841 255.682 43.8617 257.808 45.2242C258.27 45.5209 257.747 46.1947 257.288 45.8998Z" fill="white"/>
<path d="M253.022 68.9182C258.455 67.8134 263.271 64.7017 266.512 60.2034C266.832 59.7575 267.507 60.2786 267.187 60.724C263.807 65.3987 258.788 68.6267 253.132 69.764C252.593 69.872 252.486 69.0256 253.022 68.9182V68.9182Z" fill="white"/>
<path d="M272.906 26.583C273.667 27.3377 274.603 27.8916 275.631 28.195C276.659 28.4983 277.747 28.5416 278.796 28.3209C279.333 28.2061 279.439 29.0526 278.905 29.1666C277.745 29.4051 276.545 29.3558 275.408 29.0232C274.271 28.6906 273.234 28.0847 272.385 27.2585C272.299 27.1873 272.243 27.0858 272.228 26.9748C272.214 26.8637 272.242 26.7513 272.308 26.6604C272.377 26.5713 272.479 26.5132 272.591 26.4987C272.703 26.4842 272.816 26.5144 272.906 26.5829V26.583Z" fill="white"/>
<path d="M377.784 144.193C377.863 144.542 377.915 144.896 377.938 145.253L405.701 161.269L412.449 157.385L419.643 166.802L408.365 174.841C407.454 175.49 406.357 175.826 405.239 175.799C404.12 175.772 403.041 175.383 402.162 174.69L373.534 152.104C372.242 152.583 370.835 152.656 369.5 152.315C368.165 151.974 366.966 151.235 366.061 150.196C365.157 149.157 364.59 147.867 364.437 146.498C364.283 145.129 364.55 143.745 365.202 142.532C365.854 141.318 366.86 140.332 368.086 139.704C369.313 139.076 370.701 138.836 372.067 139.016C373.433 139.197 374.711 139.789 375.732 140.713C376.754 141.638 377.469 142.852 377.784 144.193Z" fill="#FFB6B6"/>
<path d="M406.085 159.502C406.173 159.093 406.349 158.708 406.599 158.374C406.849 158.039 407.169 157.762 407.536 157.562L420.353 150.579C422.06 149.29 424.209 148.731 426.327 149.025C428.445 149.318 430.361 150.439 431.654 152.143C432.946 153.846 433.511 155.993 433.223 158.112C432.935 160.231 431.819 162.15 430.118 163.447L419.845 173.883C419.552 174.181 419.198 174.412 418.808 174.561C418.417 174.709 417.999 174.772 417.582 174.745C417.165 174.717 416.759 174.6 416.391 174.402C416.023 174.203 415.703 173.928 415.451 173.594L406.606 161.867C406.354 161.533 406.177 161.149 406.087 160.741C405.998 160.333 405.997 159.91 406.085 159.502Z" fill="#1D4C66"/>
<path d="M421.461 125.878C423.305 120 427.499 114.61 433.299 112.623C439.099 110.636 447.592 113.663 451.952 118.009C459.928 125.958 460.174 135.689 454.694 144.319C453.604 144.261 449.843 144.218 448.74 144.177L447.179 138.976V144.126C438.568 143.86 429.604 144.026 420.635 144.199C419.831 138.089 419.616 131.755 421.461 125.878Z" fill="#3B3D42"/>
<path d="M426.518 365.602H418.664L414.928 335.309L426.519 335.309L426.518 365.602Z" fill="#FFB6B6"/>
<path d="M474.922 365.602H467.068L463.332 335.309L474.924 335.309L474.922 365.602Z" fill="#FFB6B6"/>
<path d="M451.989 179.545L453.768 184.172L453.412 188.799L418.584 200.862L420.312 180.613L424.227 175.986L451.989 179.545Z" fill="#FFB6B6"/>
<path d="M434.031 144.319C440.901 144.319 446.47 138.75 446.47 131.88C446.47 125.01 440.901 119.44 434.031 119.44C427.161 119.44 421.592 125.01 421.592 131.88C421.592 138.75 427.161 144.319 434.031 144.319Z" fill="#FFB7B7"/>
<path d="M459.786 200.776V208.682C459.786 208.682 469.04 220.707 464.057 229.961L478.334 353.111H463.386L438.431 249.18L427.795 350.975H414.982L413.454 270.016C413.053 248.721 416.608 227.536 423.94 207.539V207.539L459.786 200.776Z" fill="#027FC2"/>
<path d="M425.484 115.682C427.874 114.225 430.612 113.437 433.411 113.4C436.21 113.363 438.967 114.079 441.395 115.472C443.823 116.866 445.831 118.886 447.211 121.322C448.591 123.757 449.291 126.519 449.238 129.318C442.285 129.637 434.981 129.721 427.574 129.735L425.824 125.451L424.792 129.738C422.535 129.738 420.274 129.735 418.009 129.729C417.916 126.938 418.558 124.172 419.87 121.707C421.182 119.242 423.118 117.164 425.484 115.682Z" fill="#3B3D42"/>
<path d="M430.031 380.515H424.458L423.464 375.254L420.916 380.515H406.135C405.427 380.515 404.737 380.289 404.166 379.869C403.595 379.449 403.174 378.858 402.963 378.181C402.752 377.505 402.763 376.779 402.994 376.109C403.225 375.439 403.664 374.861 404.247 374.458L416.051 366.307V360.987L428.466 361.728L430.031 380.515Z" fill="#027FC2"/>
<path d="M479.147 380.515H473.574L472.579 375.254L470.031 380.515H455.251C454.542 380.515 453.852 380.289 453.281 379.869C452.711 379.449 452.289 378.858 452.078 378.181C451.867 377.505 451.878 376.779 452.109 376.109C452.34 375.439 452.779 374.861 453.363 374.458L465.166 366.307V360.987L477.581 361.728L479.147 380.515Z" fill="#027FC2"/>
<path d="M465.446 226.131C466.137 216.63 465.425 207.078 463.331 197.785C460.689 186.057 457.332 171.133 457.267 170.747C457.266 170.739 457.265 170.732 457.265 170.724L456.242 148.863C456.239 148.8 456.212 148.74 456.167 148.695C456.122 148.651 456.061 148.625 455.998 148.623L448.92 148.385C448.855 148.383 448.793 148.355 448.747 148.308C448.701 148.261 448.676 148.198 448.676 148.132C448.676 147.605 448.572 147.083 448.37 146.596C448.169 146.109 447.873 145.666 447.5 145.293C447.127 144.92 446.684 144.625 446.197 144.423C445.71 144.221 445.188 144.117 444.661 144.117H430.525C429.609 144.118 428.725 144.452 428.039 145.058C427.352 145.664 426.91 146.499 426.796 147.408C426.79 147.471 426.76 147.528 426.713 147.57C426.666 147.612 426.605 147.634 426.542 147.633L421.042 147.448C420.986 147.446 420.932 147.462 420.887 147.494C420.842 147.526 420.809 147.572 420.792 147.624L420.409 148.84C414.856 166.722 413.315 185.609 415.894 204.155C416.56 209.091 416.258 216.511 416.006 220.646C415.981 221.05 416.036 221.455 416.168 221.838C416.3 222.221 416.507 222.574 416.776 222.876C417.044 223.179 417.37 223.426 417.735 223.602C418.099 223.779 418.495 223.881 418.899 223.904C429.126 224.493 458.08 238.502 465.012 231.814C465.028 231.798 465.213 229.33 465.446 226.131Z" fill="#1D4C66"/>
<path d="M408.735 144.193C408.814 144.542 408.866 144.896 408.889 145.253L436.652 161.269L443.401 157.385L450.595 166.802L439.317 174.841C438.405 175.49 437.308 175.826 436.19 175.799C435.071 175.772 433.992 175.383 433.113 174.69L404.485 152.104C403.193 152.583 401.786 152.656 400.451 152.315C399.116 151.974 397.917 151.235 397.012 150.196C396.108 149.157 395.541 147.867 395.388 146.498C395.234 145.129 395.501 143.745 396.153 142.532C396.805 141.318 397.811 140.332 399.038 139.704C400.264 139.076 401.652 138.836 403.018 139.016C404.384 139.197 405.662 139.789 406.683 140.713C407.705 141.638 408.42 142.852 408.735 144.193Z" fill="#FFB6B6"/>
<path d="M437.038 159.501C437.127 159.093 437.302 158.708 437.552 158.373C437.802 158.039 438.122 157.762 438.489 157.562L451.307 150.578C453.014 149.291 455.162 148.732 457.28 149.026C459.398 149.319 461.313 150.44 462.605 152.144C463.898 153.847 464.462 155.993 464.175 158.112C463.887 160.231 462.771 162.149 461.072 163.447L450.799 173.883C450.505 174.181 450.151 174.412 449.761 174.56C449.37 174.709 448.952 174.772 448.535 174.745C448.118 174.717 447.712 174.6 447.344 174.402C446.976 174.203 446.656 173.927 446.404 173.594L437.559 161.867C437.307 161.533 437.13 161.149 437.041 160.741C436.951 160.333 436.95 159.91 437.038 159.501Z" fill="#1D4C66"/>
<path d="M97.3728 337.361C115.262 337.361 129.763 322.859 129.763 304.97C129.763 287.082 115.262 272.58 97.3728 272.58C79.4841 272.58 64.9824 287.082 64.9824 304.97C64.9824 322.859 79.4841 337.361 97.3728 337.361Z" fill="#76CFFF"/>
<path d="M383.598 192.572L148.869 300.341C145.528 301.87 141.717 302.012 138.271 300.735C134.826 299.457 132.028 296.866 130.491 293.528L72.5656 167.362C71.0362 164.021 70.8946 160.209 72.1718 156.764C73.449 153.319 76.0407 150.52 79.3784 148.983L314.107 41.215C317.448 39.6856 321.259 39.544 324.705 40.8212C328.15 42.0984 330.948 44.6901 332.485 48.0278L390.411 174.194C391.94 177.535 392.082 181.346 390.805 184.792C389.527 188.237 386.935 191.035 383.598 192.572Z" fill="white"/>
<path d="M83.2824 157.487C82.1981 157.986 81.3561 158.895 80.9412 160.015C80.5263 161.134 80.5723 162.372 81.0692 163.457L138.994 289.623C139.494 290.708 140.403 291.55 141.522 291.965C142.641 292.38 143.88 292.333 144.965 291.837L379.693 184.068C380.778 183.569 381.62 182.66 382.034 181.541C382.449 180.421 382.403 179.183 381.907 178.098L323.981 51.9318C323.482 50.8475 322.573 50.0055 321.454 49.5906C320.334 49.1757 319.096 49.2217 318.011 49.7186L83.2824 157.487Z" fill="#027FC2"/>
<path d="M383.598 192.572L148.869 300.341C145.528 301.87 141.717 302.012 138.271 300.735C134.826 299.457 132.028 296.866 130.491 293.528L72.5656 167.362C71.0362 164.021 70.8946 160.209 72.1718 156.764C73.449 153.319 76.0407 150.52 79.3784 148.983L314.107 41.215C317.448 39.6856 321.259 39.544 324.705 40.8212C328.15 42.0984 330.948 44.6901 332.485 48.0278L390.411 174.194C391.94 177.535 392.082 181.346 390.805 184.792C389.527 188.237 386.935 191.035 383.598 192.572ZM79.979 150.292C76.988 151.669 74.6654 154.176 73.5209 157.264C72.3763 160.352 72.5033 163.767 73.8738 166.761L131.799 292.927C133.176 295.918 135.684 298.241 138.772 299.385C141.859 300.53 145.275 300.403 148.269 299.032L382.997 191.264C385.988 189.887 388.311 187.379 389.455 184.292C390.6 181.204 390.473 177.788 389.102 174.794L331.177 48.6284C329.8 45.6374 327.292 43.3149 324.205 42.1703C321.117 41.0258 317.702 41.1527 314.707 42.5233L79.979 150.292Z" fill="#CACACA"/>
<path d="M324.945 135.321L138.467 220.936C136.965 221.623 135.288 221.83 133.664 221.528C132.04 221.226 130.549 220.431 129.394 219.25L74.8348 163.299C73.94 162.381 73.2785 161.262 72.9061 160.036C72.5336 158.81 72.461 157.512 72.6944 156.251C72.9277 154.991 73.4602 153.805 74.2471 152.794C75.034 151.782 76.0522 150.974 77.2162 150.437L316.199 40.2708C317.347 39.7415 318.605 39.492 319.869 39.5425C321.133 39.5931 322.367 39.9424 323.47 40.5618C324.573 41.1811 325.513 42.053 326.214 43.1059C326.915 44.1588 327.357 45.3628 327.503 46.6192L327.535 46.6184L329.608 127.84C329.649 129.407 329.229 130.951 328.4 132.281C327.571 133.611 326.37 134.668 324.945 135.321ZM316.809 41.5744L77.8187 151.745C76.8639 152.185 76.0288 152.847 75.3834 153.677C74.738 154.507 74.3013 155.48 74.1098 156.513C73.9184 157.547 73.978 158.611 74.2835 159.617C74.5889 160.623 75.1314 161.541 75.8653 162.294L130.425 218.245C131.372 219.213 132.595 219.866 133.927 220.113C135.259 220.361 136.635 220.191 137.867 219.628L324.344 134.012C325.513 133.477 326.498 132.61 327.178 131.519C327.858 130.428 328.203 129.162 328.169 127.877L326.114 47.3748L326.402 47.3677L326.114 47.3748C326.086 46.2885 325.79 45.226 325.25 44.2827C324.711 43.3394 323.945 42.5446 323.023 41.9698C322.101 41.3949 321.051 41.0579 319.966 40.9889C318.882 40.9198 317.797 41.121 316.809 41.5744Z" fill="#CACACA"/>
<path d="M208.008 251.143L149.909 277.817C149.488 278.011 149.032 278.12 148.568 278.138C148.104 278.156 147.642 278.082 147.206 277.921C146.771 277.76 146.372 277.514 146.031 277.199C145.691 276.883 145.416 276.504 145.223 276.082C145.029 275.66 144.92 275.205 144.903 274.741C144.885 274.277 144.96 273.814 145.121 273.379C145.283 272.944 145.528 272.545 145.844 272.205C146.16 271.865 146.54 271.591 146.962 271.397L205.06 244.723C205.912 244.333 206.883 244.297 207.76 244.623C208.638 244.949 209.35 245.61 209.741 246.461C210.131 247.311 210.168 248.282 209.843 249.16C209.518 250.038 208.858 250.751 208.008 251.143Z" fill="white"/>
<path d="M250.511 168.702C251.508 170.869 252.069 173.211 252.16 175.595C252.252 177.978 251.873 180.357 251.045 182.594C250.217 184.831 248.956 186.883 247.334 188.632C245.713 190.382 243.763 191.794 241.595 192.79C239.427 193.785 237.084 194.343 234.7 194.433C232.317 194.522 229.939 194.141 227.703 193.311C225.466 192.48 223.416 191.218 221.668 189.594C219.92 187.971 218.509 186.02 217.516 183.851" fill="#CACACA"/>
<path d="M381.505 364.179H123.219C119.545 364.175 116.022 362.714 113.423 360.115C110.825 357.517 109.363 353.994 109.359 350.32V211.492C109.364 207.817 110.825 204.294 113.423 201.696C116.022 199.098 119.545 197.636 123.219 197.632H381.505C385.179 197.636 388.702 199.098 391.3 201.696C393.899 204.294 395.36 207.817 395.365 211.492V350.32C395.36 353.994 393.899 357.517 391.301 360.115C388.702 362.714 385.179 364.175 381.505 364.179Z" fill="white"/>
<path d="M123.219 206.987C122.026 206.989 120.881 207.463 120.037 208.308C119.193 209.152 118.718 210.296 118.717 211.49V350.318C118.718 351.511 119.193 352.656 120.037 353.5C120.881 354.344 122.026 354.819 123.219 354.82H381.505C382.699 354.819 383.843 354.344 384.687 353.5C385.531 352.656 386.006 351.511 386.008 350.318V211.49C386.006 210.296 385.531 209.152 384.687 208.308C383.843 207.463 382.699 206.989 381.505 206.987H123.219Z" fill="#76CFFF"/>
<path d="M381.505 364.179H123.219C119.545 364.175 116.022 362.714 113.423 360.115C110.825 357.517 109.363 353.994 109.359 350.32V211.492C109.364 207.817 110.825 204.294 113.423 201.696C116.022 199.098 119.545 197.636 123.219 197.632H381.505C385.179 197.636 388.702 199.098 391.3 201.696C393.899 204.294 395.36 207.817 395.365 211.492V350.32C395.36 353.994 393.899 357.517 391.301 360.115C388.702 362.714 385.179 364.175 381.505 364.179ZM123.219 199.071C119.926 199.075 116.769 200.385 114.441 202.713C112.112 205.042 110.803 208.199 110.799 211.492V350.32C110.803 353.612 112.112 356.769 114.441 359.098C116.769 361.426 119.926 362.736 123.219 362.74H381.505C384.798 362.736 387.955 361.426 390.283 359.098C392.611 356.769 393.921 353.612 393.925 350.32V211.492C393.921 208.199 392.611 205.042 390.283 202.713C387.955 200.385 384.798 199.075 381.505 199.071H123.219Z" fill="#3F3D56"/>
<path d="M352.089 287.674H146.897C145.245 287.672 143.635 287.16 142.285 286.208C140.935 285.257 139.912 283.911 139.355 282.357L113.117 208.744C112.687 207.537 112.553 206.244 112.726 204.974C112.899 203.704 113.375 202.494 114.112 201.446C114.85 200.398 115.829 199.543 116.966 198.951C118.104 198.36 119.366 198.051 120.648 198.049L383.8 197.645C385.065 197.643 386.312 197.941 387.44 198.514C388.567 199.088 389.543 199.92 390.287 200.943C391.031 201.966 391.521 203.151 391.719 204.4C391.917 205.649 391.816 206.928 391.424 208.131L391.454 208.143L359.449 282.822C358.832 284.263 357.806 285.491 356.498 286.354C355.189 287.217 353.656 287.676 352.089 287.674ZM383.811 199.084L120.65 199.489C119.598 199.49 118.563 199.744 117.63 200.229C116.698 200.714 115.895 201.415 115.29 202.275C114.684 203.134 114.294 204.126 114.152 205.168C114.01 206.21 114.12 207.27 114.473 208.26L140.711 281.873C141.168 283.148 142.007 284.252 143.114 285.032C144.221 285.813 145.542 286.233 146.897 286.235H352.089C353.375 286.236 354.632 285.859 355.705 285.152C356.778 284.444 357.62 283.437 358.125 282.255L389.847 208.238L390.111 208.351L389.847 208.238C390.275 207.239 390.448 206.15 390.352 205.067C390.255 203.985 389.891 202.943 389.293 202.036C388.695 201.129 387.881 200.384 386.924 199.869C385.967 199.354 384.898 199.084 383.811 199.084Z" fill="#3F3D56"/>
<path d="M197.491 344.143H133.561C132.624 344.143 131.726 343.771 131.064 343.108C130.401 342.446 130.029 341.548 130.029 340.611C130.029 339.674 130.401 338.776 131.064 338.114C131.726 337.451 132.624 337.079 133.561 337.079H197.491C198.427 337.079 199.326 337.451 199.988 338.114C200.65 338.776 201.023 339.674 201.023 340.611C201.023 341.548 200.65 342.446 199.988 343.108C199.326 343.771 198.427 344.143 197.491 344.143Z" fill="white"/>
<path d="M270.515 286.957C270.515 291.772 268.603 296.389 265.198 299.793C261.794 303.198 257.177 305.11 252.362 305.11C247.548 305.11 242.93 303.198 239.526 299.793C236.122 296.389 234.209 291.772 234.209 286.957" fill="#3F3D56"/>
<path d="M155.675 78.2374C159.253 78.2374 162.153 75.3371 162.153 71.7593C162.153 68.1816 159.253 65.2812 155.675 65.2812C152.098 65.2812 149.197 68.1816 149.197 71.7593C149.197 75.3371 152.098 78.2374 155.675 78.2374Z" fill="#76CFFF"/>
<path d="M71.4605 233.711C75.0383 233.711 77.9386 230.811 77.9386 227.233C77.9386 223.655 75.0383 220.755 71.4605 220.755C67.8828 220.755 64.9824 223.655 64.9824 227.233C64.9824 230.811 67.8828 233.711 71.4605 233.711Z" fill="#76CFFF"/>
<path d="M395.365 112.067C398.943 112.067 401.843 109.167 401.843 105.589C401.843 102.012 398.943 99.1113 395.365 99.1113C391.787 99.1113 388.887 102.012 388.887 105.589C388.887 109.167 391.787 112.067 395.365 112.067Z" fill="#76CFFF"/>
<path d="M506.252 380.515H382.957C382.729 380.515 382.511 380.425 382.351 380.264C382.19 380.103 382.1 379.885 382.1 379.658C382.1 379.431 382.19 379.213 382.351 379.052C382.511 378.891 382.729 378.801 382.957 378.801H506.252C506.479 378.801 506.696 378.892 506.856 379.053C507.016 379.213 507.106 379.431 507.106 379.658C507.106 379.885 507.016 380.102 506.856 380.263C506.696 380.424 506.479 380.514 506.252 380.515Z" fill="#CACACA"/>
</g>
<defs>
<clipPath id="clip0_5145_44909">
<rect width="442.127" height="380.515" fill="white" transform="translate(64.9824)"/>
</clipPath>
</defs>
</svg>
