<svg width="566" height="376" viewBox="0 0 566 376" fill="none" xmlns="http://www.w3.org/2000/svg">
<path fill-rule="evenodd" clip-rule="evenodd" d="M61.3043 76.9896C99.0854 44.6006 160.032 42.8639 213.096 29.0513C259.667 16.9289 303.935 -5.54487 352.252 1.25569C401.311 8.16069 438.394 37.4397 473.049 65.6395C508.955 94.8561 542.441 126.325 554.499 165.826C567.748 209.232 575.557 259.393 543.405 296.126C511.728 332.315 447.134 334.581 394.296 348.851C346.95 361.638 301.643 376.038 251.583 374.941C192.208 373.64 128.592 371.844 82.8135 342.026C34.0116 310.239 4.47301 261.073 0.438365 211.358C-3.51119 162.692 19.4237 112.893 61.3043 76.9896Z" fill="white"/>
<g clip-path="url(#clip0_5145_44958)">
<path d="M184.972 55.7945C185.619 57.6037 185.529 59.5946 184.721 61.3382C183.914 63.0817 182.454 64.438 180.655 65.1148C180.258 65.2633 179.847 65.3764 179.43 65.4526L175.273 90.9055L165.521 81.902L170.964 59.1119C170.762 57.1914 171.325 55.2689 172.53 53.7598C173.734 52.2508 175.485 51.2765 177.402 51.0475C179.015 50.8626 180.643 51.2318 182.019 52.0944C183.394 52.9571 184.436 54.2618 184.972 55.7945L184.972 55.7945Z" fill="#FFB6B6"/>
<path d="M113.008 113.467C113.008 113.467 120.576 103.468 148.039 103.742L163.627 98.0781L167.19 65.4219L179.658 68.3906L177.877 108.766L151.158 124.203L116.127 131.328L113.008 113.467Z" fill="#027FC2"/>
<path d="M70.8066 359.651L78.0011 362.717L93.2504 336.427L82.6323 331.902L70.8066 359.651Z" fill="#FFB6B6"/>
<path d="M130.26 366.459L138.079 366.459L141.8 336.295L130.258 336.296L130.26 366.459Z" fill="#FFB6B6"/>
<path d="M129.983 374.618L154.031 374.617V374.313C154.03 371.83 153.044 369.45 151.289 367.694C149.534 365.939 147.153 364.953 144.671 364.953H144.67L140.277 361.62L132.082 364.953L129.982 364.953L129.983 374.618Z" fill="#3B3D42"/>
<path d="M66.4336 364.873L88.5563 374.301L88.6756 374.021C89.6487 371.737 89.6748 369.161 88.7483 366.858C87.8217 364.555 86.0183 362.714 83.7347 361.741L83.7342 361.74L80.9998 356.953L72.1535 356.805L70.2224 355.982L66.4336 364.873Z" fill="#3B3D42"/>
<path d="M137.929 187.94L149.814 260.308L146.579 271.092L150.824 278.73L144.591 345.806L147.121 351.376L140.052 355.736H125.668L124.904 295.011L121.351 286.096V281.182L114.118 244.154L112.786 286.51L110.682 295.439L112.45 301.797L110.14 306.251L90.3501 348.746H74.2207L75.4682 339.136C72.5784 337.673 79.8069 333.397 80.5015 330.233L78.1265 324.89L80.5015 314.796L82.6792 295.072L80.3826 253.439L81.4633 197.376L100.332 182.947L137.929 187.94Z" fill="#1D4C66"/>
<path d="M108.987 92.6351C117.99 92.6351 125.287 85.3373 125.287 76.3351C125.287 67.3329 117.99 60.0352 108.987 60.0352C99.9852 60.0352 92.6875 67.3329 92.6875 76.3351C92.6875 85.3373 99.9852 92.6351 108.987 92.6351Z" fill="#FFB6B6"/>
<path d="M81.3979 199.926C81.369 199.926 81.3402 199.922 81.3124 199.914C81.0114 199.83 80.7737 199.764 81.8597 190.373L83.0319 182.951L81.8876 176.397L79.9628 174.472L83.0562 171.379L81.1605 157.349L76.0072 130.13C75.1212 125.433 75.8097 120.575 77.9658 116.309C80.1219 112.043 83.6251 108.608 87.9323 106.536L98.0777 97.1261L116.747 96.9863L122.719 104.751L138.521 110.119L135.901 164.324L137.739 168.612L137.581 168.755C137.569 168.766 136.345 169.873 135.795 170.482C135.529 170.86 136.028 173.686 136.646 176.085L137.437 182.007L135.442 183.432L138.036 186.496L138.787 192.127L138.363 192.021C137.886 191.902 90.5738 180.394 81.7246 199.678C81.7022 199.748 81.6588 199.809 81.6003 199.854C81.5419 199.898 81.4712 199.923 81.3979 199.926Z" fill="#027FC2"/>
<path d="M104.816 91.8365C104.746 91.6832 104.677 91.5294 104.607 91.375C104.634 91.3759 104.661 91.3797 104.687 91.3804L104.816 91.8365Z" fill="#3B3D42"/>
<path d="M92.2326 60.7768C93.0065 60.0466 94.0124 59.6117 95.0746 59.548C96.1286 59.582 97.1974 60.534 96.9791 61.5657C98.9151 58.1378 101.997 55.5013 105.683 54.1191C109.369 52.7369 113.424 52.6972 117.137 54.007C119.757 54.9313 122.326 56.7803 122.927 59.4923C122.986 60.2043 123.198 60.8951 123.55 61.5171C123.854 61.8497 124.25 62.0858 124.687 62.1966C125.124 62.3073 125.584 62.2878 126.01 62.1404L126.036 62.1328C126.182 62.083 126.339 62.0781 126.488 62.1187C126.636 62.1594 126.769 62.2437 126.87 62.3608C126.97 62.4779 127.033 62.6224 127.05 62.7755C127.067 62.9287 127.038 63.0835 126.966 63.2199L126.225 64.6023C127.159 64.8106 128.13 64.79 129.055 64.5421C129.209 64.5019 129.371 64.5101 129.52 64.5657C129.668 64.6213 129.796 64.7216 129.886 64.8528C129.975 64.9839 130.022 65.1396 130.02 65.2983C130.017 65.4571 129.966 65.6113 129.872 65.7396C128.64 67.4249 127.032 68.7995 125.175 69.7538C123.319 70.7081 121.265 71.2159 119.178 71.2367C116.216 71.2187 113.224 70.198 110.342 70.879C109.227 71.1425 108.185 71.6523 107.292 72.3709C106.4 73.0896 105.68 73.999 105.185 75.0322C104.69 76.0655 104.432 77.1965 104.431 78.3423C104.43 79.4881 104.686 80.6195 105.179 81.6536C104.294 80.6851 102.582 80.9144 101.676 81.864C101.259 82.3724 100.951 82.9609 100.77 83.5932C100.59 84.2256 100.541 84.8882 100.627 85.5401C100.869 87.5368 101.462 89.4751 102.378 91.2653C98.8762 91.1575 95.4914 89.9775 92.6813 87.8846C89.8711 85.7917 87.771 82.8867 86.6647 79.562C85.5583 76.2374 85.499 72.6533 86.4947 69.2939C87.4904 65.9344 89.4932 62.9615 92.2326 60.7768V60.7768Z" fill="#3B3D42"/>
<path d="M189.049 365.14L184.472 357.784L183.557 361.987C183.397 362.724 183.237 363.472 183.088 364.214C181.788 363.104 180.404 362.076 179.051 361.091C174.895 358.075 170.74 355.054 166.588 352.03L167.888 359.571C168.69 364.214 169.527 368.952 171.51 373.197C171.73 373.678 171.967 374.153 172.223 374.617H191.543C191.699 374.186 191.806 373.74 191.864 373.287C191.869 373.257 191.871 373.227 191.87 373.197C192.173 370.318 190.581 367.604 189.049 365.14Z" fill="#76CFFF"/>
<path d="M30.3811 365.14L34.9589 357.784L35.8733 361.987C36.0336 362.724 36.1939 363.472 36.3424 364.214C37.6427 363.104 39.0261 362.076 40.3798 361.091C44.536 358.075 48.6903 355.054 52.8427 352.03L51.5424 359.571C50.7408 364.214 49.9035 368.952 47.9205 373.197C47.7007 373.678 47.4633 374.153 47.2079 374.617H27.8873C27.7319 374.186 27.6243 373.74 27.5666 373.287C27.5618 373.257 27.5599 373.227 27.5608 373.197C27.2579 370.318 28.8492 367.604 30.3811 365.14Z" fill="#76CFFF"/>
<path d="M233.309 375.324H0.707066C0.614053 375.324 0.521904 375.306 0.435894 375.271C0.349884 375.235 0.271701 375.183 0.205836 375.118C0.13997 375.052 0.0877098 374.974 0.0520529 374.888C0.0163961 374.802 -0.00195312 374.71 -0.00195312 374.617C-0.00195312 374.524 0.0163961 374.432 0.0520529 374.346C0.0877098 374.26 0.13997 374.182 0.205836 374.117C0.271701 374.051 0.349884 373.999 0.435894 373.963C0.521904 373.928 0.614053 373.91 0.707066 373.91H233.309C233.496 373.91 233.676 373.985 233.808 374.117C233.941 374.25 234.015 374.43 234.015 374.617C234.015 374.805 233.941 374.984 233.808 375.117C233.676 375.25 233.496 375.324 233.309 375.324Z" fill="#027FC2"/>
<path d="M330.751 74.1648H260.2C259.471 74.1637 258.773 73.8737 258.259 73.3583C257.744 72.8429 257.455 72.1444 257.455 71.4161C257.455 70.6878 257.744 69.9892 258.259 69.4738C258.773 68.9585 259.471 68.6684 260.2 68.6673H330.751C334.296 68.6178 334.331 74.2147 330.751 74.1648Z" fill="#027FC2"/>
<path d="M425.791 88.5437H260.2C259.471 88.5426 258.773 88.2526 258.259 87.7372C257.744 87.2218 257.455 86.5233 257.455 85.795C257.455 85.0667 257.744 84.3681 258.259 83.8527C258.773 83.3374 259.471 83.0473 260.2 83.0462H425.791C429.336 82.9967 429.371 88.5936 425.791 88.5437Z" fill="#027FC2"/>
<path d="M483.478 96.2755C493.237 96.2755 501.147 88.3646 501.147 78.606C501.147 68.8474 493.237 60.9365 483.478 60.9365C473.719 60.9365 465.809 68.8474 465.809 78.606C465.809 88.3646 473.719 96.2755 483.478 96.2755Z" fill="#FFC533"/>
<path d="M481.066 87.8018C480.761 87.8018 480.46 87.7307 480.187 87.5943C479.914 87.4578 479.677 87.2596 479.494 87.0154L474.673 80.588C474.518 80.3815 474.405 80.1465 474.341 79.8964C474.277 79.6463 474.263 79.3859 474.299 79.1303C474.335 78.8746 474.422 78.6287 474.553 78.4064C474.685 78.1842 474.859 77.9901 475.066 77.8351C475.272 77.6802 475.507 77.5675 475.757 77.5035C476.008 77.4395 476.268 77.4253 476.523 77.462C476.779 77.4986 477.025 77.5852 477.247 77.7169C477.469 77.8486 477.663 78.0228 477.818 78.2296L480.972 82.4342L489.072 70.2844C489.215 70.0697 489.399 69.8852 489.614 69.7416C489.828 69.5979 490.069 69.498 490.322 69.4473C490.575 69.3967 490.835 69.3965 491.089 69.4465C491.342 69.4966 491.583 69.5961 491.798 69.7393C492.012 69.8825 492.197 70.0665 492.34 70.281C492.484 70.4955 492.584 70.7361 492.635 70.9892C492.685 71.2423 492.685 71.5029 492.635 71.7561C492.585 72.0094 492.486 72.2502 492.343 72.465L482.702 86.9265C482.527 87.188 482.293 87.404 482.018 87.5561C481.742 87.7083 481.435 87.7923 481.121 87.8012C481.103 87.8015 481.084 87.8018 481.066 87.8018Z" fill="white"/>
<path d="M224.811 62.0381H180.061C179.362 62.0389 178.691 62.317 178.197 62.8113C177.703 63.3057 177.425 63.976 177.424 64.6751V92.5361C177.425 93.2353 177.703 93.9055 178.197 94.3999C178.691 94.8943 179.362 95.1724 180.061 95.1731H224.811C225.51 95.1724 226.18 94.8943 226.674 94.3999C227.169 93.9056 227.447 93.2353 227.448 92.5361V64.6751C227.447 63.976 227.169 63.3057 226.674 62.8113C226.18 62.3169 225.51 62.0389 224.811 62.0381ZM225.676 82.051C225.665 84.8874 224.543 87.6066 222.551 89.6253C220.558 91.6441 217.854 92.8014 215.018 92.8492C210.477 92.9083 217.53 92.9313 212.054 92.9313C199.531 92.9313 186.473 92.8117 181.601 92.7341C180.96 92.7209 180.35 92.4576 179.9 92.0004C179.451 91.5433 179.198 90.9285 179.195 90.2874V64.6772C179.196 64.4476 179.287 64.2275 179.449 64.0649C179.611 63.9024 179.831 63.8107 180.061 63.8098H224.809C225.038 63.8101 225.258 63.9013 225.421 64.0634C225.583 64.2255 225.675 64.4453 225.676 64.6749V82.051Z" fill="#027FC2"/>
<path d="M218.909 79.8201H184.814C184.512 79.8196 184.218 79.7261 183.972 79.5523C183.725 79.3784 183.538 79.1327 183.436 78.8487L178.171 64.0755C178.092 63.855 178.068 63.6189 178.099 63.3869C178.131 63.155 178.218 62.934 178.353 62.7426C178.487 62.5512 178.666 62.395 178.874 62.287C179.082 62.179 179.312 62.1225 179.546 62.1222L225.273 62.041H225.275C225.517 62.041 225.755 62.1011 225.968 62.2158C226.181 62.3306 226.362 62.4964 226.495 62.6984C226.629 62.9004 226.71 63.1323 226.731 63.3734C226.753 63.6144 226.714 63.857 226.619 64.0794L226.539 64.0453L226.619 64.0794L220.253 78.9338C220.14 79.1969 219.953 79.4212 219.714 79.5788C219.475 79.7364 219.195 79.8203 218.909 79.8201Z" fill="#027FC2"/>
<path d="M202.411 83.463C204.423 83.463 206.054 81.8319 206.054 79.8199C206.054 77.8078 204.423 76.1768 202.411 76.1768C200.399 76.1768 198.768 77.8078 198.768 79.8199C198.768 81.8319 200.399 83.463 202.411 83.463Z" fill="#1D4C66"/>
<path d="M330.751 152.551H260.2C259.471 152.549 258.773 152.259 258.259 151.744C257.744 151.229 257.455 150.53 257.455 149.802C257.455 149.073 257.744 148.375 258.259 147.86C258.773 147.344 259.471 147.054 260.2 147.053H330.751C334.296 147.004 334.331 152.6 330.751 152.551Z" fill="#027FC2"/>
<path d="M425.791 166.928H260.2C259.471 166.928 258.772 166.639 258.256 166.123C257.741 165.608 257.451 164.909 257.451 164.18C257.451 163.451 257.741 162.752 258.256 162.236C258.772 161.721 259.471 161.431 260.2 161.431H425.791C429.336 161.382 429.371 166.978 425.791 166.928Z" fill="#027FC2"/>
<path d="M483.478 174.66C493.237 174.66 501.147 166.749 501.147 156.991C501.147 147.232 493.237 139.321 483.478 139.321C473.719 139.321 465.809 147.232 465.809 156.991C465.809 166.749 473.719 174.66 483.478 174.66Z" fill="#FFC533"/>
<path d="M481.066 166.187C480.761 166.187 480.46 166.116 480.187 165.98C479.914 165.843 479.677 165.645 479.494 165.401L474.673 158.974C474.518 158.767 474.405 158.532 474.341 158.282C474.277 158.032 474.263 157.772 474.299 157.516C474.335 157.26 474.422 157.014 474.553 156.792C474.685 156.57 474.859 156.376 475.065 156.221C475.272 156.066 475.507 155.953 475.757 155.889C476.008 155.825 476.268 155.811 476.523 155.848C476.779 155.884 477.025 155.971 477.247 156.103C477.469 156.234 477.663 156.409 477.818 156.615L480.972 160.82L489.072 148.67C489.215 148.455 489.399 148.27 489.613 148.126C489.828 147.982 490.069 147.882 490.322 147.831C490.575 147.781 490.836 147.78 491.089 147.83C491.343 147.88 491.584 147.98 491.799 148.123C492.014 148.266 492.198 148.451 492.342 148.665C492.485 148.88 492.585 149.121 492.636 149.374C492.686 149.627 492.687 149.888 492.636 150.142C492.586 150.395 492.486 150.636 492.343 150.851L482.702 165.312C482.527 165.574 482.293 165.79 482.018 165.942C481.742 166.094 481.435 166.178 481.121 166.187C481.102 166.187 481.084 166.187 481.066 166.187Z" fill="white"/>
<path d="M224.811 140.424H180.061C179.362 140.425 178.691 140.703 178.197 141.197C177.703 141.691 177.425 142.362 177.424 143.061V170.922C177.425 171.621 177.703 172.291 178.197 172.786C178.691 173.28 179.362 173.558 180.061 173.559H224.811C225.51 173.558 226.18 173.28 226.674 172.786C227.169 172.291 227.447 171.621 227.448 170.922V143.061C227.447 142.362 227.169 141.691 226.674 141.197C226.18 140.703 225.51 140.425 224.811 140.424ZM225.676 160.437C225.665 163.273 224.543 165.992 222.551 168.011C220.558 170.03 217.854 171.187 215.018 171.235C210.477 171.294 217.53 171.317 212.054 171.317C199.531 171.317 186.473 171.197 181.601 171.12C180.96 171.107 180.35 170.843 179.9 170.386C179.451 169.929 179.198 169.314 179.195 168.673V143.063C179.196 142.833 179.287 142.613 179.449 142.451C179.611 142.288 179.831 142.196 180.061 142.196H224.809C225.038 142.196 225.258 142.287 225.421 142.449C225.583 142.611 225.675 142.831 225.676 143.061V160.437Z" fill="#027FC2"/>
<path d="M218.909 158.205H184.814C184.512 158.204 184.218 158.111 183.972 157.937C183.725 157.763 183.538 157.517 183.437 157.233L178.171 142.46C178.092 142.24 178.068 142.004 178.099 141.772C178.131 141.54 178.218 141.319 178.353 141.127C178.487 140.936 178.666 140.78 178.874 140.672C179.082 140.564 179.312 140.507 179.546 140.507L225.273 140.426H225.275C225.517 140.426 225.755 140.486 225.968 140.601C226.181 140.715 226.362 140.881 226.495 141.083C226.629 141.285 226.71 141.517 226.731 141.758C226.753 141.999 226.714 142.242 226.619 142.464L226.539 142.43L226.619 142.464L220.253 157.319C220.14 157.582 219.953 157.806 219.714 157.964C219.475 158.121 219.195 158.205 218.909 158.205Z" fill="#027FC2"/>
<path d="M202.411 161.849C204.423 161.849 206.054 160.218 206.054 158.206C206.054 156.194 204.423 154.562 202.411 154.562C200.399 154.562 198.768 156.194 198.768 158.206C198.768 160.218 200.399 161.849 202.411 161.849Z" fill="#1D4C66"/>
<path d="M330.751 230.935H260.2C259.471 230.934 258.773 230.644 258.259 230.129C257.744 229.613 257.455 228.915 257.455 228.187C257.455 227.458 257.744 226.76 258.259 226.244C258.773 225.729 259.471 225.439 260.2 225.438H330.751C334.296 225.388 334.331 230.985 330.751 230.935Z" fill="#027FC2"/>
<path d="M425.791 245.314H260.2C259.471 245.314 258.772 245.025 258.256 244.509C257.741 243.994 257.451 243.294 257.451 242.565C257.451 241.836 257.741 241.137 258.256 240.622C258.772 240.106 259.471 239.817 260.2 239.817H425.791C429.336 239.767 429.371 245.364 425.791 245.314Z" fill="#027FC2"/>
<path d="M483.478 253.045C493.237 253.045 501.147 245.134 501.147 235.376C501.147 225.617 493.237 217.706 483.478 217.706C473.719 217.706 465.809 225.617 465.809 235.376C465.809 245.134 473.719 253.045 483.478 253.045Z" fill="#FFC533"/>
<path d="M481.067 244.572C480.762 244.572 480.461 244.501 480.188 244.365C479.915 244.228 479.678 244.03 479.495 243.786L474.674 237.358C474.519 237.152 474.407 236.917 474.343 236.667C474.279 236.417 474.265 236.157 474.301 235.901C474.338 235.646 474.424 235.4 474.556 235.178C474.687 234.956 474.861 234.762 475.067 234.607C475.274 234.452 475.509 234.339 475.759 234.275C476.009 234.211 476.269 234.197 476.525 234.234C476.78 234.27 477.026 234.357 477.248 234.488C477.47 234.62 477.664 234.793 477.819 235L480.973 239.205L489.073 227.055C489.216 226.84 489.4 226.655 489.614 226.511C489.829 226.367 490.07 226.267 490.323 226.216C490.576 226.165 490.837 226.165 491.09 226.215C491.344 226.265 491.585 226.365 491.8 226.508C492.015 226.651 492.199 226.835 492.343 227.05C492.487 227.265 492.587 227.506 492.637 227.759C492.688 228.012 492.688 228.273 492.637 228.526C492.587 228.78 492.487 229.021 492.344 229.235L482.703 243.697C482.528 243.958 482.294 244.174 482.019 244.327C481.744 244.479 481.436 244.563 481.122 244.572C481.104 244.572 481.085 244.572 481.067 244.572Z" fill="white"/>
<path d="M224.811 218.809H180.061C179.362 218.809 178.691 219.087 178.197 219.582C177.703 220.076 177.425 220.746 177.424 221.446V249.307C177.425 250.006 177.703 250.676 178.197 251.17C178.691 251.665 179.362 251.943 180.061 251.944H224.811C225.51 251.943 226.18 251.665 226.674 251.17C227.169 250.676 227.447 250.006 227.448 249.307V221.446C227.447 220.746 227.169 220.076 226.674 219.582C226.18 219.087 225.51 218.809 224.811 218.809ZM225.676 238.821C225.665 241.658 224.543 244.377 222.551 246.396C220.558 248.415 217.854 249.572 215.018 249.62C210.477 249.679 217.53 249.702 212.054 249.702C199.531 249.702 186.473 249.582 181.601 249.505C180.96 249.491 180.35 249.228 179.9 248.771C179.451 248.314 179.198 247.699 179.195 247.058V221.448C179.196 221.218 179.287 220.998 179.449 220.835C179.611 220.673 179.831 220.581 180.061 220.58H224.809C225.038 220.581 225.258 220.672 225.421 220.834C225.583 220.996 225.675 221.216 225.676 221.445V238.821Z" fill="#027FC2"/>
<path d="M218.909 236.591H184.814C184.512 236.59 184.218 236.497 183.972 236.323C183.725 236.149 183.538 235.903 183.436 235.619L178.171 220.846C178.092 220.626 178.068 220.389 178.099 220.157C178.131 219.925 178.218 219.705 178.353 219.513C178.487 219.322 178.666 219.165 178.874 219.057C179.082 218.95 179.312 218.893 179.546 218.893L225.273 218.812H225.275C225.517 218.812 225.755 218.872 225.968 218.986C226.181 219.101 226.362 219.267 226.495 219.469C226.629 219.671 226.71 219.903 226.731 220.144C226.753 220.385 226.714 220.627 226.619 220.85L226.539 220.816L226.619 220.85L220.253 235.704C220.14 235.967 219.953 236.192 219.714 236.349C219.475 236.507 219.195 236.591 218.909 236.591Z" fill="#027FC2"/>
<path d="M202.411 240.234C204.423 240.234 206.054 238.603 206.054 236.591C206.054 234.579 204.423 232.948 202.411 232.948C200.399 232.948 198.768 234.579 198.768 236.591C198.768 238.603 200.399 240.234 202.411 240.234Z" fill="#1D4C66"/>
<path d="M127.992 201.512C126.071 201.541 124.215 200.815 122.825 199.489C121.434 198.162 120.621 196.343 120.56 194.423C120.547 193.998 120.572 193.573 120.635 193.153L97.8789 181.016L109.544 174.687L129.365 187.182C131.248 187.61 132.887 188.762 133.927 190.389C134.968 192.016 135.326 193.987 134.925 195.876C134.58 197.462 133.706 198.884 132.446 199.909C131.186 200.933 129.616 201.498 127.992 201.512L127.992 201.512Z" fill="#FFB6B6"/>
<path d="M117.9 192.788L79.8718 177.943L73.8262 147.468L76.0713 129.946C76.3759 127.569 77.1539 125.277 78.3595 123.205C79.565 121.134 81.1735 119.325 83.09 117.886C85.0065 116.447 87.1921 115.406 89.5175 114.826C91.843 114.246 94.2611 114.138 96.629 114.508L96.7566 114.528L96.829 114.635C97.1192 115.064 103.827 125.429 94.8002 151.146L95.1336 167.489L125.038 181.448L117.9 192.788Z" fill="#027FC2"/>
</g>
<defs>
<clipPath id="clip0_5145_44958">
<rect width="501.147" height="324.324" fill="white" transform="translate(0 51)"/>
</clipPath>
</defs>
</svg>
